<?xml version="1.0" encoding="us-ascii" standalone="no"?><svg xmlns="http://www.w3.org/2000/svg" xmlns:xlink="http://www.w3.org/1999/xlink" contentStyleType="text/css" height="694px" preserveAspectRatio="none" style="width:879px;height:694px;background:#FFFFFF;" version="1.1" viewBox="0 0 879 694" width="879px" zoomAndPan="magnify"><defs/><g><text fill="#000000" font-family="sans-serif" font-size="14" font-weight="bold" lengthAdjust="spacing" textLength="206" x="329.6896" y="22.9951">MESI &#32531;&#23384;&#19968;&#33268;&#24615;&#21327;&#35758;&#29366;&#24577;&#36716;&#25442;</text><g id="I"><rect fill="#F1F1F1" height="50.2656" rx="12.5" ry="12.5" style="stroke:#181818;stroke-width:0.5;" width="104" x="269.3792" y="140.2969"/><line style="stroke:#181818;stroke-width:0.5;" x1="269.3792" x2="373.3792" y1="166.5938" y2="166.5938"/><text fill="#000000" font-family="sans-serif" font-size="14" lengthAdjust="spacing" textLength="84" x="279.3792" y="158.292">&#26080;&#25928; (Invalid)</text><text fill="#000000" font-family="sans-serif" font-size="12" lengthAdjust="spacing" textLength="72" x="274.3792" y="182.7324">&#19981;&#23384;&#22312;&#25110;&#36807;&#26399;</text></g><g id="S"><rect fill="#F1F1F1" height="64.2344" rx="12.5" ry="12.5" style="stroke:#181818;stroke-width:0.5;" width="140" x="10.3792" y="453.2969"/><line style="stroke:#181818;stroke-width:0.5;" x1="10.3792" x2="150.3792" y1="479.5938" y2="479.5938"/><text fill="#000000" font-family="sans-serif" font-size="14" lengthAdjust="spacing" textLength="91" x="34.8792" y="471.292">&#20849;&#20139; (Shared)</text><text fill="#000000" font-family="sans-serif" font-size="12" lengthAdjust="spacing" textLength="48" x="15.3792" y="495.7324">&#28165;&#27905;&#25968;&#25454;</text><text fill="#000000" font-family="sans-serif" font-size="12" lengthAdjust="spacing" textLength="120" x="15.3792" y="509.7012">&#21487;&#33021;&#23384;&#22312;&#20110;&#20854;&#20182;&#32531;&#23384;&#20013;</text></g><g id="E"><rect fill="#F1F1F1" height="64.2344" rx="12.5" ry="12.5" style="stroke:#181818;stroke-width:0.5;" width="142" x="406.3792" y="297.2969"/><line style="stroke:#181818;stroke-width:0.5;" x1="406.3792" x2="548.3792" y1="323.5938" y2="323.5938"/><text fill="#000000" font-family="sans-serif" font-size="14" lengthAdjust="spacing" textLength="105" x="424.8792" y="315.292">&#29420;&#21344; (Exclusive)</text><text fill="#000000" font-family="sans-serif" font-size="12" lengthAdjust="spacing" textLength="122" x="411.3792" y="339.7324">&#28165;&#27905;&#25968;&#25454; (&#19982;&#20869;&#23384;&#30456;&#21516;)</text><text fill="#000000" font-family="sans-serif" font-size="12" lengthAdjust="spacing" textLength="84" x="411.3792" y="353.7012">&#20165;&#23384;&#22312;&#20110;&#26412;&#32531;&#23384;</text></g><g id="M"><rect fill="#F1F1F1" height="64.2344" rx="12.5" ry="12.5" style="stroke:#181818;stroke-width:0.5;" width="134" x="315.3792" y="624.2969"/><line style="stroke:#181818;stroke-width:0.5;" x1="315.3792" x2="449.3792" y1="650.5938" y2="650.5938"/><text fill="#000000" font-family="sans-serif" font-size="14" lengthAdjust="spacing" textLength="114" x="325.3792" y="642.292">&#24050;&#20462;&#25913; (Modified)</text><text fill="#000000" font-family="sans-serif" font-size="12" lengthAdjust="spacing" textLength="60" x="320.3792" y="666.7324">&#19982;&#20869;&#23384;&#19981;&#21516;</text><text fill="#000000" font-family="sans-serif" font-size="12" lengthAdjust="spacing" textLength="84" x="320.3792" y="680.7012">&#20165;&#23384;&#22312;&#20110;&#26412;&#32531;&#23384;</text></g><ellipse cx="321.3792" cy="53.2969" fill="#222222" rx="10" ry="10" style="stroke:#222222;stroke-width:1.0;"/><g id="link_*start*_I"><path d="M321.3792,63.2989 C321.3792,79.9239 321.3792,109.9519 321.3792,134.1699 " fill="none" id="*start*-to-I" style="stroke:#181818;stroke-width:1.0;"/><polygon fill="#181818" points="321.3792,140.1699,325.3792,131.1699,321.3792,135.1699,317.3792,131.1699,321.3792,140.1699" style="stroke:#181818;stroke-width:1.0;"/><text fill="#000000" font-family="sans-serif" font-size="13" lengthAdjust="spacing" textLength="52" x="322.3792" y="106.3638">&#21021;&#22987;&#29366;&#24577;</text></g><g id="link_I_S"><path d="M269.1602,172.5309 C200.9572,183.8469 84.4772,214.8219 35.3792,297.2969 C6,346.6479 33.35,408.9395 56.4716,447.8895 " fill="none" id="I-to-S" style="stroke:#181818;stroke-width:1.0;"/><polygon fill="#181818" points="59.5344,453.0489,58.3799,443.2679,56.9821,448.7494,51.5006,447.3516,59.5344,453.0489" style="stroke:#181818;stroke-width:1.0;"/><text fill="#000000" font-family="sans-serif" font-size="13" lengthAdjust="spacing" textLength="65" x="65.3792" y="318.8638">&#22788;&#29702;&#22120;&#35835;&#21462;</text><text fill="#000000" font-family="sans-serif" font-size="13" lengthAdjust="spacing" textLength="123" x="36.3792" y="333.9966">+ &#25968;&#25454;&#22312;&#20869;&#23384;/&#32531;&#23384;&#20013;</text><text fill="#000000" font-family="sans-serif" font-size="13" lengthAdjust="spacing" textLength="114" x="40.8792" y="349.1294">(&#34987;&#20854;&#20182;&#22788;&#29702;&#22120;&#20849;&#20139;)</text></g><g id="link_S_I"><path d="M103.7744,453.1519 C131.7012,416.0009 179.8472,352.0399 221.3792,297.2969 C249.7402,259.9139 279.1569,221.4301 299.2579,195.1731 " fill="none" id="S-to-I" style="stroke:#181818;stroke-width:1.0;"/><polygon fill="#181818" points="302.9052,190.4089,294.2582,195.1237,299.8658,194.379,300.6105,199.9867,302.9052,190.4089" style="stroke:#181818;stroke-width:1.0;"/><text fill="#000000" font-family="sans-serif" font-size="13" lengthAdjust="spacing" textLength="78" x="266.3792" y="326.3638">&#30417;&#21548;&#21040;&#20889;&#25805;&#20316;</text><text fill="#000000" font-family="sans-serif" font-size="13" lengthAdjust="spacing" textLength="166" x="222.3792" y="341.4966">(&#26469;&#33258;&#20854;&#20182;&#22788;&#29702;&#22120;&#30340; BusRdX)</text></g><g id="link_I_E"><path d="M313.1542,190.5919 C307.3252,212.5899 302.9762,244.8899 318.3792,267.2969 C323.9272,275.3679 360.6519,289.4748 400.2689,303.0898 " fill="none" id="I-to-E" style="stroke:#181818;stroke-width:1.0;"/><polygon fill="#181818" points="405.9432,305.0399,398.7318,298.332,401.2146,303.4148,396.1317,305.8976,405.9432,305.0399" style="stroke:#181818;stroke-width:1.0;"/><text fill="#000000" font-family="sans-serif" font-size="13" lengthAdjust="spacing" textLength="65" x="343.8792" y="233.3638">&#22788;&#29702;&#22120;&#35835;&#21462;</text><text fill="#000000" font-family="sans-serif" font-size="13" lengthAdjust="spacing" textLength="93" x="329.8792" y="248.4966">+ &#25968;&#25454;&#26410;&#34987;&#20849;&#20139;</text><text fill="#000000" font-family="sans-serif" font-size="13" lengthAdjust="spacing" textLength="114" x="319.3792" y="263.6294">(&#21482;&#26377;&#27492;&#22788;&#29702;&#22120;&#38656;&#35201;)</text></g><g id="link_E_I"><path d="M472.7642,297.0039 C467.8392,273.4139 457.9222,241.5949 438.3792,220.2969 C421.1362,201.5059 401.6718,190.8335 379.1458,182.4555 " fill="none" id="E-to-I" style="stroke:#181818;stroke-width:1.0;"/><polygon fill="#181818" points="373.5222,180.3639,380.5632,187.2503,378.2085,182.1069,383.352,179.7521,373.5222,180.3639" style="stroke:#181818;stroke-width:1.0;"/><text fill="#000000" font-family="sans-serif" font-size="13" lengthAdjust="spacing" textLength="78" x="508.3792" y="240.8638">&#30417;&#21548;&#21040;&#20889;&#25805;&#20316;</text><text fill="#000000" font-family="sans-serif" font-size="13" lengthAdjust="spacing" textLength="166" x="464.3792" y="255.9966">(&#26469;&#33258;&#20854;&#20182;&#22788;&#29702;&#22120;&#30340; BusRdX)</text></g><g id="link_I_I"><path d="M373.6142,153.6899 C392.7242,153.3749 408.3792,157.2439 408.3792,165.2969 C408.3792,173.3499 398.7234,177.3178 379.6134,177.0028 " fill="none" id="I-to-I" style="stroke:#181818;stroke-width:1.0;"/><polygon fill="#181818" points="373.6142,176.9039,382.547,181.0517,378.6135,176.9863,382.6789,173.0527,373.6142,176.9039" style="stroke:#181818;stroke-width:1.0;"/><text fill="#000000" font-family="sans-serif" font-size="13" lengthAdjust="spacing" textLength="65" x="462.8792" y="162.3638">&#22788;&#29702;&#22120;&#20889;&#20837;</text><text fill="#000000" font-family="sans-serif" font-size="13" lengthAdjust="spacing" textLength="162" x="414.3792" y="177.4966">&#8594; &#21457;&#36865; BusRdX &#33719;&#21462;&#25152;&#26377;&#26435;</text></g><g id="link_S_M"><path d="M76.5678,517.3419 C75.4388,541.4319 78.1968,574.0349 97.3792,594.2969 C126.6442,625.2086 234.5784,641.2161 309.2254,648.9838 " fill="none" id="S-to-M" style="stroke:#181818;stroke-width:1.0;"/><polygon fill="#181818" points="315.1932,649.6048,306.6555,644.6948,310.22,649.0873,305.8275,652.6518,315.1932,649.6048" style="stroke:#181818;stroke-width:1.0;"/><text fill="#000000" font-family="sans-serif" font-size="13" lengthAdjust="spacing" textLength="65" x="138.3792" y="560.3638">&#22788;&#29702;&#22120;&#20889;&#20837;</text><text fill="#000000" font-family="sans-serif" font-size="13" lengthAdjust="spacing" textLength="145" x="98.3792" y="575.4966">&#8594; &#20351;&#20854;&#20182;&#22788;&#29702;&#22120;&#21103;&#26412;&#22833;&#25928;</text><text fill="#000000" font-family="sans-serif" font-size="13" lengthAdjust="spacing" textLength="127" x="107.3792" y="590.6294">(&#33258;&#36523;&#21464;&#20026;&#24050;&#20462;&#25913;&#29366;&#24577;)</text></g><g id="link_M_S"><path d="M331.2222,624.1144 C317.7882,615.1028 303.6372,604.8371 291.3792,594.2969 C269.9112,575.8379 271.9202,563.0269 248.3792,547.2969 C218.8382,527.5579 187.8465,515.045 156.2755,505.285 " fill="none" id="M-to-S" style="stroke:#181818;stroke-width:1.0;"/><polygon fill="#181818" points="150.5432,503.5129,157.9603,509.9926,155.3201,504.9896,160.3231,502.3495,150.5432,503.5129" style="stroke:#181818;stroke-width:1.0;"/><text fill="#000000" font-family="sans-serif" font-size="13" lengthAdjust="spacing" textLength="78" x="332.3792" y="560.3638">&#30417;&#21548;&#21040;&#35835;&#25805;&#20316;</text><text fill="#000000" font-family="sans-serif" font-size="13" lengthAdjust="spacing" textLength="158" x="292.3792" y="575.4966">(&#26469;&#33258;&#20854;&#20182;&#22788;&#29702;&#22120;&#30340; BusRd)</text><text fill="#000000" font-family="sans-serif" font-size="13" lengthAdjust="spacing" textLength="67" x="337.8792" y="590.6294">+ &#20889;&#22238;&#20869;&#23384;</text></g><g id="link_S_S"><path d="M150.5492,478.0209 C170.2532,478.3389 185.3792,480.7649 185.3792,485.2969 C185.3792,489.8289 176.2524,492.1581 156.5484,492.4761 " fill="none" id="S-to-S" style="stroke:#181818;stroke-width:1.0;"/><polygon fill="#181818" points="150.5492,492.5729,159.6125,496.4271,155.5485,492.4922,159.4835,488.4282,150.5492,492.5729" style="stroke:#181818;stroke-width:1.0;"/><text fill="#000000" font-family="sans-serif" font-size="13" lengthAdjust="spacing" textLength="78" x="231.3792" y="482.3638">&#30417;&#21548;&#21040;&#35835;&#25805;&#20316;</text><text fill="#000000" font-family="sans-serif" font-size="13" lengthAdjust="spacing" textLength="158" x="191.3792" y="497.4966">(&#26469;&#33258;&#20854;&#20182;&#22788;&#29702;&#22120;&#30340; BusRd)</text></g><g id="link_S_S"><path d="M150.6892,473.7009 C234.5192,467.2449 355.3792,471.1099 355.3792,485.2969 C355.3792,499.4839 240.5015,503.8096 156.6715,497.3536 " fill="none" id="S-to-S-1" style="stroke:#181818;stroke-width:1.0;"/><polygon fill="#181818" points="150.6892,496.8929,159.3555,501.5721,155.6744,497.2768,159.9697,493.5958,150.6892,496.8929" style="stroke:#181818;stroke-width:1.0;"/><text fill="#000000" font-family="sans-serif" font-size="13" lengthAdjust="spacing" textLength="39" x="361.3792" y="489.8638">&#26412;&#22320;&#35835;</text></g><g id="link_E_M"><path d="M482.1862,361.6889 C488.5512,413.4139 494.8012,518.3759 455.3792,594.2969 C449.5192,605.5833 445.0815,611.6329 435.4455,620.121 " fill="none" id="E-to-M" style="stroke:#181818;stroke-width:1.0;"/><polygon fill="#181818" points="430.9432,624.087,440.3407,621.1396,434.6951,620.782,435.0527,615.1364,430.9432,624.087" style="stroke:#181818;stroke-width:1.0;"/><text fill="#000000" font-family="sans-serif" font-size="13" lengthAdjust="spacing" textLength="65" x="524.8792" y="482.3638">&#22788;&#29702;&#22120;&#20889;&#20837;</text><text fill="#000000" font-family="sans-serif" font-size="13" lengthAdjust="spacing" textLength="140" x="487.3792" y="497.4966">(&#26412;&#22320;&#20889;&#65292;&#26080;&#38656;&#24635;&#32447;&#20107;&#21153;)</text></g><g id="link_E_S"><path d="M406.1962,353.0399 C358.5182,368.3769 302.5062,386.6359 291.3792,391.2969 C262.7782,403.2779 257.5332,410.2989 229.3792,423.2969 C204.0012,435.0129 181.2776,444.637 156.2266,454.754 " fill="none" id="E-to-S" style="stroke:#181818;stroke-width:1.0;"/><polygon fill="#181818" points="150.6632,457.0009,160.5062,457.3396,155.2994,455.1285,157.5104,449.9217,150.6632,457.0009" style="stroke:#181818;stroke-width:1.0;"/><text fill="#000000" font-family="sans-serif" font-size="13" lengthAdjust="spacing" textLength="78" x="332.3792" y="404.3638">&#30417;&#21548;&#21040;&#35835;&#25805;&#20316;</text><text fill="#000000" font-family="sans-serif" font-size="13" lengthAdjust="spacing" textLength="158" x="292.3792" y="419.4966">(&#26469;&#33258;&#20854;&#20182;&#22788;&#29702;&#22120;&#30340; BusRd)</text></g><g id="link_M_I"><path d="M449.5772,639.3558 C510.2052,621.0386 595.8922,584.4509 636.3792,517.2969 C835.2012,187.5229 677.5542,265.5009 639.3792,220.2969 C605.9582,180.7219 460.7676,170.3531 379.4766,167.5301 " fill="none" id="M-to-I" style="stroke:#181818;stroke-width:1.0;"/><polygon fill="#181818" points="373.4802,167.3219,382.3359,171.6318,378.4772,167.4954,382.6136,163.6366,373.4802,167.3219" style="stroke:#181818;stroke-width:1.0;"/><text fill="#000000" font-family="sans-serif" font-size="13" lengthAdjust="spacing" textLength="78" x="749.3792" y="404.3638">&#30417;&#21548;&#21040;&#20889;&#25805;&#20316;</text><text fill="#000000" font-family="sans-serif" font-size="13" lengthAdjust="spacing" textLength="166" x="705.3792" y="419.4966">(&#26469;&#33258;&#20854;&#20182;&#22788;&#29702;&#22120;&#30340; BusRdX)</text></g><g id="link_M_M"><path d="M449.5752,640.594 C469.1882,641.1368 484.3792,646.3711 484.3792,656.2969 C484.3792,666.2227 475.1859,671.291 455.5729,671.8338 " fill="none" id="M-to-M" style="stroke:#181818;stroke-width:1.0;"/><polygon fill="#181818" points="449.5752,671.9998,458.6824,675.7493,454.5733,671.8615,458.4611,667.7523,449.5752,671.9998" style="stroke:#181818;stroke-width:1.0;"/><text fill="#000000" font-family="sans-serif" font-size="13" lengthAdjust="spacing" textLength="56" x="490.3792" y="660.8638">&#26412;&#22320;&#35835;/&#20889;</text></g><g id="link_E_E"><path d="M548.4682,314.7529 C568.2372,315.4219 583.3792,320.2709 583.3792,329.2969 C583.3792,338.3229 574.2337,342.9689 554.4647,343.6379 " fill="none" id="E-to-E" style="stroke:#181818;stroke-width:1.0;"/><polygon fill="#181818" points="548.4682,343.8409,557.5983,347.5342,553.4653,343.6718,557.3277,339.5388,548.4682,343.8409" style="stroke:#181818;stroke-width:1.0;"/><text fill="#000000" font-family="sans-serif" font-size="13" lengthAdjust="spacing" textLength="39" x="589.3792" y="333.8638">&#26412;&#22320;&#35835;</text></g></g></svg>