<?xml version="1.0" encoding="us-ascii" standalone="no"?><svg xmlns="http://www.w3.org/2000/svg" xmlns:xlink="http://www.w3.org/1999/xlink" contentStyleType="text/css" height="1310px" preserveAspectRatio="none" style="width:919px;height:1310px;background:#FFFFFF;" version="1.1" viewBox="0 0 919 1310" width="919px" zoomAndPan="magnify"><defs/><g><text fill="#000000" font-family="sans-serif" font-size="14" font-weight="bold" lengthAdjust="spacing" textLength="210" x="350.5" y="27.9951">&#22810;&#22788;&#29702;&#22120; (MP) &#31995;&#32479;&#21551;&#21160;&#26102;&#24207;&#22270;</text><rect fill="none" height="59.2656" style="stroke:#000000;stroke-width:1.5;" width="162" x="640" y="776.1172"/><rect fill="none" height="59.2656" style="stroke:#000000;stroke-width:1.5;" width="224" x="307" y="1064.1797"/><line style="stroke:#181818;stroke-width:0.5;stroke-dasharray:5.0,5.0;" x1="48" x2="48" y1="73.5938" y2="1274.9766"/><line style="stroke:#181818;stroke-width:0.5;stroke-dasharray:5.0,5.0;" x1="222" x2="222" y1="73.5938" y2="1274.9766"/><line style="stroke:#181818;stroke-width:0.5;stroke-dasharray:5.0,5.0;" x1="378" x2="378" y1="73.5938" y2="1274.9766"/><line style="stroke:#181818;stroke-width:0.5;stroke-dasharray:5.0,5.0;" x1="560" x2="560" y1="73.5938" y2="1274.9766"/><line style="stroke:#181818;stroke-width:0.5;stroke-dasharray:5.0,5.0;" x1="701" x2="701" y1="73.5938" y2="1274.9766"/><line style="stroke:#181818;stroke-width:0.5;stroke-dasharray:5.0,5.0;" x1="879" x2="879" y1="73.5938" y2="1274.9766"/><rect fill="#E2E2F0" height="30.2969" rx="2.5" ry="2.5" style="stroke:#181818;stroke-width:0.5;" width="70" x="13" y="42.2969"/><text fill="#000000" font-family="sans-serif" font-size="14" lengthAdjust="spacing" textLength="56" x="20" y="62.292">&#30828;&#20214;&#31995;&#32479;</text><rect fill="#E2E2F0" height="30.2969" rx="2.5" ry="2.5" style="stroke:#181818;stroke-width:0.5;" width="70" x="13" y="1273.9766"/><text fill="#000000" font-family="sans-serif" font-size="14" lengthAdjust="spacing" textLength="56" x="20" y="1293.9717">&#30828;&#20214;&#31995;&#32479;</text><rect fill="#E2E2F0" height="30.2969" rx="2.5" ry="2.5" style="stroke:#181818;stroke-width:0.5;" width="112" x="166" y="42.2969"/><text fill="#000000" font-family="sans-serif" font-size="14" lengthAdjust="spacing" textLength="98" x="173" y="62.292">&#25152;&#26377;&#36923;&#36753;&#22788;&#29702;&#22120;</text><rect fill="#E2E2F0" height="30.2969" rx="2.5" ry="2.5" style="stroke:#181818;stroke-width:0.5;" width="112" x="166" y="1273.9766"/><text fill="#000000" font-family="sans-serif" font-size="14" lengthAdjust="spacing" textLength="98" x="173" y="1293.9717">&#25152;&#26377;&#36923;&#36753;&#22788;&#29702;&#22120;</text><rect fill="#E2E2F0" height="30.2969" rx="2.5" ry="2.5" style="stroke:#181818;stroke-width:0.5;" width="122" x="317" y="42.2969"/><text fill="#000000" font-family="sans-serif" font-size="14" lengthAdjust="spacing" textLength="108" x="324" y="62.292">&#33258;&#20030;&#22788;&#29702;&#22120;(BSP)</text><rect fill="#E2E2F0" height="30.2969" rx="2.5" ry="2.5" style="stroke:#181818;stroke-width:0.5;" width="122" x="317" y="1273.9766"/><text fill="#000000" font-family="sans-serif" font-size="14" lengthAdjust="spacing" textLength="108" x="324" y="1293.9717">&#33258;&#20030;&#22788;&#29702;&#22120;(BSP)</text><rect fill="#E2E2F0" height="30.2969" rx="2.5" ry="2.5" style="stroke:#181818;stroke-width:0.5;" width="112" x="504" y="42.2969"/><text fill="#000000" font-family="sans-serif" font-size="14" lengthAdjust="spacing" textLength="98" x="511" y="62.292">&#24212;&#29992;&#22788;&#29702;&#22120;(AP)</text><rect fill="#E2E2F0" height="30.2969" rx="2.5" ry="2.5" style="stroke:#181818;stroke-width:0.5;" width="112" x="504" y="1273.9766"/><text fill="#000000" font-family="sans-serif" font-size="14" lengthAdjust="spacing" textLength="98" x="511" y="1293.9717">&#24212;&#29992;&#22788;&#29702;&#22120;(AP)</text><rect fill="#E2E2F0" height="30.2969" rx="2.5" ry="2.5" style="stroke:#181818;stroke-width:0.5;" width="102" x="650" y="42.2969"/><text fill="#000000" font-family="sans-serif" font-size="14" lengthAdjust="spacing" textLength="88" x="657" y="62.292">AP&#21021;&#22987;&#21270;&#20195;&#30721;</text><rect fill="#E2E2F0" height="30.2969" rx="2.5" ry="2.5" style="stroke:#181818;stroke-width:0.5;" width="102" x="650" y="1273.9766"/><text fill="#000000" font-family="sans-serif" font-size="14" lengthAdjust="spacing" textLength="88" x="657" y="1293.9717">AP&#21021;&#22987;&#21270;&#20195;&#30721;</text><rect fill="#E2E2F0" height="30.2969" rx="2.5" ry="2.5" style="stroke:#181818;stroke-width:0.5;" width="56" x="851" y="42.2969"/><text fill="#000000" font-family="sans-serif" font-size="14" lengthAdjust="spacing" textLength="42" x="858" y="62.292">&#31995;&#32479;&#34920;</text><rect fill="#E2E2F0" height="30.2969" rx="2.5" ry="2.5" style="stroke:#181818;stroke-width:0.5;" width="56" x="851" y="1273.9766"/><text fill="#000000" font-family="sans-serif" font-size="14" lengthAdjust="spacing" textLength="42" x="858" y="1293.9717">&#31995;&#32479;&#34920;</text><rect fill="#EEEEEE" height="3" style="stroke:#EEEEEE;stroke-width:1.0;" width="912" x="0" y="104.1602"/><line style="stroke:#000000;stroke-width:1.0;" x1="0" x2="912" y1="104.1602" y2="104.1602"/><line style="stroke:#000000;stroke-width:1.0;" x1="0" x2="912" y1="107.1602" y2="107.1602"/><rect fill="#EEEEEE" height="23.1328" style="stroke:#000000;stroke-width:2.0;" width="89" x="411.5" y="93.5938"/><text fill="#000000" font-family="sans-serif" font-size="13" font-weight="bold" lengthAdjust="spacing" textLength="70" x="417.5" y="109.6606">&#21021;&#22987;&#21270;&#38454;&#27573;</text><polygon fill="#181818" points="210,143.8594,220,147.8594,210,151.8594,214,147.8594" style="stroke:#181818;stroke-width:1.0;"/><line style="stroke:#181818;stroke-width:1.0;" x1="48" x2="216" y1="147.8594" y2="147.8594"/><text fill="#000000" font-family="sans-serif" font-size="13" lengthAdjust="spacing" textLength="150" x="55" y="142.7935">&#20998;&#37197;APIC ID&#21644;&#20210;&#35009;&#20248;&#20808;&#26435;</text><line style="stroke:#181818;stroke-width:1.0;" x1="222" x2="264" y1="176.9922" y2="176.9922"/><line style="stroke:#181818;stroke-width:1.0;" x1="264" x2="264" y1="176.9922" y2="189.9922"/><line style="stroke:#181818;stroke-width:1.0;" x1="223" x2="264" y1="189.9922" y2="189.9922"/><polygon fill="#181818" points="233,185.9922,223,189.9922,233,193.9922,229,189.9922" style="stroke:#181818;stroke-width:1.0;"/><text fill="#000000" font-family="sans-serif" font-size="13" lengthAdjust="spacing" textLength="142" x="229" y="171.9263">&#21516;&#26102;&#25191;&#34892;&#20869;&#32622;&#33258;&#27979;(BIST)</text><polygon fill="#181818" points="59,215.125,49,219.125,59,223.125,55,219.125" style="stroke:#181818;stroke-width:1.0;"/><line style="stroke:#181818;stroke-width:1.0;" x1="53" x2="221" y1="219.125" y2="219.125"/><text fill="#000000" font-family="sans-serif" font-size="13" lengthAdjust="spacing" textLength="130" x="65" y="214.0591">&#20351;&#29992;&#36873;&#25321;&#26426;&#21046;&#36873;&#20030;BSP</text><path d="M5,232.125 L5,272.125 L265,272.125 L265,242.125 L255,232.125 L5,232.125 " fill="#FEFFDD" style="stroke:#181818;stroke-width:0.5;"/><path d="M255,232.125 L255,242.125 L265,242.125 L255,232.125 " fill="#FEFFDD" style="stroke:#181818;stroke-width:0.5;"/><text fill="#000000" font-family="sans-serif" font-size="13" lengthAdjust="spacing" textLength="78" x="76.5" y="249.1919">BSP&#36873;&#20030;&#23436;&#25104;</text><text fill="#000000" font-family="sans-serif" font-size="13" lengthAdjust="spacing" textLength="108" x="76.5" y="264.3247">&#20854;&#20182;&#22788;&#29702;&#22120;&#25104;&#20026;AP</text><rect fill="#EEEEEE" height="3" style="stroke:#EEEEEE;stroke-width:1.0;" width="912" x="0" y="297.957"/><line style="stroke:#000000;stroke-width:1.0;" x1="0" x2="912" y1="297.957" y2="297.957"/><line style="stroke:#000000;stroke-width:1.0;" x1="0" x2="912" y1="300.957" y2="300.957"/><rect fill="#EEEEEE" height="23.1328" style="stroke:#000000;stroke-width:2.0;" width="118" x="397" y="287.3906"/><text fill="#000000" font-family="sans-serif" font-size="13" font-weight="bold" lengthAdjust="spacing" textLength="99" x="403" y="303.4575">BSP&#21021;&#22987;&#21270;&#38454;&#27573;</text><line style="stroke:#181818;stroke-width:1.0;" x1="378" x2="420" y1="341.6563" y2="341.6563"/><line style="stroke:#181818;stroke-width:1.0;" x1="420" x2="420" y1="341.6563" y2="354.6563"/><line style="stroke:#181818;stroke-width:1.0;" x1="379" x2="420" y1="354.6563" y2="354.6563"/><polygon fill="#181818" points="389,350.6563,379,354.6563,389,358.6563,385,354.6563" style="stroke:#181818;stroke-width:1.0;"/><text fill="#000000" font-family="sans-serif" font-size="13" lengthAdjust="spacing" textLength="168" x="385" y="336.5903">&#20174;0xFFFFFFF0&#25191;&#34892;BIOS&#20195;&#30721;</text><line style="stroke:#181818;stroke-width:1.0;" x1="378" x2="420" y1="383.7891" y2="383.7891"/><line style="stroke:#181818;stroke-width:1.0;" x1="420" x2="420" y1="383.7891" y2="396.7891"/><line style="stroke:#181818;stroke-width:1.0;" x1="379" x2="420" y1="396.7891" y2="396.7891"/><polygon fill="#181818" points="389,392.7891,379,396.7891,389,400.7891,385,396.7891" style="stroke:#181818;stroke-width:1.0;"/><text fill="#000000" font-family="sans-serif" font-size="13" lengthAdjust="spacing" textLength="91" x="385" y="378.7231">&#21019;&#24314;ACPI/MP&#34920;</text><line style="stroke:#181818;stroke-width:1.0;" x1="378" x2="420" y1="425.9219" y2="425.9219"/><line style="stroke:#181818;stroke-width:1.0;" x1="420" x2="420" y1="425.9219" y2="438.9219"/><line style="stroke:#181818;stroke-width:1.0;" x1="379" x2="420" y1="438.9219" y2="438.9219"/><polygon fill="#181818" points="389,434.9219,379,438.9219,389,442.9219,385,438.9219" style="stroke:#181818;stroke-width:1.0;"/><text fill="#000000" font-family="sans-serif" font-size="13" lengthAdjust="spacing" textLength="78" x="385" y="420.856">&#36827;&#20837;&#20445;&#25252;&#27169;&#24335;</text><line style="stroke:#181818;stroke-width:1.0;" x1="378" x2="420" y1="468.0547" y2="468.0547"/><line style="stroke:#181818;stroke-width:1.0;" x1="420" x2="420" y1="468.0547" y2="481.0547"/><line style="stroke:#181818;stroke-width:1.0;" x1="379" x2="420" y1="481.0547" y2="481.0547"/><polygon fill="#181818" points="389,477.0547,379,481.0547,389,485.0547,385,481.0547" style="stroke:#181818;stroke-width:1.0;"/><text fill="#000000" font-family="sans-serif" font-size="13" lengthAdjust="spacing" textLength="144" x="385" y="462.9888">&#26144;&#23556;Local APIC&#22320;&#22336;&#31354;&#38388;</text><polygon fill="#181818" points="867,506.1875,877,510.1875,867,514.1875,871,510.1875" style="stroke:#181818;stroke-width:1.0;"/><line style="stroke:#181818;stroke-width:1.0;" x1="378" x2="873" y1="510.1875" y2="510.1875"/><text fill="#000000" font-family="sans-serif" font-size="13" lengthAdjust="spacing" textLength="163" x="385" y="505.1216">&#28155;&#21152;BSP&#30340;APIC ID&#21040;&#31995;&#32479;&#34920;</text><rect fill="#EEEEEE" height="3" style="stroke:#EEEEEE;stroke-width:1.0;" width="912" x="0" y="538.7539"/><line style="stroke:#000000;stroke-width:1.0;" x1="0" x2="912" y1="538.7539" y2="538.7539"/><line style="stroke:#000000;stroke-width:1.0;" x1="0" x2="912" y1="541.7539" y2="541.7539"/><rect fill="#EEEEEE" height="23.1328" style="stroke:#000000;stroke-width:2.0;" width="95" x="408.5" y="528.1875"/><text fill="#000000" font-family="sans-serif" font-size="13" font-weight="bold" lengthAdjust="spacing" textLength="76" x="414.5" y="544.2544">AP&#21796;&#37266;&#38454;&#27573;</text><line style="stroke:#181818;stroke-width:1.0;" x1="378" x2="420" y1="582.4531" y2="582.4531"/><line style="stroke:#181818;stroke-width:1.0;" x1="420" x2="420" y1="582.4531" y2="595.4531"/><line style="stroke:#181818;stroke-width:1.0;" x1="379" x2="420" y1="595.4531" y2="595.4531"/><polygon fill="#181818" points="389,591.4531,379,595.4531,389,599.4531,385,595.4531" style="stroke:#181818;stroke-width:1.0;"/><text fill="#000000" font-family="sans-serif" font-size="13" lengthAdjust="spacing" textLength="144" x="385" y="577.3872">&#35774;&#32622;&#22788;&#29702;&#22120;&#35745;&#25968;&#21464;&#37327; = 1</text><polygon fill="#181818" points="548,620.5859,558,624.5859,548,628.5859,552,624.5859" style="stroke:#181818;stroke-width:1.0;"/><line style="stroke:#181818;stroke-width:1.0;" x1="378" x2="554" y1="624.5859" y2="624.5859"/><text fill="#000000" font-family="sans-serif" font-size="13" lengthAdjust="spacing" textLength="157" x="385" y="619.52">&#24191;&#25773;INIT-SIPI-SIPI&#28040;&#24687;&#24207;&#21015;</text><path d="M565,637.5859 L565,662.5859 L743,662.5859 L743,647.5859 L733,637.5859 L565,637.5859 " fill="#FEFFDD" style="stroke:#181818;stroke-width:0.5;"/><path d="M733,637.5859 L733,647.5859 L743,647.5859 L733,637.5859 " fill="#FEFFDD" style="stroke:#181818;stroke-width:0.5;"/><text fill="#000000" font-family="sans-serif" font-size="13" lengthAdjust="spacing" textLength="157" x="571" y="654.6528">SIPI&#21253;&#21547;AP&#21021;&#22987;&#21270;&#20195;&#30721;&#22320;&#22336;</text><polygon fill="#181818" points="689,684.8516,699,688.8516,689,692.8516,693,688.8516" style="stroke:#181818;stroke-width:1.0;"/><line style="stroke:#181818;stroke-width:1.0;" x1="560" x2="695" y1="688.8516" y2="688.8516"/><text fill="#000000" font-family="sans-serif" font-size="13" lengthAdjust="spacing" textLength="117" x="567" y="683.7856">&#20174;&#25351;&#23450;&#22320;&#22336;&#24320;&#22987;&#25191;&#34892;</text><rect fill="#EEEEEE" height="3" style="stroke:#EEEEEE;stroke-width:1.0;" width="912" x="0" y="717.418"/><line style="stroke:#000000;stroke-width:1.0;" x1="0" x2="912" y1="717.418" y2="717.418"/><line style="stroke:#000000;stroke-width:1.0;" x1="0" x2="912" y1="720.418" y2="720.418"/><rect fill="#EEEEEE" height="23.1328" style="stroke:#000000;stroke-width:2.0;" width="109" x="401.5" y="706.8516"/><text fill="#000000" font-family="sans-serif" font-size="13" font-weight="bold" lengthAdjust="spacing" textLength="90" x="407.5" y="722.9185">AP&#21021;&#22987;&#21270;&#38454;&#27573;</text><polygon fill="#181818" points="689,757.1172,699,761.1172,689,765.1172,693,761.1172" style="stroke:#181818;stroke-width:1.0;"/><line style="stroke:#181818;stroke-width:1.0;" x1="560" x2="695" y1="761.1172" y2="761.1172"/><text fill="#000000" font-family="sans-serif" font-size="13" lengthAdjust="spacing" textLength="104" x="567" y="756.0513">&#23581;&#35797;&#33719;&#21462;&#21021;&#22987;&#21270;&#38145;</text><path d="M640,776.1172 L717,776.1172 L717,783.25 L707,793.25 L640,793.25 L640,776.1172 " fill="#EEEEEE" style="stroke:#000000;stroke-width:1.5;"/><rect fill="none" height="59.2656" style="stroke:#000000;stroke-width:1.5;" width="162" x="640" y="776.1172"/><text fill="#000000" font-family="sans-serif" font-size="13" font-weight="bold" lengthAdjust="spacing" textLength="32" x="655" y="789.1841">loop</text><text fill="#000000" font-family="sans-serif" font-size="11" font-weight="bold" lengthAdjust="spacing" textLength="65" x="732" y="788.3276">[&#30452;&#21040;&#33719;&#24471;&#38145;]</text><line style="stroke:#181818;stroke-width:1.0;" x1="701" x2="743" y1="814.3828" y2="814.3828"/><line style="stroke:#181818;stroke-width:1.0;" x1="743" x2="743" y1="814.3828" y2="827.3828"/><line style="stroke:#181818;stroke-width:1.0;" x1="702" x2="743" y1="827.3828" y2="827.3828"/><polygon fill="#181818" points="712,823.3828,702,827.3828,712,831.3828,708,827.3828" style="stroke:#181818;stroke-width:1.0;"/><text fill="#000000" font-family="sans-serif" font-size="13" lengthAdjust="spacing" textLength="39" x="708" y="809.3169">&#31454;&#20105;&#38145;</text><line style="stroke:#181818;stroke-width:1.0;" x1="701" x2="743" y1="863.5156" y2="863.5156"/><line style="stroke:#181818;stroke-width:1.0;" x1="743" x2="743" y1="863.5156" y2="876.5156"/><line style="stroke:#181818;stroke-width:1.0;" x1="702" x2="743" y1="876.5156" y2="876.5156"/><polygon fill="#181818" points="712,872.5156,702,876.5156,712,880.5156,708,876.5156" style="stroke:#181818;stroke-width:1.0;"/><text fill="#000000" font-family="sans-serif" font-size="13" lengthAdjust="spacing" textLength="111" x="708" y="858.4497">&#35835;&#21462;&#33258;&#24049;&#30340;APIC ID</text><polygon fill="#181818" points="867,901.6484,877,905.6484,867,909.6484,871,905.6484" style="stroke:#181818;stroke-width:1.0;"/><line style="stroke:#181818;stroke-width:1.0;" x1="701" x2="873" y1="905.6484" y2="905.6484"/><text fill="#000000" font-family="sans-serif" font-size="13" lengthAdjust="spacing" textLength="154" x="708" y="900.5825">&#28155;&#21152;AP&#30340;APIC ID&#21040;&#31995;&#32479;&#34920;</text><polygon fill="#181818" points="389,930.7813,379,934.7813,389,938.7813,385,934.7813" style="stroke:#181818;stroke-width:1.0;"/><line style="stroke:#181818;stroke-width:1.0;" x1="383" x2="700" y1="934.7813" y2="934.7813"/><text fill="#000000" font-family="sans-serif" font-size="13" lengthAdjust="spacing" textLength="112" x="395" y="929.7153">&#22788;&#29702;&#22120;&#35745;&#25968;&#21464;&#37327;&#21152;1</text><line style="stroke:#181818;stroke-width:1.0;" x1="701" x2="743" y1="963.9141" y2="963.9141"/><line style="stroke:#181818;stroke-width:1.0;" x1="743" x2="743" y1="963.9141" y2="976.9141"/><line style="stroke:#181818;stroke-width:1.0;" x1="702" x2="743" y1="976.9141" y2="976.9141"/><polygon fill="#181818" points="712,972.9141,702,976.9141,712,980.9141,708,976.9141" style="stroke:#181818;stroke-width:1.0;"/><text fill="#000000" font-family="sans-serif" font-size="13" lengthAdjust="spacing" textLength="78" x="708" y="958.8481">&#37322;&#25918;&#21021;&#22987;&#21270;&#38145;</text><polygon fill="#181818" points="571,1002.0469,561,1006.0469,571,1010.0469,567,1006.0469" style="stroke:#181818;stroke-width:1.0;"/><line style="stroke:#181818;stroke-width:1.0;" x1="565" x2="700" y1="1006.0469" y2="1006.0469"/><text fill="#000000" font-family="sans-serif" font-size="13" lengthAdjust="spacing" textLength="104" x="577" y="1000.981">&#25191;&#34892;cli&#25351;&#20196;&#24182;&#20572;&#26426;</text><rect fill="#EEEEEE" height="3" style="stroke:#EEEEEE;stroke-width:1.0;" width="912" x="0" y="1034.6133"/><line style="stroke:#000000;stroke-width:1.0;" x1="0" x2="912" y1="1034.6133" y2="1034.6133"/><line style="stroke:#000000;stroke-width:1.0;" x1="0" x2="912" y1="1037.6133" y2="1037.6133"/><rect fill="#EEEEEE" height="23.1328" style="stroke:#000000;stroke-width:2.0;" width="103" x="404.5" y="1024.0469"/><text fill="#000000" font-family="sans-serif" font-size="13" font-weight="bold" lengthAdjust="spacing" textLength="84" x="410.5" y="1040.1138">&#31995;&#32479;&#21551;&#21160;&#38454;&#27573;</text><path d="M307,1064.1797 L384,1064.1797 L384,1071.3125 L374,1081.3125 L307,1081.3125 L307,1064.1797 " fill="#EEEEEE" style="stroke:#000000;stroke-width:1.5;"/><rect fill="none" height="59.2656" style="stroke:#000000;stroke-width:1.5;" width="224" x="307" y="1064.1797"/><text fill="#000000" font-family="sans-serif" font-size="13" font-weight="bold" lengthAdjust="spacing" textLength="32" x="322" y="1077.2466">loop</text><text fill="#000000" font-family="sans-serif" font-size="11" font-weight="bold" lengthAdjust="spacing" textLength="114" x="399" y="1076.3901">[&#27599;&#20010;AP&#37325;&#22797;&#19978;&#36848;&#36807;&#31243;]</text><line style="stroke:#181818;stroke-width:1.0;" x1="378" x2="420" y1="1102.4453" y2="1102.4453"/><line style="stroke:#181818;stroke-width:1.0;" x1="420" x2="420" y1="1102.4453" y2="1115.4453"/><line style="stroke:#181818;stroke-width:1.0;" x1="379" x2="420" y1="1115.4453" y2="1115.4453"/><polygon fill="#181818" points="389,1111.4453,379,1115.4453,389,1119.4453,385,1115.4453" style="stroke:#181818;stroke-width:1.0;"/><text fill="#000000" font-family="sans-serif" font-size="13" lengthAdjust="spacing" textLength="134" x="385" y="1097.3794">&#31561;&#24453;&#25152;&#26377;AP&#23436;&#25104;&#21021;&#22987;&#21270;</text><line style="stroke:#181818;stroke-width:1.0;" x1="378" x2="420" y1="1151.5781" y2="1151.5781"/><line style="stroke:#181818;stroke-width:1.0;" x1="420" x2="420" y1="1151.5781" y2="1164.5781"/><line style="stroke:#181818;stroke-width:1.0;" x1="379" x2="420" y1="1164.5781" y2="1164.5781"/><polygon fill="#181818" points="389,1160.5781,379,1164.5781,389,1168.5781,385,1164.5781" style="stroke:#181818;stroke-width:1.0;"/><text fill="#000000" font-family="sans-serif" font-size="13" lengthAdjust="spacing" textLength="117" x="385" y="1146.5122">&#35835;&#21462;&#26368;&#32456;&#22788;&#29702;&#22120;&#24635;&#25968;</text><line style="stroke:#181818;stroke-width:1.0;" x1="378" x2="420" y1="1193.7109" y2="1193.7109"/><line style="stroke:#181818;stroke-width:1.0;" x1="420" x2="420" y1="1193.7109" y2="1206.7109"/><line style="stroke:#181818;stroke-width:1.0;" x1="379" x2="420" y1="1206.7109" y2="1206.7109"/><polygon fill="#181818" points="389,1202.7109,379,1206.7109,389,1210.7109,385,1206.7109" style="stroke:#181818;stroke-width:1.0;"/><text fill="#000000" font-family="sans-serif" font-size="13" lengthAdjust="spacing" textLength="130" x="385" y="1188.645">&#25191;&#34892;&#25805;&#20316;&#31995;&#32479;&#24341;&#23548;&#20195;&#30721;</text><path d="M478,1219.7109 L478,1259.7109 L642,1259.7109 L642,1229.7109 L632,1219.7109 L478,1219.7109 " fill="#FEFFDD" style="stroke:#181818;stroke-width:0.5;"/><path d="M632,1219.7109 L632,1229.7109 L642,1229.7109 L632,1219.7109 " fill="#FEFFDD" style="stroke:#181818;stroke-width:0.5;"/><text fill="#000000" font-family="sans-serif" font-size="13" lengthAdjust="spacing" textLength="95" x="484" y="1236.7778">AP&#20445;&#25345;&#20572;&#26426;&#29366;&#24577;</text><text fill="#000000" font-family="sans-serif" font-size="13" lengthAdjust="spacing" textLength="143" x="484" y="1251.9106">&#21482;&#21709;&#24212;INIT/NMI/SMI&#28040;&#24687;</text></g></svg>