<?xml version="1.0" encoding="us-ascii" standalone="no"?><svg xmlns="http://www.w3.org/2000/svg" xmlns:xlink="http://www.w3.org/1999/xlink" contentStyleType="text/css" height="2040px" preserveAspectRatio="none" style="width:1100px;height:2040px;background:#FFFFFF;" version="1.1" viewBox="0 0 1100 2040" width="1100px" zoomAndPan="magnify"><defs/><g><text fill="#000000" font-family="sans-serif" font-size="14" font-weight="bold" lengthAdjust="spacing" textLength="240" x="426.25" y="27.9951">&#22810;&#22788;&#29702;&#22120;&#31995;&#32479;&#21551;&#21160;&#19982;&#20219;&#21153;&#35843;&#24230;&#26102;&#24207;&#22270;</text><rect fill="none" height="237.8672" style="stroke:#000000;stroke-width:1.5;" width="738" x="65" y="1117.5781"/><rect fill="none" height="148.4688" style="stroke:#000000;stroke-width:1.5;" width="718" x="75" y="1199.9766"/><rect fill="none" height="525.125" style="stroke:#000000;stroke-width:1.5;" width="1004" x="75" y="1462.8438"/><line style="stroke:#181818;stroke-width:0.5;stroke-dasharray:5.0,5.0;" x1="40" x2="40" y1="73.5938" y2="2004.9688"/><line style="stroke:#181818;stroke-width:0.5;stroke-dasharray:5.0,5.0;" x1="146" x2="146" y1="73.5938" y2="2004.9688"/><line style="stroke:#181818;stroke-width:0.5;stroke-dasharray:5.0,5.0;" x1="305" x2="305" y1="73.5938" y2="2004.9688"/><line style="stroke:#181818;stroke-width:0.5;stroke-dasharray:5.0,5.0;" x1="412.5" x2="412.5" y1="73.5938" y2="2004.9688"/><line style="stroke:#181818;stroke-width:0.5;stroke-dasharray:5.0,5.0;" x1="531" x2="531" y1="73.5938" y2="2004.9688"/><line style="stroke:#181818;stroke-width:0.5;stroke-dasharray:5.0,5.0;" x1="634" x2="634" y1="73.5938" y2="2004.9688"/><line style="stroke:#181818;stroke-width:0.5;stroke-dasharray:5.0,5.0;" x1="741" x2="741" y1="73.5938" y2="2004.9688"/><line style="stroke:#181818;stroke-width:0.5;stroke-dasharray:5.0,5.0;" x1="828" x2="828" y1="73.5938" y2="2004.9688"/><line style="stroke:#181818;stroke-width:0.5;stroke-dasharray:5.0,5.0;" x1="917" x2="917" y1="73.5938" y2="2004.9688"/><line style="stroke:#181818;stroke-width:0.5;stroke-dasharray:5.0,5.0;" x1="1073.5" x2="1073.5" y1="73.5938" y2="2004.9688"/><rect fill="#E2E2F0" height="30.2969" rx="2.5" ry="2.5" style="stroke:#181818;stroke-width:0.5;" width="70" x="5" y="42.2969"/><text fill="#000000" font-family="sans-serif" font-size="14" lengthAdjust="spacing" textLength="56" x="12" y="62.292">&#30828;&#20214;&#31995;&#32479;</text><rect fill="#E2E2F0" height="30.2969" rx="2.5" ry="2.5" style="stroke:#181818;stroke-width:0.5;" width="70" x="5" y="2003.9688"/><text fill="#000000" font-family="sans-serif" font-size="14" lengthAdjust="spacing" textLength="56" x="12" y="2023.9639">&#30828;&#20214;&#31995;&#32479;</text><rect fill="#E2E2F0" height="30.2969" rx="2.5" ry="2.5" style="stroke:#181818;stroke-width:0.5;" width="122" x="85" y="42.2969"/><text fill="#000000" font-family="sans-serif" font-size="14" lengthAdjust="spacing" textLength="108" x="92" y="62.292">&#33258;&#20030;&#22788;&#29702;&#22120;(BSP)</text><rect fill="#E2E2F0" height="30.2969" rx="2.5" ry="2.5" style="stroke:#181818;stroke-width:0.5;" width="122" x="85" y="2003.9688"/><text fill="#000000" font-family="sans-serif" font-size="14" lengthAdjust="spacing" textLength="108" x="92" y="2023.9639">&#33258;&#20030;&#22788;&#29702;&#22120;(BSP)</text><rect fill="#E2E2F0" height="30.2969" rx="2.5" ry="2.5" style="stroke:#181818;stroke-width:0.5;" width="112" x="249" y="42.2969"/><text fill="#000000" font-family="sans-serif" font-size="14" lengthAdjust="spacing" textLength="98" x="256" y="62.292">&#24212;&#29992;&#22788;&#29702;&#22120;(AP)</text><rect fill="#E2E2F0" height="30.2969" rx="2.5" ry="2.5" style="stroke:#181818;stroke-width:0.5;" width="112" x="249" y="2003.9688"/><text fill="#000000" font-family="sans-serif" font-size="14" lengthAdjust="spacing" textLength="98" x="256" y="2023.9639">&#24212;&#29992;&#22788;&#29702;&#22120;(AP)</text><rect fill="#E2E2F0" height="30.2969" rx="2.5" ry="2.5" style="stroke:#181818;stroke-width:0.5;" width="75" x="375.5" y="42.2969"/><text fill="#000000" font-family="sans-serif" font-size="14" lengthAdjust="spacing" textLength="61" x="382.5" y="62.292">BIOS&#22266;&#20214;</text><rect fill="#E2E2F0" height="30.2969" rx="2.5" ry="2.5" style="stroke:#181818;stroke-width:0.5;" width="75" x="375.5" y="2003.9688"/><text fill="#000000" font-family="sans-serif" font-size="14" lengthAdjust="spacing" textLength="61" x="382.5" y="2023.9639">BIOS&#22266;&#20214;</text><rect fill="#E2E2F0" height="30.2969" rx="2.5" ry="2.5" style="stroke:#181818;stroke-width:0.5;" width="84" x="489" y="42.2969"/><text fill="#000000" font-family="sans-serif" font-size="14" lengthAdjust="spacing" textLength="70" x="496" y="62.292">&#20869;&#26680;&#21021;&#22987;&#21270;</text><rect fill="#E2E2F0" height="30.2969" rx="2.5" ry="2.5" style="stroke:#181818;stroke-width:0.5;" width="84" x="489" y="2003.9688"/><text fill="#000000" font-family="sans-serif" font-size="14" lengthAdjust="spacing" textLength="70" x="496" y="2023.9639">&#20869;&#26680;&#21021;&#22987;&#21270;</text><rect fill="#E2E2F0" height="30.2969" rx="2.5" ry="2.5" style="stroke:#181818;stroke-width:0.5;" width="102" x="583" y="42.2969"/><text fill="#000000" font-family="sans-serif" font-size="14" lengthAdjust="spacing" textLength="88" x="590" y="62.292">AP&#21021;&#22987;&#21270;&#20195;&#30721;</text><rect fill="#E2E2F0" height="30.2969" rx="2.5" ry="2.5" style="stroke:#181818;stroke-width:0.5;" width="102" x="583" y="2003.9688"/><text fill="#000000" font-family="sans-serif" font-size="14" lengthAdjust="spacing" textLength="88" x="590" y="2023.9639">AP&#21021;&#22987;&#21270;&#20195;&#30721;</text><rect fill="#E2E2F0" height="30.2969" rx="2.5" ry="2.5" style="stroke:#181818;stroke-width:0.5;" width="84" x="699" y="42.2969"/><text fill="#000000" font-family="sans-serif" font-size="14" lengthAdjust="spacing" textLength="70" x="706" y="62.292">&#20219;&#21153;&#35843;&#24230;&#22120;</text><rect fill="#E2E2F0" height="30.2969" rx="2.5" ry="2.5" style="stroke:#181818;stroke-width:0.5;" width="84" x="699" y="2003.9688"/><text fill="#000000" font-family="sans-serif" font-size="14" lengthAdjust="spacing" textLength="70" x="706" y="2023.9639">&#20219;&#21153;&#35843;&#24230;&#22120;</text><rect fill="#E2E2F0" height="30.2969" rx="2.5" ry="2.5" style="stroke:#181818;stroke-width:0.5;" width="70" x="793" y="42.2969"/><text fill="#000000" font-family="sans-serif" font-size="14" lengthAdjust="spacing" textLength="56" x="800" y="62.292">&#22806;&#22771;&#20219;&#21153;</text><rect fill="#E2E2F0" height="30.2969" rx="2.5" ry="2.5" style="stroke:#181818;stroke-width:0.5;" width="70" x="793" y="2003.9688"/><text fill="#000000" font-family="sans-serif" font-size="14" lengthAdjust="spacing" textLength="56" x="800" y="2023.9639">&#22806;&#22771;&#20219;&#21153;</text><rect fill="#E2E2F0" height="30.2969" rx="2.5" ry="2.5" style="stroke:#181818;stroke-width:0.5;" width="70" x="882" y="42.2969"/><text fill="#000000" font-family="sans-serif" font-size="14" lengthAdjust="spacing" textLength="56" x="889" y="62.292">&#20854;&#20182;&#20219;&#21153;</text><rect fill="#E2E2F0" height="30.2969" rx="2.5" ry="2.5" style="stroke:#181818;stroke-width:0.5;" width="70" x="882" y="2003.9688"/><text fill="#000000" font-family="sans-serif" font-size="14" lengthAdjust="spacing" textLength="56" x="889" y="2023.9639">&#20854;&#20182;&#20219;&#21153;</text><rect fill="#E2E2F0" height="30.2969" rx="2.5" ry="2.5" style="stroke:#181818;stroke-width:0.5;" width="29" x="1059.5" y="42.2969"/><text fill="#000000" font-family="sans-serif" font-size="14" lengthAdjust="spacing" textLength="15" x="1066.5" y="62.292">All</text><rect fill="#E2E2F0" height="30.2969" rx="2.5" ry="2.5" style="stroke:#181818;stroke-width:0.5;" width="29" x="1059.5" y="2003.9688"/><text fill="#000000" font-family="sans-serif" font-size="14" lengthAdjust="spacing" textLength="15" x="1066.5" y="2023.9639">All</text><rect fill="#EEEEEE" height="3" style="stroke:#EEEEEE;stroke-width:1.0;" width="1093.5" x="0" y="104.1602"/><line style="stroke:#000000;stroke-width:1.0;" x1="0" x2="1093.5" y1="104.1602" y2="104.1602"/><line style="stroke:#000000;stroke-width:1.0;" x1="0" x2="1093.5" y1="107.1602" y2="107.1602"/><rect fill="#EEEEEE" height="23.1328" style="stroke:#000000;stroke-width:2.0;" width="136" x="478.75" y="93.5938"/><text fill="#000000" font-family="sans-serif" font-size="13" font-weight="bold" lengthAdjust="spacing" textLength="117" x="484.75" y="109.6606">&#38454;&#27573;1: &#30828;&#20214;&#21021;&#22987;&#21270;</text><polygon fill="#181818" points="134,143.8594,144,147.8594,134,151.8594,138,147.8594" style="stroke:#181818;stroke-width:1.0;"/><line style="stroke:#181818;stroke-width:1.0;" x1="40" x2="140" y1="147.8594" y2="147.8594"/><text fill="#000000" font-family="sans-serif" font-size="13" lengthAdjust="spacing" textLength="65" x="47" y="142.7935">&#36873;&#20030;&#20026;BSP</text><polygon fill="#181818" points="293,172.9922,303,176.9922,293,180.9922,297,176.9922" style="stroke:#181818;stroke-width:1.0;"/><line style="stroke:#181818;stroke-width:1.0;" x1="40" x2="299" y1="176.9922" y2="176.9922"/><text fill="#000000" font-family="sans-serif" font-size="13" lengthAdjust="spacing" textLength="144" x="47" y="171.9263">&#20854;&#20182;&#22788;&#29702;&#22120;&#25104;&#20026;AP(&#20572;&#26426;)</text><polygon fill="#181818" points="401,202.125,411,206.125,401,210.125,405,206.125" style="stroke:#181818;stroke-width:1.0;"/><line style="stroke:#181818;stroke-width:1.0;" x1="146" x2="407" y1="206.125" y2="206.125"/><text fill="#000000" font-family="sans-serif" font-size="13" lengthAdjust="spacing" textLength="109" x="153" y="201.0591">&#25191;&#34892;BIOS&#22266;&#20214;&#20195;&#30721;</text><rect fill="#EEEEEE" height="3" style="stroke:#EEEEEE;stroke-width:1.0;" width="1093.5" x="0" y="234.6914"/><line style="stroke:#000000;stroke-width:1.0;" x1="0" x2="1093.5" y1="234.6914" y2="234.6914"/><line style="stroke:#000000;stroke-width:1.0;" x1="0" x2="1093.5" y1="237.6914" y2="237.6914"/><rect fill="#EEEEEE" height="23.1328" style="stroke:#000000;stroke-width:2.0;" width="142" x="475.75" y="224.125"/><text fill="#000000" font-family="sans-serif" font-size="13" font-weight="bold" lengthAdjust="spacing" textLength="123" x="481.75" y="240.1919">&#38454;&#27573;2: BIOS&#21021;&#22987;&#21270;</text><line style="stroke:#181818;stroke-width:1.0;" x1="413" x2="455" y1="278.3906" y2="278.3906"/><line style="stroke:#181818;stroke-width:1.0;" x1="455" x2="455" y1="278.3906" y2="291.3906"/><line style="stroke:#181818;stroke-width:1.0;" x1="414" x2="455" y1="291.3906" y2="291.3906"/><polygon fill="#181818" points="424,287.3906,414,291.3906,424,295.3906,420,291.3906" style="stroke:#181818;stroke-width:1.0;"/><text fill="#000000" font-family="sans-serif" font-size="13" lengthAdjust="spacing" textLength="95" x="420" y="273.3247">&#21021;&#22987;&#21270;BSP&#21644;AP</text><line style="stroke:#181818;stroke-width:1.0;" x1="413" x2="455" y1="320.5234" y2="320.5234"/><line style="stroke:#181818;stroke-width:1.0;" x1="455" x2="455" y1="320.5234" y2="333.5234"/><line style="stroke:#181818;stroke-width:1.0;" x1="414" x2="455" y1="333.5234" y2="333.5234"/><polygon fill="#181818" points="424,329.5234,414,333.5234,424,337.5234,420,333.5234" style="stroke:#181818;stroke-width:1.0;"/><text fill="#000000" font-family="sans-serif" font-size="13" lengthAdjust="spacing" textLength="104" x="420" y="315.4575">&#21019;&#24314;ACPI/MP&#34920;&#26684;</text><polygon fill="#181818" points="157,358.6563,147,362.6563,157,366.6563,153,362.6563" style="stroke:#181818;stroke-width:1.0;"/><line style="stroke:#181818;stroke-width:1.0;" x1="151" x2="412" y1="362.6563" y2="362.6563"/><text fill="#000000" font-family="sans-serif" font-size="13" lengthAdjust="spacing" textLength="65" x="163" y="357.5903">&#36820;&#22238;&#25511;&#21046;&#26435;</text><rect fill="#EEEEEE" height="3" style="stroke:#EEEEEE;stroke-width:1.0;" width="1093.5" x="0" y="391.2227"/><line style="stroke:#000000;stroke-width:1.0;" x1="0" x2="1093.5" y1="391.2227" y2="391.2227"/><line style="stroke:#000000;stroke-width:1.0;" x1="0" x2="1093.5" y1="394.2227" y2="394.2227"/><rect fill="#EEEEEE" height="23.1328" style="stroke:#000000;stroke-width:2.0;" width="165" x="464.25" y="380.6563"/><text fill="#000000" font-family="sans-serif" font-size="13" font-weight="bold" lengthAdjust="spacing" textLength="146" x="470.25" y="396.7231">&#38454;&#27573;3: BSP&#20869;&#26680;&#21021;&#22987;&#21270;</text><polygon fill="#181818" points="519,430.9219,529,434.9219,519,438.9219,523,434.9219" style="stroke:#181818;stroke-width:1.0;"/><line style="stroke:#181818;stroke-width:1.0;" x1="146" x2="525" y1="434.9219" y2="434.9219"/><text fill="#000000" font-family="sans-serif" font-size="13" lengthAdjust="spacing" textLength="91" x="153" y="429.856">&#21152;&#36733;&#20027;&#24341;&#23548;&#31243;&#24207;</text><polygon fill="#181818" points="519,460.0547,529,464.0547,519,468.0547,523,464.0547" style="stroke:#181818;stroke-width:1.0;"/><line style="stroke:#181818;stroke-width:1.0;" x1="146" x2="525" y1="464.0547" y2="464.0547"/><text fill="#000000" font-family="sans-serif" font-size="13" lengthAdjust="spacing" textLength="78" x="153" y="458.9888">&#36827;&#20837;&#20445;&#25252;&#27169;&#24335;</text><polygon fill="#181818" points="519,489.1875,529,493.1875,519,497.1875,523,493.1875" style="stroke:#181818;stroke-width:1.0;"/><line style="stroke:#181818;stroke-width:1.0;" x1="146" x2="525" y1="493.1875" y2="493.1875"/><text fill="#000000" font-family="sans-serif" font-size="13" lengthAdjust="spacing" textLength="81" x="153" y="488.1216">&#36827;&#20837;64&#20301;&#27169;&#24335;</text><polygon fill="#181818" points="519,518.3203,529,522.3203,519,526.3203,523,522.3203" style="stroke:#181818;stroke-width:1.0;"/><line style="stroke:#181818;stroke-width:1.0;" x1="146" x2="525" y1="522.3203" y2="522.3203"/><text fill="#000000" font-family="sans-serif" font-size="13" lengthAdjust="spacing" textLength="52" x="153" y="517.2544">&#24320;&#21551;&#20998;&#39029;</text><polygon fill="#181818" points="519,547.4531,529,551.4531,519,555.4531,523,551.4531" style="stroke:#181818;stroke-width:1.0;"/><line style="stroke:#181818;stroke-width:1.0;" x1="146" x2="525" y1="551.4531" y2="551.4531"/><text fill="#000000" font-family="sans-serif" font-size="13" lengthAdjust="spacing" textLength="91" x="153" y="546.3872">&#21021;&#22987;&#21270;&#20013;&#26029;&#31995;&#32479;</text><polygon fill="#181818" points="519,576.5859,529,580.5859,519,584.5859,523,580.5859" style="stroke:#181818;stroke-width:1.0;"/><line style="stroke:#181818;stroke-width:1.0;" x1="146" x2="525" y1="580.5859" y2="580.5859"/><text fill="#000000" font-family="sans-serif" font-size="13" lengthAdjust="spacing" textLength="106" x="153" y="575.52">&#21019;&#24314;GDT/IDT/TSS</text><polygon fill="#181818" points="519,605.7188,529,609.7188,519,613.7188,523,609.7188" style="stroke:#181818;stroke-width:1.0;"/><line style="stroke:#181818;stroke-width:1.0;" x1="146" x2="525" y1="609.7188" y2="609.7188"/><text fill="#000000" font-family="sans-serif" font-size="13" lengthAdjust="spacing" textLength="91" x="153" y="604.6528">&#20998;&#37197;&#19987;&#23646;&#23384;&#20648;&#21306;</text><rect fill="#EEEEEE" height="3" style="stroke:#EEEEEE;stroke-width:1.0;" width="1093.5" x="0" y="638.2852"/><line style="stroke:#000000;stroke-width:1.0;" x1="0" x2="1093.5" y1="638.2852" y2="638.2852"/><line style="stroke:#000000;stroke-width:1.0;" x1="0" x2="1093.5" y1="641.2852" y2="641.2852"/><rect fill="#EEEEEE" height="23.1328" style="stroke:#000000;stroke-width:2.0;" width="114" x="489.75" y="627.7188"/><text fill="#000000" font-family="sans-serif" font-size="13" font-weight="bold" lengthAdjust="spacing" textLength="95" x="495.75" y="643.7856">&#38454;&#27573;4: &#21796;&#37266;AP</text><polygon fill="#181818" points="293,677.9844,303,681.9844,293,685.9844,297,681.9844" style="stroke:#181818;stroke-width:1.0;"/><line style="stroke:#181818;stroke-width:1.0;" x1="146" x2="299" y1="681.9844" y2="681.9844"/><text fill="#000000" font-family="sans-serif" font-size="13" lengthAdjust="spacing" textLength="135" x="153" y="676.9185">&#21457;&#36865;IPI&#20013;&#26029;&#21796;&#37266;&#25152;&#26377;AP</text><polygon fill="#181818" points="622,707.1172,632,711.1172,622,715.1172,626,711.1172" style="stroke:#181818;stroke-width:1.0;"/><line style="stroke:#181818;stroke-width:1.0;" x1="305" x2="628" y1="711.1172" y2="711.1172"/><text fill="#000000" font-family="sans-serif" font-size="13" lengthAdjust="spacing" textLength="108" x="312" y="706.0513">&#25191;&#34892;AP&#21021;&#22987;&#21270;&#20195;&#30721;</text><line style="stroke:#181818;stroke-width:1.0;" x1="634" x2="676" y1="740.25" y2="740.25"/><line style="stroke:#181818;stroke-width:1.0;" x1="676" x2="676" y1="740.25" y2="753.25"/><line style="stroke:#181818;stroke-width:1.0;" x1="635" x2="676" y1="753.25" y2="753.25"/><polygon fill="#181818" points="645,749.25,635,753.25,645,757.25,641,753.25" style="stroke:#181818;stroke-width:1.0;"/><text fill="#000000" font-family="sans-serif" font-size="13" lengthAdjust="spacing" textLength="81" x="641" y="735.1841">&#36827;&#20837;64&#20301;&#27169;&#24335;</text><line style="stroke:#181818;stroke-width:1.0;" x1="634" x2="676" y1="782.3828" y2="782.3828"/><line style="stroke:#181818;stroke-width:1.0;" x1="676" x2="676" y1="782.3828" y2="795.3828"/><line style="stroke:#181818;stroke-width:1.0;" x1="635" x2="676" y1="795.3828" y2="795.3828"/><polygon fill="#181818" points="645,791.3828,635,795.3828,645,799.3828,641,795.3828" style="stroke:#181818;stroke-width:1.0;"/><text fill="#000000" font-family="sans-serif" font-size="13" lengthAdjust="spacing" textLength="52" x="641" y="777.3169">&#24320;&#21551;&#20998;&#39029;</text><line style="stroke:#181818;stroke-width:1.0;" x1="634" x2="676" y1="824.5156" y2="824.5156"/><line style="stroke:#181818;stroke-width:1.0;" x1="676" x2="676" y1="824.5156" y2="837.5156"/><line style="stroke:#181818;stroke-width:1.0;" x1="635" x2="676" y1="837.5156" y2="837.5156"/><polygon fill="#181818" points="645,833.5156,635,837.5156,645,841.5156,641,837.5156" style="stroke:#181818;stroke-width:1.0;"/><text fill="#000000" font-family="sans-serif" font-size="13" lengthAdjust="spacing" textLength="93" x="641" y="819.4497">&#21152;&#36733;GDTR/IDTR</text><line style="stroke:#181818;stroke-width:1.0;" x1="634" x2="676" y1="866.6484" y2="866.6484"/><line style="stroke:#181818;stroke-width:1.0;" x1="676" x2="676" y1="866.6484" y2="879.6484"/><line style="stroke:#181818;stroke-width:1.0;" x1="635" x2="676" y1="879.6484" y2="879.6484"/><polygon fill="#181818" points="645,875.6484,635,879.6484,645,883.6484,641,879.6484" style="stroke:#181818;stroke-width:1.0;"/><text fill="#000000" font-family="sans-serif" font-size="13" lengthAdjust="spacing" textLength="92" x="641" y="861.5825">&#21019;&#24314;TSS&#21152;&#36733;TR</text><line style="stroke:#181818;stroke-width:1.0;" x1="634" x2="676" y1="908.7813" y2="908.7813"/><line style="stroke:#181818;stroke-width:1.0;" x1="676" x2="676" y1="908.7813" y2="921.7813"/><line style="stroke:#181818;stroke-width:1.0;" x1="635" x2="676" y1="921.7813" y2="921.7813"/><polygon fill="#181818" points="645,917.7813,635,921.7813,645,925.7813,641,921.7813" style="stroke:#181818;stroke-width:1.0;"/><text fill="#000000" font-family="sans-serif" font-size="13" lengthAdjust="spacing" textLength="91" x="641" y="903.7153">&#20998;&#37197;&#19987;&#23646;&#23384;&#20648;&#21306;</text><polygon fill="#181818" points="316,946.9141,306,950.9141,316,954.9141,312,950.9141" style="stroke:#181818;stroke-width:1.0;"/><line style="stroke:#181818;stroke-width:1.0;" x1="310" x2="633" y1="950.9141" y2="950.9141"/><text fill="#000000" font-family="sans-serif" font-size="13" lengthAdjust="spacing" textLength="78" x="322" y="945.8481">&#25191;&#34892;&#20572;&#26426;&#25351;&#20196;</text><path d="M247,963.9141 L247,1003.9141 L363,1003.9141 L363,973.9141 L353,963.9141 L247,963.9141 " fill="#FEFFDD" style="stroke:#181818;stroke-width:0.5;"/><path d="M353,963.9141 L353,973.9141 L363,973.9141 L353,963.9141 " fill="#FEFFDD" style="stroke:#181818;stroke-width:0.5;"/><text fill="#000000" font-family="sans-serif" font-size="13" lengthAdjust="spacing" textLength="95" x="253" y="980.981">AP&#36827;&#20837;&#20572;&#26426;&#29366;&#24577;</text><text fill="#000000" font-family="sans-serif" font-size="13" lengthAdjust="spacing" textLength="78" x="253" y="996.1138">&#31561;&#24453;&#20013;&#26029;&#21796;&#37266;</text><rect fill="#EEEEEE" height="3" style="stroke:#EEEEEE;stroke-width:1.0;" width="1093.5" x="0" y="1029.7461"/><line style="stroke:#000000;stroke-width:1.0;" x1="0" x2="1093.5" y1="1029.7461" y2="1029.7461"/><line style="stroke:#000000;stroke-width:1.0;" x1="0" x2="1093.5" y1="1032.7461" y2="1032.7461"/><rect fill="#EEEEEE" height="23.1328" style="stroke:#000000;stroke-width:2.0;" width="150" x="471.75" y="1019.1797"/><text fill="#000000" font-family="sans-serif" font-size="13" font-weight="bold" lengthAdjust="spacing" textLength="131" x="477.75" y="1035.2466">&#38454;&#27573;5: &#20219;&#21153;&#31995;&#32479;&#21551;&#21160;</text><polygon fill="#181818" points="816,1069.4453,826,1073.4453,816,1077.4453,820,1073.4453" style="stroke:#181818;stroke-width:1.0;"/><line style="stroke:#181818;stroke-width:1.0;" x1="146" x2="822" y1="1073.4453" y2="1073.4453"/><text fill="#000000" font-family="sans-serif" font-size="13" lengthAdjust="spacing" textLength="78" x="153" y="1068.3794">&#21019;&#24314;&#22806;&#22771;&#20219;&#21153;</text><polygon fill="#181818" points="1062,1098.5781,1072,1102.5781,1062,1106.5781,1066,1102.5781" style="stroke:#181818;stroke-width:1.0;"/><line style="stroke:#181818;stroke-width:1.0;" x1="146" x2="1068" y1="1102.5781" y2="1102.5781"/><text fill="#000000" font-family="sans-serif" font-size="13" lengthAdjust="spacing" textLength="130" x="153" y="1097.5122">&#24191;&#25773;&#12300;&#20219;&#21153;&#35748;&#39046;&#20013;&#26029;&#12301;</text><path d="M65,1117.5781 L194,1117.5781 L194,1124.7109 L184,1134.7109 L65,1134.7109 L65,1117.5781 " fill="#EEEEEE" style="stroke:#000000;stroke-width:1.5;"/><rect fill="none" height="237.8672" style="stroke:#000000;stroke-width:1.5;" width="738" x="65" y="1117.5781"/><text fill="#000000" font-family="sans-serif" font-size="13" font-weight="bold" lengthAdjust="spacing" textLength="84" x="80" y="1130.645">&#20219;&#21153;&#31454;&#20105;&#38454;&#27573;</text><polygon fill="#181818" points="729,1151.8438,739,1155.8438,729,1159.8438,733,1155.8438" style="stroke:#181818;stroke-width:1.0;"/><line style="stroke:#181818;stroke-width:1.0;" x1="146" x2="735" y1="1155.8438" y2="1155.8438"/><text fill="#000000" font-family="sans-serif" font-size="13" lengthAdjust="spacing" textLength="78" x="153" y="1150.7778">&#23547;&#25214;&#23601;&#32490;&#20219;&#21153;</text><polygon fill="#181818" points="729,1180.9766,739,1184.9766,729,1188.9766,733,1184.9766" style="stroke:#181818;stroke-width:1.0;"/><line style="stroke:#181818;stroke-width:1.0;" x1="305" x2="735" y1="1184.9766" y2="1184.9766"/><text fill="#000000" font-family="sans-serif" font-size="13" lengthAdjust="spacing" textLength="78" x="312" y="1179.9106">&#23547;&#25214;&#23601;&#32490;&#20219;&#21153;</text><path d="M75,1199.9766 L139,1199.9766 L139,1207.1094 L129,1217.1094 L75,1217.1094 L75,1199.9766 " fill="#EEEEEE" style="stroke:#000000;stroke-width:1.5;"/><rect fill="none" height="148.4688" style="stroke:#000000;stroke-width:1.5;" width="718" x="75" y="1199.9766"/><text fill="#000000" font-family="sans-serif" font-size="13" font-weight="bold" lengthAdjust="spacing" textLength="19" x="90" y="1213.0435">alt</text><text fill="#000000" font-family="sans-serif" font-size="11" font-weight="bold" lengthAdjust="spacing" textLength="101" x="154" y="1212.187">[BSP&#25250;&#21040;&#22806;&#22771;&#20219;&#21153;]</text><polygon fill="#181818" points="157,1234.2422,147,1238.2422,157,1242.2422,153,1238.2422" style="stroke:#181818;stroke-width:1.0;"/><line style="stroke:#181818;stroke-width:1.0;" x1="151" x2="740" y1="1238.2422" y2="1238.2422"/><text fill="#000000" font-family="sans-serif" font-size="13" lengthAdjust="spacing" textLength="78" x="163" y="1233.1763">&#25191;&#34892;&#22806;&#22771;&#20219;&#21153;</text><polygon fill="#181818" points="519,1263.375,529,1267.375,519,1271.375,523,1267.375" style="stroke:#181818;stroke-width:1.0;"/><line style="stroke:#181818;stroke-width:1.0;" x1="146" x2="525" y1="1267.375" y2="1267.375"/><text fill="#000000" font-family="sans-serif" font-size="13" lengthAdjust="spacing" textLength="130" x="153" y="1262.3091">&#20013;&#26029;&#36820;&#22238;&#21518;&#32487;&#32493;&#21021;&#22987;&#21270;</text><polygon fill="#181818" points="157,1292.5078,147,1296.5078,157,1300.5078,153,1296.5078" style="stroke:#181818;stroke-width:1.0;"/><line style="stroke:#181818;stroke-width:1.0;" x1="151" x2="530" y1="1296.5078" y2="1296.5078"/><text fill="#000000" font-family="sans-serif" font-size="13" lengthAdjust="spacing" textLength="78" x="163" y="1291.4419">&#25191;&#34892;&#20572;&#26426;&#25351;&#20196;</text><line style="stroke:#000000;stroke-width:1.0;stroke-dasharray:2.0,2.0;" x1="75" x2="793" y1="1305.5078" y2="1305.5078"/><text fill="#000000" font-family="sans-serif" font-size="11" font-weight="bold" lengthAdjust="spacing" textLength="92" x="80" y="1315.7183">[AP&#25250;&#21040;&#22806;&#22771;&#20219;&#21153;]</text><polygon fill="#181818" points="316,1336.4453,306,1340.4453,316,1344.4453,312,1340.4453" style="stroke:#181818;stroke-width:1.0;"/><line style="stroke:#181818;stroke-width:1.0;" x1="310" x2="740" y1="1340.4453" y2="1340.4453"/><text fill="#000000" font-family="sans-serif" font-size="13" lengthAdjust="spacing" textLength="78" x="322" y="1335.3794">&#25191;&#34892;&#22806;&#22771;&#20219;&#21153;</text><path d="M70,1367.4453 L70,1407.4453 L221,1407.4453 L221,1377.4453 L211,1367.4453 L70,1367.4453 " fill="#FEFFDD" style="stroke:#181818;stroke-width:0.5;"/><path d="M211,1367.4453 L211,1377.4453 L221,1377.4453 L211,1367.4453 " fill="#FEFFDD" style="stroke:#181818;stroke-width:0.5;"/><text fill="#000000" font-family="sans-serif" font-size="13" lengthAdjust="spacing" textLength="130" x="76" y="1384.5122">BSP&#23436;&#25104;&#21021;&#22987;&#21270;&#21518;&#20572;&#26426;</text><text fill="#000000" font-family="sans-serif" font-size="13" lengthAdjust="spacing" textLength="82" x="76" y="1399.645">&#29366;&#24577;&#19982;AP&#30456;&#21516;</text><rect fill="#EEEEEE" height="3" style="stroke:#EEEEEE;stroke-width:1.0;" width="1093.5" x="0" y="1433.2773"/><line style="stroke:#000000;stroke-width:1.0;" x1="0" x2="1093.5" y1="1433.2773" y2="1433.2773"/><line style="stroke:#000000;stroke-width:1.0;" x1="0" x2="1093.5" y1="1436.2773" y2="1436.2773"/><rect fill="#EEEEEE" height="23.1328" style="stroke:#000000;stroke-width:2.0;" width="150" x="471.75" y="1422.7109"/><text fill="#000000" font-family="sans-serif" font-size="13" font-weight="bold" lengthAdjust="spacing" textLength="131" x="477.75" y="1438.7778">&#38454;&#27573;6: &#20219;&#21153;&#35843;&#24230;&#36816;&#34892;</text><path d="M75,1462.8438 L152,1462.8438 L152,1469.9766 L142,1479.9766 L75,1479.9766 L75,1462.8438 " fill="#EEEEEE" style="stroke:#000000;stroke-width:1.5;"/><rect fill="none" height="525.125" style="stroke:#000000;stroke-width:1.5;" width="1004" x="75" y="1462.8438"/><text fill="#000000" font-family="sans-serif" font-size="13" font-weight="bold" lengthAdjust="spacing" textLength="32" x="90" y="1475.9106">loop</text><text fill="#000000" font-family="sans-serif" font-size="11" font-weight="bold" lengthAdjust="spacing" textLength="120" x="167" y="1475.0542">[&#25345;&#32493;&#30340;&#20219;&#21153;&#21019;&#24314;&#21644;&#35843;&#24230;]</text><polygon fill="#181818" points="905,1497.1094,915,1501.1094,905,1505.1094,909,1501.1094" style="stroke:#181818;stroke-width:1.0;"/><line style="stroke:#181818;stroke-width:1.0;" x1="828" x2="911" y1="1501.1094" y2="1501.1094"/><text fill="#000000" font-family="sans-serif" font-size="13" lengthAdjust="spacing" textLength="65" x="835" y="1496.0435">&#21019;&#24314;&#26032;&#20219;&#21153;</text><line style="stroke:#181818;stroke-width:1.0;" x1="917" x2="959" y1="1530.2422" y2="1530.2422"/><line style="stroke:#181818;stroke-width:1.0;" x1="959" x2="959" y1="1530.2422" y2="1543.2422"/><line style="stroke:#181818;stroke-width:1.0;" x1="918" x2="959" y1="1543.2422" y2="1543.2422"/><polygon fill="#181818" points="928,1539.2422,918,1543.2422,928,1547.2422,924,1543.2422" style="stroke:#181818;stroke-width:1.0;"/><text fill="#000000" font-family="sans-serif" font-size="13" lengthAdjust="spacing" textLength="143" x="924" y="1525.1763">&#27599;&#20010;&#20219;&#21153;&#21487;&#21019;&#24314;&#20854;&#20182;&#20219;&#21153;</text><polygon fill="#181818" points="157,1568.375,147,1572.375,157,1576.375,153,1572.375" style="stroke:#181818;stroke-width:1.0;"/><line style="stroke:#181818;stroke-width:1.0;" x1="151" x2="916" y1="1572.375" y2="1572.375"/><text fill="#000000" font-family="sans-serif" font-size="13" lengthAdjust="spacing" textLength="117" x="163" y="1567.3091">&#24191;&#25773;&#26032;&#20219;&#21153;&#35748;&#39046;&#20013;&#26029;</text><polygon fill="#181818" points="316,1597.5078,306,1601.5078,316,1605.5078,312,1601.5078" style="stroke:#181818;stroke-width:1.0;"/><line style="stroke:#181818;stroke-width:1.0;" x1="310" x2="916" y1="1601.5078" y2="1601.5078"/><text fill="#000000" font-family="sans-serif" font-size="13" lengthAdjust="spacing" textLength="117" x="322" y="1596.4419">&#24191;&#25773;&#26032;&#20219;&#21153;&#35748;&#39046;&#20013;&#26029;</text><polygon fill="#181818" points="729,1626.6406,739,1630.6406,729,1634.6406,733,1630.6406" style="stroke:#181818;stroke-width:1.0;"/><line style="stroke:#181818;stroke-width:1.0;" x1="146" x2="735" y1="1630.6406" y2="1630.6406"/><text fill="#000000" font-family="sans-serif" font-size="13" lengthAdjust="spacing" textLength="117" x="153" y="1625.5747">&#22788;&#29702;&#22120;&#23547;&#25214;&#23601;&#32490;&#20219;&#21153;</text><polygon fill="#181818" points="729,1655.7734,739,1659.7734,729,1663.7734,733,1659.7734" style="stroke:#181818;stroke-width:1.0;"/><line style="stroke:#181818;stroke-width:1.0;" x1="305" x2="735" y1="1659.7734" y2="1659.7734"/><text fill="#000000" font-family="sans-serif" font-size="13" lengthAdjust="spacing" textLength="117" x="312" y="1654.7075">&#22788;&#29702;&#22120;&#23547;&#25214;&#23601;&#32490;&#20219;&#21153;</text><polygon fill="#181818" points="157,1684.9063,147,1688.9063,157,1692.9063,153,1688.9063" style="stroke:#181818;stroke-width:1.0;"/><line style="stroke:#181818;stroke-width:1.0;" x1="151" x2="740" y1="1688.9063" y2="1688.9063"/><text fill="#000000" font-family="sans-serif" font-size="13" lengthAdjust="spacing" textLength="91" x="163" y="1683.8403">&#20998;&#37197;&#24182;&#25191;&#34892;&#20219;&#21153;</text><polygon fill="#181818" points="316,1714.0391,306,1718.0391,316,1722.0391,312,1718.0391" style="stroke:#181818;stroke-width:1.0;"/><line style="stroke:#181818;stroke-width:1.0;" x1="310" x2="740" y1="1718.0391" y2="1718.0391"/><text fill="#000000" font-family="sans-serif" font-size="13" lengthAdjust="spacing" textLength="91" x="322" y="1712.9731">&#20998;&#37197;&#24182;&#25191;&#34892;&#20219;&#21153;</text><path d="M162,1731.0391 L162,1756.0391 L447,1756.0391 L447,1741.0391 L437,1731.0391 L162,1731.0391 " fill="#FEFFDD" style="stroke:#181818;stroke-width:0.5;"/><path d="M437,1731.0391 L437,1741.0391 L447,1741.0391 L437,1731.0391 " fill="#FEFFDD" style="stroke:#181818;stroke-width:0.5;"/><text fill="#000000" font-family="sans-serif" font-size="13" lengthAdjust="spacing" textLength="264" x="168" y="1748.106">&#27599;&#20010;&#22788;&#29702;&#22120;&#25191;&#34892;&#20219;&#21153;&#26102;&#65292;AP&#21644;BSP&#34920;&#29616;&#19968;&#33268;&#65306;</text><line style="stroke:#181818;stroke-width:1.0;" x1="146" x2="188" y1="1782.3047" y2="1782.3047"/><line style="stroke:#181818;stroke-width:1.0;" x1="188" x2="188" y1="1782.3047" y2="1795.3047"/><line style="stroke:#181818;stroke-width:1.0;" x1="147" x2="188" y1="1795.3047" y2="1795.3047"/><polygon fill="#181818" points="157,1791.3047,147,1795.3047,157,1799.3047,153,1795.3047" style="stroke:#181818;stroke-width:1.0;"/><text fill="#000000" font-family="sans-serif" font-size="13" lengthAdjust="spacing" textLength="94" x="153" y="1777.2388">&#35774;&#32622;APIC&#23450;&#26102;&#22120;</text><line style="stroke:#181818;stroke-width:1.0;" x1="146" x2="188" y1="1824.4375" y2="1824.4375"/><line style="stroke:#181818;stroke-width:1.0;" x1="188" x2="188" y1="1824.4375" y2="1837.4375"/><line style="stroke:#181818;stroke-width:1.0;" x1="147" x2="188" y1="1837.4375" y2="1837.4375"/><polygon fill="#181818" points="157,1833.4375,147,1837.4375,157,1841.4375,153,1837.4375" style="stroke:#181818;stroke-width:1.0;"/><text fill="#000000" font-family="sans-serif" font-size="13" lengthAdjust="spacing" textLength="91" x="153" y="1819.3716">&#26102;&#38388;&#29255;&#21040;&#26399;&#20013;&#26029;</text><polygon fill="#181818" points="729,1862.5703,739,1866.5703,729,1870.5703,733,1866.5703" style="stroke:#181818;stroke-width:1.0;"/><line style="stroke:#181818;stroke-width:1.0;" x1="146" x2="735" y1="1866.5703" y2="1866.5703"/><text fill="#000000" font-family="sans-serif" font-size="13" lengthAdjust="spacing" textLength="91" x="153" y="1861.5044">&#20219;&#21153;&#20999;&#25442;&#21644;&#36718;&#36716;</text><line style="stroke:#181818;stroke-width:1.0;" x1="305" x2="347" y1="1895.7031" y2="1895.7031"/><line style="stroke:#181818;stroke-width:1.0;" x1="347" x2="347" y1="1895.7031" y2="1908.7031"/><line style="stroke:#181818;stroke-width:1.0;" x1="306" x2="347" y1="1908.7031" y2="1908.7031"/><polygon fill="#181818" points="316,1904.7031,306,1908.7031,316,1912.7031,312,1908.7031" style="stroke:#181818;stroke-width:1.0;"/><text fill="#000000" font-family="sans-serif" font-size="13" lengthAdjust="spacing" textLength="94" x="312" y="1890.6372">&#35774;&#32622;APIC&#23450;&#26102;&#22120;</text><line style="stroke:#181818;stroke-width:1.0;" x1="305" x2="347" y1="1937.8359" y2="1937.8359"/><line style="stroke:#181818;stroke-width:1.0;" x1="347" x2="347" y1="1937.8359" y2="1950.8359"/><line style="stroke:#181818;stroke-width:1.0;" x1="306" x2="347" y1="1950.8359" y2="1950.8359"/><polygon fill="#181818" points="316,1946.8359,306,1950.8359,316,1954.8359,312,1950.8359" style="stroke:#181818;stroke-width:1.0;"/><text fill="#000000" font-family="sans-serif" font-size="13" lengthAdjust="spacing" textLength="91" x="312" y="1932.77">&#26102;&#38388;&#29255;&#21040;&#26399;&#20013;&#26029;</text><polygon fill="#181818" points="729,1975.9688,739,1979.9688,729,1983.9688,733,1979.9688" style="stroke:#181818;stroke-width:1.0;"/><line style="stroke:#181818;stroke-width:1.0;" x1="305" x2="735" y1="1979.9688" y2="1979.9688"/><text fill="#000000" font-family="sans-serif" font-size="13" lengthAdjust="spacing" textLength="91" x="312" y="1974.9028">&#20219;&#21153;&#20999;&#25442;&#21644;&#36718;&#36716;</text></g></svg>