<?xml version="1.0" encoding="us-ascii" standalone="no"?><svg xmlns="http://www.w3.org/2000/svg" xmlns:xlink="http://www.w3.org/1999/xlink" contentStyleType="text/css" height="1135px" preserveAspectRatio="none" style="width:567px;height:1135px;background:#FFFFFF;" version="1.1" viewBox="0 0 567 1135" width="567px" zoomAndPan="magnify"><defs/><g><text fill="#000000" font-family="sans-serif" font-size="14" font-weight="bold" lengthAdjust="spacing" textLength="321" x="121.625" y="32.9951">AP (Application Processor) &#21021;&#22987;&#21270;&#27969;&#31243;&#31616;&#22270;</text><ellipse cx="235.25" cy="57.2969" fill="#222222" rx="10" ry="10" style="stroke:#222222;stroke-width:1.0;"/><path d="M326.25,91.7148 L326.25,100.2813 L306.25,104.2813 L326.25,108.2813 L326.25,116.8477 A0,0 0 0 0 326.25,116.8477 L542.25,116.8477 A0,0 0 0 0 542.25,116.8477 L542.25,101.7148 L532.25,91.7148 L326.25,91.7148 A0,0 0 0 0 326.25,91.7148 " fill="#FEFFDD" style="stroke:#181818;stroke-width:0.5;"/><path d="M532.25,91.7148 L532.25,101.7148 L542.25,101.7148 L532.25,91.7148 " fill="#FEFFDD" style="stroke:#181818;stroke-width:0.5;"/><text fill="#000000" font-family="sans-serif" font-size="13" lengthAdjust="spacing" textLength="195" x="332.25" y="108.7817">&#21516;&#26102;&#24320;&#22987;&#25191;&#34892;&#20302;&#31471;&#20869;&#23384;&#30340;&#21551;&#21160;&#20195;&#30721;</text><rect fill="#F1F1F1" height="33.9688" rx="12.5" ry="12.5" style="stroke:#181818;stroke-width:0.5;" width="142" x="164.25" y="87.2969"/><text fill="#000000" font-family="sans-serif" font-size="12" lengthAdjust="spacing" textLength="122" x="174.25" y="108.4355">&#25152;&#26377;AP&#34987;SIPI&#28040;&#24687;&#21796;&#37266;</text><rect fill="none" height="206.1333" style="stroke:#000000;stroke-width:1.5;" width="407" x="11" y="131.2656"/><path d="M360,131.2656 L360,140.5625 L350,150.5625 L11,150.5625 " fill="none" style="stroke:#000000;stroke-width:1.5;"/><text fill="#000000" font-family="sans-serif" font-size="14" lengthAdjust="spacing" textLength="339" x="14" y="145.2607">&#31532;&#19968;&#38454;&#27573;&#65306;&#20302;&#31471;&#20869;&#23384;&#24341;&#23548; [&#23454;&#27169;&#24335; -&gt; IA-32e &#20860;&#23481;&#27169;&#24335;]</text><polygon fill="#F1F1F1" points="193.75,167.5625,276.75,167.5625,288.75,179.5625,276.75,191.5625,193.75,191.5625,181.75,179.5625,193.75,167.5625" style="stroke:#181818;stroke-width:0.5;"/><text fill="#000000" font-family="sans-serif" font-size="11" lengthAdjust="spacing" textLength="83" x="193.75" y="183.3706">&#33719;&#21462;&#33258;&#26059;&#38145;&#25104;&#21151;?</text><text fill="#000000" font-family="sans-serif" font-size="11" lengthAdjust="spacing" textLength="11" x="170.75" y="176.9683">&#26159;</text><text fill="#000000" font-family="sans-serif" font-size="11" lengthAdjust="spacing" textLength="11" x="288.75" y="176.9683">&#21542;</text><rect fill="#F1F1F1" height="33.9688" rx="12.5" ry="12.5" style="stroke:#181818;stroke-width:0.5;" width="161" x="56" y="201.5625"/><text fill="#000000" font-family="sans-serif" font-size="12" lengthAdjust="spacing" textLength="141" x="66" y="222.7012">&#21152;&#36733;GDTR&#65292;&#36827;&#20837;&#20445;&#25252;&#27169;&#24335;</text><rect fill="#F1F1F1" height="33.9688" rx="12.5" ry="12.5" style="stroke:#181818;stroke-width:0.5;" width="227" x="23" y="255.5313"/><text fill="#000000" font-family="sans-serif" font-size="12" lengthAdjust="spacing" textLength="207" x="33" y="276.6699">&#35774;&#32622;CR3&#65292;&#24320;&#21551;&#20998;&#39029;&#65292;&#36827;&#20837;IA-32e&#27169;&#24335;</text><rect fill="#F1F1F1" height="33.9688" rx="12.5" ry="12.5" style="stroke:#181818;stroke-width:0.5;" width="128" x="270" y="201.5625"/><text fill="#000000" font-family="sans-serif" font-size="12" lengthAdjust="spacing" textLength="108" x="280" y="222.7012">&#22312;&#33258;&#26059;&#38145;&#19978;&#24490;&#29615;&#31561;&#24453;</text><polygon fill="#F1F1F1" points="235.25,301.3989,247.25,313.3989,235.25,325.3989,223.25,313.3989,235.25,301.3989" style="stroke:#181818;stroke-width:0.5;"/><text fill="#000000" font-family="sans-serif" font-size="11" lengthAdjust="spacing" textLength="44" x="179.25" y="310.8047">&#20934;&#22791;&#36339;&#36716;</text><text fill="#000000" font-family="sans-serif" font-size="11" lengthAdjust="spacing" textLength="22" x="247.25" y="310.8047">&#31561;&#24453;</text><rect fill="none" height="153.8125" style="stroke:#000000;stroke-width:1.5;" width="431" x="125.25" y="347.3989"/><path d="M373.25,347.3989 L373.25,356.6958 L363.25,366.6958 L125.25,366.6958 " fill="none" style="stroke:#000000;stroke-width:1.5;"/><text fill="#000000" font-family="sans-serif" font-size="14" lengthAdjust="spacing" textLength="238" x="128.25" y="361.394">&#31532;&#20108;&#38454;&#27573;&#65306;&#27169;&#24335;&#19982;&#31354;&#38388;&#20999;&#25442; [&#20851;&#38190;&#36339;&#36716;]</text><path d="M327.25,383.5474 L327.25,399.6802 L307.25,403.6802 L327.25,407.6802 L327.25,423.813 A0,0 0 0 0 327.25,423.813 L465.25,423.813 A0,0 0 0 0 465.25,423.813 L465.25,393.5474 L455.25,383.5474 L327.25,383.5474 A0,0 0 0 0 327.25,383.5474 " fill="#FEFFDD" style="stroke:#181818;stroke-width:0.5;"/><path d="M455.25,383.5474 L455.25,393.5474 L465.25,393.5474 L455.25,383.5474 " fill="#FEFFDD" style="stroke:#181818;stroke-width:0.5;"/><text fill="#000000" font-family="sans-serif" font-size="13" lengthAdjust="spacing" textLength="26" x="333.25" y="400.6143">&#36827;&#20837;</text><text fill="#000000" font-family="sans-serif" font-size="13" font-weight="bold" lengthAdjust="spacing" textLength="60" x="359.25" y="400.6143">64&#20301;&#27169;&#24335;</text><text fill="#000000" font-family="sans-serif" font-size="13" lengthAdjust="spacing" textLength="117" x="333.25" y="415.7471">&#20294;&#20195;&#30721;&#20173;&#22312;&#20302;&#31471;&#20869;&#23384;</text><rect fill="#F1F1F1" height="33.9688" rx="12.5" ry="12.5" style="stroke:#181818;stroke-width:0.5;" width="144" x="163.25" y="386.6958"/><text fill="#000000" font-family="sans-serif" font-size="12" lengthAdjust="spacing" textLength="124" x="173.25" y="407.8345">&#31532;&#19968;&#27493;&#65306;&#36828;&#36339;&#36716;&#21047;&#26032;CS</text><path d="M355.25,433.813 L355.25,457.5122 L335.25,461.5122 L355.25,465.5122 L355.25,489.2114 A0,0 0 0 0 355.25,489.2114 L546.25,489.2114 A0,0 0 0 0 546.25,489.2114 L546.25,443.813 L536.25,433.813 L355.25,433.813 A0,0 0 0 0 355.25,433.813 " fill="#FEFFDD" style="stroke:#181818;stroke-width:0.5;"/><path d="M536.25,433.813 L536.25,443.813 L546.25,443.813 L536.25,433.813 " fill="#FEFFDD" style="stroke:#181818;stroke-width:0.5;"/><text fill="#000000" font-family="sans-serif" font-size="13" lengthAdjust="spacing" textLength="170" x="361.25" y="450.8799">&#30446;&#26631;: UPPER_CORE_LINEAR</text><text fill="#000000" font-family="sans-serif" font-size="13" lengthAdjust="spacing" textLength="126" x="361.25" y="466.0127">+ ap_to_core_entry</text><text fill="#000000" font-family="sans-serif" font-size="13" font-weight="bold" lengthAdjust="spacing" textLength="112" x="361.25" y="481.1455">&#27491;&#24335;&#36827;&#20837;&#20869;&#26680;&#31354;&#38388;</text><rect fill="#F1F1F1" height="33.9688" rx="12.5" ry="12.5" style="stroke:#181818;stroke-width:0.5;" width="200" x="135.25" y="444.5278"/><text fill="#000000" font-family="sans-serif" font-size="12" lengthAdjust="spacing" textLength="180" x="145.25" y="465.6665">&#31532;&#20108;&#27493;&#65306;&#38388;&#25509;&#36339;&#36716;&#33267;&#20869;&#26680;&#39640;&#31471;&#22320;&#22336;</text><rect fill="none" height="571.1328" style="stroke:#000000;stroke-width:1.5;" width="332" x="133.25" y="511.2114"/><path d="M325.25,511.2114 L325.25,520.5083 L315.25,530.5083 L133.25,530.5083 " fill="none" style="stroke:#000000;stroke-width:1.5;"/><text fill="#000000" font-family="sans-serif" font-size="14" lengthAdjust="spacing" textLength="182" x="136.25" y="525.2065">&#31532;&#19977;&#38454;&#27573;&#65306;&#20869;&#26680;&#20013;&#30340;&#26368;&#32456;&#35774;&#32622;</text><rect fill="#F1F1F1" height="33.9688" rx="12.5" ry="12.5" style="stroke:#181818;stroke-width:0.5;" width="168" x="151.25" y="547.5083"/><text fill="#000000" font-family="sans-serif" font-size="12" lengthAdjust="spacing" textLength="148" x="161.25" y="568.647">&#29992;&#39640;&#31471;&#22320;&#22336;&#37325;&#36733;GDTR/IDTR</text><rect fill="#F1F1F1" height="33.9688" rx="12.5" ry="12.5" style="stroke:#181818;stroke-width:0.5;" width="132" x="169.25" y="601.4771"/><text fill="#000000" font-family="sans-serif" font-size="12" lengthAdjust="spacing" textLength="112" x="179.25" y="622.6157">&#20026;&#24403;&#21069;AP&#20998;&#37197;&#19987;&#23646;&#26632;</text><rect fill="#F1F1F1" height="33.9688" rx="12.5" ry="12.5" style="stroke:#181818;stroke-width:0.5;" width="176" x="147.25" y="655.4458"/><text fill="#000000" font-family="sans-serif" font-size="12" lengthAdjust="spacing" textLength="156" x="157.25" y="676.5845">&#21019;&#24314;TSS&#24182;&#23433;&#35013;&#25551;&#36848;&#31526;&#21040;GDT</text><rect fill="#F1F1F1" height="33.9688" rx="12.5" ry="12.5" style="stroke:#181818;stroke-width:0.5;" width="95" x="187.75" y="709.4146"/><text fill="#000000" font-family="sans-serif" font-size="12" lengthAdjust="spacing" textLength="75" x="197.75" y="730.5532">&#21152;&#36733;TR&#23492;&#23384;&#22120;</text><rect fill="#F1F1F1" height="33.9688" rx="12.5" ry="12.5" style="stroke:#181818;stroke-width:0.5;" width="184" x="143.25" y="763.3833"/><text fill="#000000" font-family="sans-serif" font-size="12" lengthAdjust="spacing" textLength="164" x="153.25" y="784.522">&#35774;&#32622;IA32_KERNEL_GS_BASE</text><rect fill="#F1F1F1" height="33.9688" rx="12.5" ry="12.5" style="stroke:#181818;stroke-width:0.5;" width="162" x="154.25" y="817.3521"/><text fill="#000000" font-family="sans-serif" font-size="12" lengthAdjust="spacing" textLength="142" x="164.25" y="838.4907">&#20174;ack_cpus&#33719;&#21462;&#22788;&#29702;&#22120;ID</text><rect fill="#F1F1F1" height="33.9688" rx="12.5" ry="12.5" style="stroke:#181818;stroke-width:0.5;" width="104" x="183.25" y="871.3208"/><text fill="#000000" font-family="sans-serif" font-size="12" lengthAdjust="spacing" textLength="84" x="193.25" y="892.4595">&#37322;&#25918;&#21551;&#21160;&#33258;&#26059;&#38145;</text><rect fill="#F1F1F1" height="33.9688" rx="12.5" ry="12.5" style="stroke:#181818;stroke-width:0.5;" width="131" x="169.75" y="925.2896"/><text fill="#000000" font-family="sans-serif" font-size="12" lengthAdjust="spacing" textLength="111" x="179.75" y="946.4282">&#36719;&#20214;&#24320;&#21551;Local APIC</text><rect fill="#F1F1F1" height="33.9688" rx="12.5" ry="12.5" style="stroke:#181818;stroke-width:0.5;" width="68" x="201.25" y="979.2583"/><text fill="#000000" font-family="sans-serif" font-size="12" lengthAdjust="spacing" textLength="48" x="211.25" y="1000.397">&#24320;&#25918;&#20013;&#26029;</text><path d="M330.25,1030.0786 L330.25,1046.2114 L310.25,1050.2114 L330.25,1054.2114 L330.25,1070.3442 A0,0 0 0 0 330.25,1070.3442 L455.25,1070.3442 A0,0 0 0 0 455.25,1070.3442 L455.25,1040.0786 L445.25,1030.0786 L330.25,1030.0786 A0,0 0 0 0 330.25,1030.0786 " fill="#FEFFDD" style="stroke:#181818;stroke-width:0.5;"/><path d="M445.25,1030.0786 L445.25,1040.0786 L455.25,1040.0786 L445.25,1030.0786 " fill="#FEFFDD" style="stroke:#181818;stroke-width:0.5;"/><text fill="#000000" font-family="sans-serif" font-size="13" lengthAdjust="spacing" textLength="65" x="336.25" y="1047.1455">&#21021;&#22987;&#21270;&#23436;&#25104;</text><text fill="#000000" font-family="sans-serif" font-size="13" lengthAdjust="spacing" textLength="104" x="336.25" y="1062.2783">&#36827;&#20837;&#20241;&#30496;&#24453;&#21629;&#29366;&#24577;</text><rect fill="#F1F1F1" height="33.9688" rx="12.5" ry="12.5" style="stroke:#181818;stroke-width:0.5;" width="150" x="160.25" y="1033.2271"/><text fill="#000000" font-family="sans-serif" font-size="12" lengthAdjust="spacing" textLength="130" x="170.25" y="1054.3657">&#25191;&#34892;HLT&#24490;&#29615;&#65292;&#31561;&#24453;&#20219;&#21153;</text><ellipse cx="235.25" cy="1113.3442" fill="none" rx="11" ry="11" style="stroke:#222222;stroke-width:1.0;"/><ellipse cx="235.25" cy="1113.3442" fill="#222222" rx="6" ry="6" style="stroke:#222222;stroke-width:1.0;"/><line style="stroke:#181818;stroke-width:1.0;" x1="235.25" x2="235.25" y1="67.2969" y2="87.2969"/><polygon fill="#181818" points="231.25,77.2969,235.25,87.2969,239.25,77.2969,235.25,81.2969" style="stroke:#181818;stroke-width:1.0;"/><line style="stroke:#181818;stroke-width:1.0;" x1="136.5" x2="136.5" y1="235.5313" y2="255.5313"/><polygon fill="#181818" points="132.5,245.5313,136.5,255.5313,140.5,245.5313,136.5,249.5313" style="stroke:#181818;stroke-width:1.0;"/><line style="stroke:#181818;stroke-width:1.0;" x1="181.75" x2="136.5" y1="179.5625" y2="179.5625"/><line style="stroke:#181818;stroke-width:1.0;" x1="136.5" x2="136.5" y1="179.5625" y2="201.5625"/><polygon fill="#181818" points="132.5,191.5625,136.5,201.5625,140.5,191.5625,136.5,195.5625" style="stroke:#181818;stroke-width:1.0;"/><line style="stroke:#181818;stroke-width:1.0;" x1="288.75" x2="334" y1="179.5625" y2="179.5625"/><line style="stroke:#181818;stroke-width:1.0;" x1="334" x2="334" y1="179.5625" y2="201.5625"/><polygon fill="#181818" points="330,191.5625,334,201.5625,338,191.5625,334,195.5625" style="stroke:#181818;stroke-width:1.0;"/><line style="stroke:#181818;stroke-width:1.0;" x1="136.5" x2="136.5" y1="289.5" y2="313.3989"/><line style="stroke:#181818;stroke-width:1.0;" x1="136.5" x2="223.25" y1="313.3989" y2="313.3989"/><polygon fill="#181818" points="213.25,309.3989,223.25,313.3989,213.25,317.3989,217.25,313.3989" style="stroke:#181818;stroke-width:1.0;"/><line style="stroke:#181818;stroke-width:1.0;" x1="334" x2="334" y1="235.5313" y2="313.3989"/><line style="stroke:#181818;stroke-width:1.0;" x1="334" x2="247.25" y1="313.3989" y2="313.3989"/><polygon fill="#181818" points="257.25,309.3989,247.25,313.3989,257.25,317.3989,253.25,313.3989" style="stroke:#181818;stroke-width:1.0;"/><line style="stroke:#181818;stroke-width:1.0;" x1="235.25" x2="235.25" y1="121.2656" y2="167.5625"/><polygon fill="#181818" points="231.25,157.5625,235.25,167.5625,239.25,157.5625,235.25,161.5625" style="stroke:#181818;stroke-width:1.0;"/><line style="stroke:#181818;stroke-width:1.0;" x1="235.25" x2="235.25" y1="420.6646" y2="444.5278"/><polygon fill="#181818" points="231.25,434.5278,235.25,444.5278,239.25,434.5278,235.25,438.5278" style="stroke:#181818;stroke-width:1.0;"/><line style="stroke:#181818;stroke-width:1.0;" x1="235.25" x2="235.25" y1="325.3989" y2="386.6958"/><polygon fill="#181818" points="231.25,376.6958,235.25,386.6958,239.25,376.6958,235.25,380.6958" style="stroke:#181818;stroke-width:1.0;"/><line style="stroke:#181818;stroke-width:1.0;" x1="235.25" x2="235.25" y1="581.4771" y2="601.4771"/><polygon fill="#181818" points="231.25,591.4771,235.25,601.4771,239.25,591.4771,235.25,595.4771" style="stroke:#181818;stroke-width:1.0;"/><line style="stroke:#181818;stroke-width:1.0;" x1="235.25" x2="235.25" y1="635.4458" y2="655.4458"/><polygon fill="#181818" points="231.25,645.4458,235.25,655.4458,239.25,645.4458,235.25,649.4458" style="stroke:#181818;stroke-width:1.0;"/><line style="stroke:#181818;stroke-width:1.0;" x1="235.25" x2="235.25" y1="689.4146" y2="709.4146"/><polygon fill="#181818" points="231.25,699.4146,235.25,709.4146,239.25,699.4146,235.25,703.4146" style="stroke:#181818;stroke-width:1.0;"/><line style="stroke:#181818;stroke-width:1.0;" x1="235.25" x2="235.25" y1="743.3833" y2="763.3833"/><polygon fill="#181818" points="231.25,753.3833,235.25,763.3833,239.25,753.3833,235.25,757.3833" style="stroke:#181818;stroke-width:1.0;"/><line style="stroke:#181818;stroke-width:1.0;" x1="235.25" x2="235.25" y1="797.3521" y2="817.3521"/><polygon fill="#181818" points="231.25,807.3521,235.25,817.3521,239.25,807.3521,235.25,811.3521" style="stroke:#181818;stroke-width:1.0;"/><line style="stroke:#181818;stroke-width:1.0;" x1="235.25" x2="235.25" y1="851.3208" y2="871.3208"/><polygon fill="#181818" points="231.25,861.3208,235.25,871.3208,239.25,861.3208,235.25,865.3208" style="stroke:#181818;stroke-width:1.0;"/><line style="stroke:#181818;stroke-width:1.0;" x1="235.25" x2="235.25" y1="905.2896" y2="925.2896"/><polygon fill="#181818" points="231.25,915.2896,235.25,925.2896,239.25,915.2896,235.25,919.2896" style="stroke:#181818;stroke-width:1.0;"/><line style="stroke:#181818;stroke-width:1.0;" x1="235.25" x2="235.25" y1="959.2583" y2="979.2583"/><polygon fill="#181818" points="231.25,969.2583,235.25,979.2583,239.25,969.2583,235.25,973.2583" style="stroke:#181818;stroke-width:1.0;"/><line style="stroke:#181818;stroke-width:1.0;" x1="235.25" x2="235.25" y1="1013.2271" y2="1033.2271"/><polygon fill="#181818" points="231.25,1023.2271,235.25,1033.2271,239.25,1023.2271,235.25,1027.2271" style="stroke:#181818;stroke-width:1.0;"/><line style="stroke:#181818;stroke-width:1.0;" x1="235.25" x2="235.25" y1="478.4966" y2="547.5083"/><polygon fill="#181818" points="231.25,537.5083,235.25,547.5083,239.25,537.5083,235.25,541.5083" style="stroke:#181818;stroke-width:1.0;"/><line style="stroke:#181818;stroke-width:1.0;" x1="235.25" x2="235.25" y1="1067.1958" y2="1102.3442"/><polygon fill="#181818" points="231.25,1092.3442,235.25,1102.3442,239.25,1092.3442,235.25,1096.3442" style="stroke:#181818;stroke-width:1.0;"/></g></svg>