<?xml version="1.0" encoding="us-ascii" standalone="no"?><svg xmlns="http://www.w3.org/2000/svg" xmlns:xlink="http://www.w3.org/1999/xlink" contentStyleType="text/css" height="1148px" preserveAspectRatio="none" style="width:814px;height:1148px;background:#FFFFFF;" version="1.1" viewBox="0 0 814 1148" width="814px" zoomAndPan="magnify"><defs/><g><text fill="#000000" font-family="sans-serif" font-size="14" font-weight="bold" lengthAdjust="spacing" textLength="180" x="315.5" y="32.9951">&#26032;&#20219;&#21153;&#20013;&#26029;&#24191;&#25773;&#21644;&#22788;&#29702;&#27969;&#31243;</text><ellipse cx="239.75" cy="57.2969" fill="#222222" rx="10" ry="10" style="stroke:#222222;stroke-width:1.0;"/><rect fill="#F1F1F1" height="33.9688" rx="12.5" ry="12.5" style="stroke:#181818;stroke-width:0.5;" width="80" x="199.75" y="87.2969"/><text fill="#000000" font-family="sans-serif" font-size="12" lengthAdjust="spacing" textLength="60" x="209.75" y="108.4355">&#21019;&#24314;&#26032;&#20219;&#21153;</text><rect fill="#F1F1F1" height="47.9375" rx="12.5" ry="12.5" style="stroke:#181818;stroke-width:0.5;" width="174" x="152.75" y="141.2656"/><text fill="#000000" font-family="sans-serif" font-size="12" lengthAdjust="spacing" textLength="154" x="162.75" y="162.4043">&#21521;&#25152;&#26377;&#22788;&#29702;&#22120;(&#21253;&#25324;&#33258;&#24049;)&#24191;&#25773;</text><text fill="#000000" font-family="sans-serif" font-size="12" lengthAdjust="spacing" textLength="108" x="162.75" y="176.373">&#26032;&#20219;&#21153;&#35748;&#39046;&#20013;&#26029;&#28040;&#24687;</text><rect fill="#F1F1F1" height="33.9688" rx="12.5" ry="12.5" style="stroke:#181818;stroke-width:0.5;" width="164" x="157.75" y="253.2031"/><text fill="#000000" font-family="sans-serif" font-size="12" lengthAdjust="spacing" textLength="144" x="167.75" y="274.3418">&#27599;&#20010;&#22788;&#29702;&#22120;&#25509;&#25910;&#21040;&#20013;&#26029;&#28040;&#24687;</text><rect fill="#F1F1F1" height="33.9688" rx="12.5" ry="12.5" style="stroke:#181818;stroke-width:0.5;" width="220" x="129.75" y="307.1719"/><text fill="#000000" font-family="sans-serif" font-size="12" lengthAdjust="spacing" textLength="200" x="139.75" y="328.3105">&#36716;&#21435;&#25191;&#34892;new_task_notify_handler</text><rect fill="#F1F1F1" height="47.9375" rx="12.5" ry="12.5" style="stroke:#181818;stroke-width:0.5;" width="199" x="140.25" y="361.1406"/><text fill="#000000" font-family="sans-serif" font-size="12" lengthAdjust="spacing" textLength="179" x="150.25" y="382.2793">&#21521;&#33258;&#24049;&#30340;Local APIC&#21457;&#36865;EOI&#21629;&#20196;</text><text fill="#000000" font-family="sans-serif" font-size="12" lengthAdjust="spacing" textLength="153" x="150.25" y="396.248">(&#22320;&#22336;: APIC&#22522;&#22320;&#22336; + 0xB0)</text><rect fill="#F1F1F1" height="47.9375" rx="12.5" ry="12.5" style="stroke:#181818;stroke-width:0.5;" width="192" x="143.75" y="429.0781"/><text fill="#000000" font-family="sans-serif" font-size="12" lengthAdjust="spacing" textLength="172" x="153.75" y="450.2168">&#29992;swapgs&#35753;GS&#25351;&#21521;&#24403;&#21069;&#22788;&#29702;&#22120;</text><text fill="#000000" font-family="sans-serif" font-size="12" lengthAdjust="spacing" textLength="60" x="153.75" y="464.1855">&#19987;&#23646;&#23384;&#20648;&#21306;</text><polygon fill="#F1F1F1" points="171.25,497.0156,308.25,497.0156,320.25,509.0156,308.25,521.0156,171.25,521.0156,159.25,509.0156,171.25,497.0156" style="stroke:#181818;stroke-width:0.5;"/><text fill="#000000" font-family="sans-serif" font-size="11" lengthAdjust="spacing" textLength="137" x="171.25" y="512.8237">&#19987;&#23646;&#23384;&#20648;&#21306;&#20559;&#31227;+8&#22788; != 0?</text><text fill="#000000" font-family="sans-serif" font-size="11" lengthAdjust="spacing" textLength="89" x="70.25" y="506.4214">&#26159; - &#27491;&#22312;&#25191;&#34892;&#20219;&#21153;</text><text fill="#000000" font-family="sans-serif" font-size="11" lengthAdjust="spacing" textLength="78" x="320.25" y="506.4214">&#21542; - &#22788;&#29702;&#22120;&#31354;&#38386;</text><rect fill="#F1F1F1" height="33.9688" rx="12.5" ry="12.5" style="stroke:#181818;stroke-width:0.5;" width="144" x="20.5" y="531.0156"/><text fill="#000000" font-family="sans-serif" font-size="12" lengthAdjust="spacing" textLength="124" x="30.5" y="552.1543">&#29992;swapgs&#24674;&#22797;GS&#21407;&#20540;</text><rect fill="#F1F1F1" height="33.9688" rx="12.5" ry="12.5" style="stroke:#181818;stroke-width:0.5;" width="163" x="11" y="598.9531"/><text fill="#000000" font-family="sans-serif" font-size="12" lengthAdjust="spacing" textLength="143" x="21" y="620.0918">&#25191;&#34892;IRETQ&#25351;&#20196;&#20174;&#20013;&#26029;&#36820;&#22238;</text><rect fill="#F1F1F1" height="33.9688" rx="12.5" ry="12.5" style="stroke:#181818;stroke-width:0.5;" width="104" x="40.5" y="667.9219"/><text fill="#000000" font-family="sans-serif" font-size="12" lengthAdjust="spacing" textLength="84" x="50.5" y="689.0605">&#32487;&#32493;&#25191;&#34892;&#21407;&#20219;&#21153;</text><rect fill="#F1F1F1" height="47.9375" rx="12.5" ry="12.5" style="stroke:#181818;stroke-width:0.5;" width="198" x="288" y="531.0156"/><text fill="#000000" font-family="sans-serif" font-size="12" lengthAdjust="spacing" textLength="178" x="298" y="552.1543">&#35843;&#29992;search_for_a_ready_task</text><text fill="#000000" font-family="sans-serif" font-size="12" lengthAdjust="spacing" textLength="132" x="298" y="566.123">&#20174;&#20219;&#21153;&#38142;&#34920;&#25628;&#32034;&#23601;&#32490;&#20219;&#21153;</text><polygon fill="#F1F1F1" points="316.5,612.9219,457.5,612.9219,469.5,624.9219,457.5,636.9219,316.5,636.9219,304.5,624.9219,316.5,612.9219" style="stroke:#181818;stroke-width:0.5;"/><text fill="#000000" font-family="sans-serif" font-size="11" lengthAdjust="spacing" textLength="141" x="316.5" y="628.73">R11 == 0? &#26410;&#25214;&#21040;&#23601;&#32490;&#20219;&#21153;</text><text fill="#000000" font-family="sans-serif" font-size="11" lengthAdjust="spacing" textLength="11" x="293.5" y="622.3276">&#26159;</text><text fill="#000000" font-family="sans-serif" font-size="11" lengthAdjust="spacing" textLength="89" x="469.5" y="622.3276">&#21542; - &#25214;&#21040;&#23601;&#32490;&#20219;&#21153;</text><rect fill="#F1F1F1" height="33.9688" rx="12.5" ry="12.5" style="stroke:#181818;stroke-width:0.5;" width="144" x="213.5" y="646.9219"/><text fill="#000000" font-family="sans-serif" font-size="12" lengthAdjust="spacing" textLength="124" x="223.5" y="668.0605">&#29992;swapgs&#24674;&#22797;GS&#21407;&#20540;</text><rect fill="#F1F1F1" height="33.9688" rx="12.5" ry="12.5" style="stroke:#181818;stroke-width:0.5;" width="163" x="204" y="715.8906"/><text fill="#000000" font-family="sans-serif" font-size="12" lengthAdjust="spacing" textLength="143" x="214" y="737.0293">&#25191;&#34892;IRETQ&#25351;&#20196;&#20174;&#20013;&#26029;&#36820;&#22238;</text><rect fill="#F1F1F1" height="33.9688" rx="12.5" ry="12.5" style="stroke:#181818;stroke-width:0.5;" width="140" x="215.5" y="783.8281"/><text fill="#000000" font-family="sans-serif" font-size="12" lengthAdjust="spacing" textLength="120" x="225.5" y="804.9668">&#32487;&#32493;&#20572;&#26426;&#25110;&#25191;&#34892;&#21407;&#20195;&#30721;</text><rect fill="#F1F1F1" height="33.9688" rx="12.5" ry="12.5" style="stroke:#181818;stroke-width:0.5;" width="192" x="392.5" y="646.9219"/><text fill="#000000" font-family="sans-serif" font-size="12" lengthAdjust="spacing" textLength="172" x="402.5" y="668.0605">&#29992;swapgs&#35753;GS&#25351;&#21521;&#19987;&#23646;&#23384;&#20648;&#21306;</text><rect fill="#F1F1F1" height="47.9375" rx="12.5" ry="12.5" style="stroke:#181818;stroke-width:0.5;" width="126" x="425.5" y="715.8906"/><text fill="#000000" font-family="sans-serif" font-size="12" lengthAdjust="spacing" textLength="100" x="435.5" y="737.0293">RSP = RSP + 16</text><text fill="#000000" font-family="sans-serif" font-size="12" lengthAdjust="spacing" textLength="106" x="435.5" y="750.998">(&#25351;&#21521;&#20013;&#26029;&#36820;&#22238;&#22320;&#22336;)</text><rect fill="#F1F1F1" height="47.9375" rx="12.5" ry="12.5" style="stroke:#181818;stroke-width:0.5;" width="166" x="405.5" y="797.7969"/><text fill="#000000" font-family="sans-serif" font-size="12" lengthAdjust="spacing" textLength="144" x="415.5" y="818.9355">&#23558;RSP&#20540;&#20445;&#23384;&#21040;&#19987;&#23646;&#23384;&#20648;&#21306;</text><text fill="#000000" font-family="sans-serif" font-size="12" lengthAdjust="spacing" textLength="146" x="415.5" y="832.9043">&#20559;&#31227;24&#22788;(&#20445;&#23384;&#22266;&#26377;&#26632;&#25351;&#38024;)</text><rect fill="#F1F1F1" height="33.9688" rx="12.5" ry="12.5" style="stroke:#181818;stroke-width:0.5;" width="144" x="416.5" y="865.7344"/><text fill="#000000" font-family="sans-serif" font-size="12" lengthAdjust="spacing" textLength="124" x="426.5" y="886.873">&#29992;swapgs&#24674;&#22797;GS&#21407;&#20540;</text><path d="M610,909.7031 L610,940.9688 L590,944.9688 L610,948.9688 L610,980.2344 A0,0 0 0 0 610,980.2344 L774,980.2344 A0,0 0 0 0 774,980.2344 L774,919.7031 L764,909.7031 L610,909.7031 A0,0 0 0 0 610,909.7031 " fill="#FEFFDD" style="stroke:#181818;stroke-width:0.5;"/><path d="M764,909.7031 L764,919.7031 L774,919.7031 L764,909.7031 " fill="#FEFFDD" style="stroke:#181818;stroke-width:0.5;"/><text fill="#000000" font-family="sans-serif" font-size="13" lengthAdjust="spacing" textLength="87" x="616" y="926.77">JMP&#19968;&#21435;&#19981;&#22238;&#22836;</text><text fill="#000000" font-family="sans-serif" font-size="13" lengthAdjust="spacing" textLength="117" x="616" y="941.9028">&#20013;&#26029;&#36820;&#22238;&#22320;&#22336;&#24050;&#20445;&#23384;</text><text fill="#000000" font-family="sans-serif" font-size="13" lengthAdjust="spacing" textLength="143" x="616" y="957.0356">&#23558;&#26469;&#20219;&#21153;&#32456;&#27490;&#26102;&#20250;&#24674;&#22797;&#26632;</text><text fill="#000000" font-family="sans-serif" font-size="13" lengthAdjust="spacing" textLength="104" x="616" y="972.1685">&#24182;&#20174;&#26412;&#27425;&#20013;&#26029;&#36820;&#22238;</text><rect fill="#F1F1F1" height="47.9375" rx="12.5" ry="12.5" style="stroke:#181818;stroke-width:0.5;" width="203" x="387" y="921"/><text fill="#000000" font-family="sans-serif" font-size="12" lengthAdjust="spacing" textLength="183" x="397" y="942.1387">JMP&#21040;resume_execute_a_task</text><text fill="#000000" font-family="sans-serif" font-size="12" lengthAdjust="spacing" textLength="96" x="397" y="956.1074">&#24674;&#22797;&#24182;&#25191;&#34892;&#26032;&#20219;&#21153;</text><polygon fill="#F1F1F1" points="387,986.2344,399,998.2344,387,1010.2344,375,998.2344,387,986.2344" style="stroke:#181818;stroke-width:0.5;"/><polygon fill="#F1F1F1" points="239.75,1016.2344,251.75,1028.2344,239.75,1040.2344,227.75,1028.2344,239.75,1016.2344" style="stroke:#181818;stroke-width:0.5;"/><polygon fill="#F1F1F1" points="239.75,209.2031,251.75,221.2031,239.75,233.2031,227.75,221.2031,239.75,209.2031" style="stroke:#181818;stroke-width:0.5;"/><polygon fill="#F1F1F1" points="198.25,1060.2344,281.25,1060.2344,293.25,1072.2344,281.25,1084.2344,198.25,1084.2344,186.25,1072.2344,198.25,1060.2344" style="stroke:#181818;stroke-width:0.5;"/><text fill="#000000" font-family="sans-serif" font-size="11" lengthAdjust="spacing" textLength="99" x="243.75" y="1094.4448">&#25152;&#26377;&#22788;&#29702;&#22120;&#22788;&#29702;&#23436;&#25104;</text><text fill="#000000" font-family="sans-serif" font-size="11" lengthAdjust="spacing" textLength="83" x="198.25" y="1076.0425">&#36824;&#26377;&#26356;&#22810;&#22788;&#29702;&#22120;?</text><ellipse cx="239.75" cy="1126.9448" fill="none" rx="11" ry="11" style="stroke:#222222;stroke-width:1.0;"/><ellipse cx="239.75" cy="1126.9448" fill="#222222" rx="6" ry="6" style="stroke:#222222;stroke-width:1.0;"/><line style="stroke:#181818;stroke-width:1.0;" x1="239.75" x2="239.75" y1="67.2969" y2="87.2969"/><polygon fill="#181818" points="235.75,77.2969,239.75,87.2969,243.75,77.2969,239.75,81.2969" style="stroke:#181818;stroke-width:1.0;"/><line style="stroke:#181818;stroke-width:1.0;" x1="239.75" x2="239.75" y1="121.2656" y2="141.2656"/><polygon fill="#181818" points="235.75,131.2656,239.75,141.2656,243.75,131.2656,239.75,135.2656" style="stroke:#181818;stroke-width:1.0;"/><line style="stroke:#181818;stroke-width:1.0;" x1="239.75" x2="239.75" y1="287.1719" y2="307.1719"/><polygon fill="#181818" points="235.75,297.1719,239.75,307.1719,243.75,297.1719,239.75,301.1719" style="stroke:#181818;stroke-width:1.0;"/><line style="stroke:#181818;stroke-width:1.0;" x1="239.75" x2="239.75" y1="341.1406" y2="361.1406"/><polygon fill="#181818" points="235.75,351.1406,239.75,361.1406,243.75,351.1406,239.75,355.1406" style="stroke:#181818;stroke-width:1.0;"/><line style="stroke:#181818;stroke-width:1.0;" x1="239.75" x2="239.75" y1="409.0781" y2="429.0781"/><polygon fill="#181818" points="235.75,419.0781,239.75,429.0781,243.75,419.0781,239.75,423.0781" style="stroke:#181818;stroke-width:1.0;"/><line style="stroke:#181818;stroke-width:1.0;" x1="92.5" x2="92.5" y1="564.9844" y2="598.9531"/><polygon fill="#181818" points="88.5,588.9531,92.5,598.9531,96.5,588.9531,92.5,592.9531" style="stroke:#181818;stroke-width:1.0;"/><line style="stroke:#181818;stroke-width:1.0;" x1="92.5" x2="92.5" y1="632.9219" y2="667.9219"/><polygon fill="#181818" points="88.5,657.9219,92.5,667.9219,96.5,657.9219,92.5,661.9219" style="stroke:#181818;stroke-width:1.0;"/><line style="stroke:#181818;stroke-width:1.0;" x1="285.5" x2="285.5" y1="680.8906" y2="715.8906"/><polygon fill="#181818" points="281.5,705.8906,285.5,715.8906,289.5,705.8906,285.5,709.8906" style="stroke:#181818;stroke-width:1.0;"/><line style="stroke:#181818;stroke-width:1.0;" x1="285.5" x2="285.5" y1="749.8594" y2="783.8281"/><polygon fill="#181818" points="281.5,773.8281,285.5,783.8281,289.5,773.8281,285.5,777.8281" style="stroke:#181818;stroke-width:1.0;"/><line style="stroke:#181818;stroke-width:1.0;" x1="488.5" x2="488.5" y1="680.8906" y2="715.8906"/><polygon fill="#181818" points="484.5,705.8906,488.5,715.8906,492.5,705.8906,488.5,709.8906" style="stroke:#181818;stroke-width:1.0;"/><line style="stroke:#181818;stroke-width:1.0;" x1="488.5" x2="488.5" y1="763.8281" y2="797.7969"/><polygon fill="#181818" points="484.5,787.7969,488.5,797.7969,492.5,787.7969,488.5,791.7969" style="stroke:#181818;stroke-width:1.0;"/><line style="stroke:#181818;stroke-width:1.0;" x1="488.5" x2="488.5" y1="845.7344" y2="865.7344"/><polygon fill="#181818" points="484.5,855.7344,488.5,865.7344,492.5,855.7344,488.5,859.7344" style="stroke:#181818;stroke-width:1.0;"/><line style="stroke:#181818;stroke-width:1.0;" x1="488.5" x2="488.5" y1="899.7031" y2="921"/><polygon fill="#181818" points="484.5,911,488.5,921,492.5,911,488.5,915" style="stroke:#181818;stroke-width:1.0;"/><line style="stroke:#181818;stroke-width:1.0;" x1="304.5" x2="285.5" y1="624.9219" y2="624.9219"/><line style="stroke:#181818;stroke-width:1.0;" x1="285.5" x2="285.5" y1="624.9219" y2="646.9219"/><polygon fill="#181818" points="281.5,636.9219,285.5,646.9219,289.5,636.9219,285.5,640.9219" style="stroke:#181818;stroke-width:1.0;"/><line style="stroke:#181818;stroke-width:1.0;" x1="469.5" x2="488.5" y1="624.9219" y2="624.9219"/><line style="stroke:#181818;stroke-width:1.0;" x1="488.5" x2="488.5" y1="624.9219" y2="646.9219"/><polygon fill="#181818" points="484.5,636.9219,488.5,646.9219,492.5,636.9219,488.5,640.9219" style="stroke:#181818;stroke-width:1.0;"/><line style="stroke:#181818;stroke-width:1.0;" x1="285.5" x2="285.5" y1="817.7969" y2="998.2344"/><line style="stroke:#181818;stroke-width:1.0;" x1="285.5" x2="375" y1="998.2344" y2="998.2344"/><polygon fill="#181818" points="365,994.2344,375,998.2344,365,1002.2344,369,998.2344" style="stroke:#181818;stroke-width:1.0;"/><line style="stroke:#181818;stroke-width:1.0;" x1="488.5" x2="488.5" y1="968.9375" y2="998.2344"/><line style="stroke:#181818;stroke-width:1.0;" x1="488.5" x2="399" y1="998.2344" y2="998.2344"/><polygon fill="#181818" points="409,994.2344,399,998.2344,409,1002.2344,405,998.2344" style="stroke:#181818;stroke-width:1.0;"/><line style="stroke:#181818;stroke-width:1.0;" x1="387" x2="387" y1="578.9531" y2="612.9219"/><polygon fill="#181818" points="383,602.9219,387,612.9219,391,602.9219,387,606.9219" style="stroke:#181818;stroke-width:1.0;"/><line style="stroke:#181818;stroke-width:1.0;" x1="159.25" x2="92.5" y1="509.0156" y2="509.0156"/><line style="stroke:#181818;stroke-width:1.0;" x1="92.5" x2="92.5" y1="509.0156" y2="531.0156"/><polygon fill="#181818" points="88.5,521.0156,92.5,531.0156,96.5,521.0156,92.5,525.0156" style="stroke:#181818;stroke-width:1.0;"/><line style="stroke:#181818;stroke-width:1.0;" x1="320.25" x2="387" y1="509.0156" y2="509.0156"/><line style="stroke:#181818;stroke-width:1.0;" x1="387" x2="387" y1="509.0156" y2="531.0156"/><polygon fill="#181818" points="383,521.0156,387,531.0156,391,521.0156,387,525.0156" style="stroke:#181818;stroke-width:1.0;"/><line style="stroke:#181818;stroke-width:1.0;" x1="92.5" x2="92.5" y1="701.8906" y2="1028.2344"/><line style="stroke:#181818;stroke-width:1.0;" x1="92.5" x2="227.75" y1="1028.2344" y2="1028.2344"/><polygon fill="#181818" points="217.75,1024.2344,227.75,1028.2344,217.75,1032.2344,221.75,1028.2344" style="stroke:#181818;stroke-width:1.0;"/><line style="stroke:#181818;stroke-width:1.0;" x1="387" x2="387" y1="1010.2344" y2="1028.2344"/><line style="stroke:#181818;stroke-width:1.0;" x1="387" x2="251.75" y1="1028.2344" y2="1028.2344"/><polygon fill="#181818" points="261.75,1024.2344,251.75,1028.2344,261.75,1032.2344,257.75,1028.2344" style="stroke:#181818;stroke-width:1.0;"/><line style="stroke:#181818;stroke-width:1.0;" x1="239.75" x2="239.75" y1="477.0156" y2="497.0156"/><polygon fill="#181818" points="235.75,487.0156,239.75,497.0156,243.75,487.0156,239.75,491.0156" style="stroke:#181818;stroke-width:1.0;"/><line style="stroke:#181818;stroke-width:1.0;" x1="239.75" x2="239.75" y1="233.2031" y2="253.2031"/><polygon fill="#181818" points="235.75,243.2031,239.75,253.2031,243.75,243.2031,239.75,247.2031" style="stroke:#181818;stroke-width:1.0;"/><line style="stroke:#181818;stroke-width:1.0;" x1="293.25" x2="788" y1="1072.2344" y2="1072.2344"/><polygon fill="#181818" points="784,646.7188,788,636.7188,792,646.7188,788,642.7188" style="stroke:#181818;stroke-width:1.0;"/><line style="stroke:#181818;stroke-width:1.0;" x1="788" x2="788" y1="221.2031" y2="1072.2344"/><line style="stroke:#181818;stroke-width:1.0;" x1="788" x2="251.75" y1="221.2031" y2="221.2031"/><polygon fill="#181818" points="261.75,217.2031,251.75,221.2031,261.75,225.2031,257.75,221.2031" style="stroke:#181818;stroke-width:1.0;"/><line style="stroke:#181818;stroke-width:1.0;" x1="239.75" x2="239.75" y1="1040.2344" y2="1060.2344"/><polygon fill="#181818" points="235.75,1050.2344,239.75,1060.2344,243.75,1050.2344,239.75,1054.2344" style="stroke:#181818;stroke-width:1.0;"/><line style="stroke:#181818;stroke-width:1.0;" x1="239.75" x2="239.75" y1="189.2031" y2="209.2031"/><polygon fill="#181818" points="235.75,199.2031,239.75,209.2031,243.75,199.2031,239.75,203.2031" style="stroke:#181818;stroke-width:1.0;"/><line style="stroke:#181818;stroke-width:1.0;" x1="239.75" x2="239.75" y1="1084.2344" y2="1115.9448"/><polygon fill="#181818" points="235.75,1105.9448,239.75,1115.9448,243.75,1105.9448,239.75,1109.9448" style="stroke:#181818;stroke-width:1.0;"/></g></svg>