<?xml version="1.0" encoding="us-ascii" standalone="no"?><svg xmlns="http://www.w3.org/2000/svg" xmlns:xlink="http://www.w3.org/1999/xlink" contentStyleType="text/css" height="3257px" preserveAspectRatio="none" style="width:621px;height:3257px;background:#FFFFFF;" version="1.1" viewBox="0 0 621 3257" width="621px" zoomAndPan="magnify"><defs/><g><text fill="#000000" font-family="sans-serif" font-size="14" font-weight="bold" lengthAdjust="spacing" textLength="135" x="241.75" y="32.9951">&#20219;&#21153;&#31649;&#29702;&#21644;&#35843;&#24230;&#27969;&#31243;</text><ellipse cx="314.5" cy="57.2969" fill="#222222" rx="10" ry="10" style="stroke:#222222;stroke-width:1.0;"/><rect fill="none" height="190.2031" style="stroke:#000000;stroke-width:1.5;" width="194" x="217.5" y="77.2969"/><path d="M395.5,77.2969 L395.5,86.5938 L385.5,96.5938 L217.5,96.5938 " fill="none" style="stroke:#000000;stroke-width:1.5;"/><text fill="#000000" font-family="sans-serif" font-size="14" lengthAdjust="spacing" textLength="168" x="220.5" y="91.292">&#21021;&#22987;&#21270;&#65288;&#38750;&#20219;&#21153;&#35843;&#24230;&#27969;&#31243;&#65289;</text><rect fill="#F1F1F1" height="33.9688" rx="12.5" ry="12.5" style="stroke:#181818;stroke-width:0.5;" width="80" x="274.5" y="113.5938"/><text fill="#000000" font-family="sans-serif" font-size="12" lengthAdjust="spacing" textLength="60" x="284.5" y="134.7324">&#31995;&#32479;&#21021;&#22987;&#21270;</text><rect fill="#F1F1F1" height="33.9688" rx="12.5" ry="12.5" style="stroke:#181818;stroke-width:0.5;" width="174" x="227.5" y="167.5625"/><text fill="#000000" font-family="sans-serif" font-size="12" lengthAdjust="spacing" textLength="154" x="237.5" y="188.7012">&#21019;&#24314;&#20219;&#21153;&#38142;&#34920;(&#21452;&#21521;&#24490;&#29615;&#38142;&#34920;)</text><rect fill="#F1F1F1" height="33.9688" rx="12.5" ry="12.5" style="stroke:#181818;stroke-width:0.5;" width="151" x="239" y="221.5313"/><text fill="#000000" font-family="sans-serif" font-size="12" lengthAdjust="spacing" textLength="131" x="249" y="242.6699">pcb_ptr&#25351;&#21521;&#38142;&#34920;&#22836;&#33410;&#28857;</text><rect fill="none" height="185.875" style="stroke:#000000;stroke-width:1.5;" width="336" x="146.5" y="277.5"/><path d="M240.5,277.5 L240.5,286.7969 L230.5,296.7969 L146.5,296.7969 " fill="none" style="stroke:#000000;stroke-width:1.5;"/><text fill="#000000" font-family="sans-serif" font-size="14" lengthAdjust="spacing" textLength="84" x="149.5" y="291.4951">&#20219;&#21153;&#36873;&#25321;&#26102;&#26426;</text><polygon fill="#F1F1F1" points="270.5,313.7969,358.5,313.7969,370.5,325.7969,358.5,337.7969,270.5,337.7969,258.5,325.7969,270.5,313.7969" style="stroke:#181818;stroke-width:0.5;"/><text fill="#000000" font-family="sans-serif" font-size="11" lengthAdjust="spacing" textLength="88" x="270.5" y="329.605">&#19977;&#31181;&#24773;&#20917;&#37117;&#20250;&#35843;&#29992;</text><rect fill="#F1F1F1" height="33.9688" rx="12.5" ry="12.5" style="stroke:#181818;stroke-width:0.5;" width="104" x="156.5" y="373.4063"/><text fill="#000000" font-family="sans-serif" font-size="12" lengthAdjust="spacing" textLength="84" x="166.5" y="394.5449">&#26032;&#20219;&#21153;&#35748;&#39046;&#20013;&#26029;</text><rect fill="#F1F1F1" height="33.9688" rx="12.5" ry="12.5" style="stroke:#181818;stroke-width:0.5;" width="80" x="280.5" y="373.4063"/><text fill="#000000" font-family="sans-serif" font-size="12" lengthAdjust="spacing" textLength="60" x="290.5" y="394.5449">&#26102;&#38388;&#29255;&#29992;&#23436;</text><rect fill="#F1F1F1" height="33.9688" rx="12.5" ry="12.5" style="stroke:#181818;stroke-width:0.5;" width="92" x="380.5" y="373.4063"/><text fill="#000000" font-family="sans-serif" font-size="12" lengthAdjust="spacing" textLength="72" x="390.5" y="394.5449">&#20219;&#21153;&#32456;&#27490;&#25191;&#34892;</text><polygon fill="#F1F1F1" points="314.5,427.375,314.5,427.375,326.5,439.375,314.5,451.375,314.5,451.375,302.5,439.375,314.5,427.375" style="stroke:#181818;stroke-width:0.5;"/><path d="M445.5,487.793 L445.5,496.3594 L425.5,500.3594 L445.5,504.3594 L445.5,512.9258 A0,0 0 0 0 445.5,512.9258 L609.5,512.9258 A0,0 0 0 0 609.5,512.9258 L609.5,497.793 L599.5,487.793 L445.5,487.793 A0,0 0 0 0 445.5,487.793 " fill="#FEFFDD" style="stroke:#181818;stroke-width:0.5;"/><path d="M599.5,487.793 L599.5,497.793 L609.5,497.793 L599.5,487.793 " fill="#FEFFDD" style="stroke:#181818;stroke-width:0.5;"/><text fill="#000000" font-family="sans-serif" font-size="13" lengthAdjust="spacing" textLength="143" x="451.5" y="504.8599">&#20174;&#20219;&#21153;&#38142;&#34920;&#36873;&#25321;&#23601;&#32490;&#20219;&#21153;</text><rect fill="#F1F1F1" height="33.9688" rx="12.5" ry="12.5" style="stroke:#181818;stroke-width:0.5;" width="222" x="203.5" y="483.375"/><text fill="#000000" font-family="sans-serif" font-size="12" lengthAdjust="spacing" textLength="202" x="213.5" y="504.5137">&#35843;&#29992;search_for_a_ready_task&#20363;&#31243;</text><rect fill="none" height="817.8169" style="stroke:#000000;stroke-width:1.5;" width="478" x="93.5" y="527.3438"/><path d="M187.5,527.3438 L187.5,536.6406 L177.5,546.6406 L93.5,546.6406 " fill="none" style="stroke:#000000;stroke-width:1.5;"/><text fill="#000000" font-family="sans-serif" font-size="14" lengthAdjust="spacing" textLength="84" x="96.5" y="541.3389">&#25628;&#32034;&#23601;&#32490;&#20219;&#21153;</text><rect fill="#F1F1F1" height="33.9688" rx="12.5" ry="12.5" style="stroke:#181818;stroke-width:0.5;" width="163" x="233" y="563.6406"/><text fill="#000000" font-family="sans-serif" font-size="12" lengthAdjust="spacing" textLength="143" x="243" y="584.7793">&#29992;swapgs&#35775;&#38382;&#19987;&#23646;&#23384;&#20648;&#21306;</text><rect fill="#F1F1F1" height="33.9688" rx="12.5" ry="12.5" style="stroke:#181818;stroke-width:0.5;" width="196" x="216.5" y="617.6094"/><text fill="#000000" font-family="sans-serif" font-size="12" lengthAdjust="spacing" textLength="176" x="226.5" y="638.748">&#20174;&#20559;&#31227;8&#22788;&#33719;&#21462;&#24403;&#21069;&#20219;&#21153;PCB&#22320;&#22336;</text><polygon fill="#F1F1F1" points="267.5,671.5781,361.5,671.5781,373.5,683.5781,361.5,695.5781,267.5,695.5781,255.5,683.5781,267.5,671.5781" style="stroke:#181818;stroke-width:0.5;"/><text fill="#000000" font-family="sans-serif" font-size="11" lengthAdjust="spacing" textLength="94" x="267.5" y="687.3862">&#24403;&#21069;&#26377;&#20219;&#21153;&#22312;&#25191;&#34892;?</text><text fill="#000000" font-family="sans-serif" font-size="11" lengthAdjust="spacing" textLength="11" x="244.5" y="680.9839">&#26159;</text><text fill="#000000" font-family="sans-serif" font-size="11" lengthAdjust="spacing" textLength="11" x="373.5" y="680.9839">&#21542;</text><rect fill="#F1F1F1" height="33.9688" rx="12.5" ry="12.5" style="stroke:#181818;stroke-width:0.5;" width="152" x="141.25" y="705.5781"/><text fill="#000000" font-family="sans-serif" font-size="12" lengthAdjust="spacing" textLength="132" x="151.25" y="726.7168">&#20174;&#24403;&#21069;&#20219;&#21153;PCB&#24320;&#22987;&#25628;&#32034;</text><rect fill="#F1F1F1" height="33.9688" rx="12.5" ry="12.5" style="stroke:#181818;stroke-width:0.5;" width="197" x="313.25" y="705.5781"/><text fill="#000000" font-family="sans-serif" font-size="12" lengthAdjust="spacing" textLength="177" x="323.25" y="726.7168">&#20174;&#38142;&#34920;&#22836;&#33410;&#28857;(pcb_ptr)&#24320;&#22987;&#25628;&#32034;</text><polygon fill="#F1F1F1" points="314.5,745.5469,326.5,757.5469,314.5,769.5469,302.5,757.5469,314.5,745.5469" style="stroke:#181818;stroke-width:0.5;"/><rect fill="#F1F1F1" height="33.9688" rx="12.5" ry="12.5" style="stroke:#181818;stroke-width:0.5;" width="182" x="223.5" y="789.5469"/><text fill="#000000" font-family="sans-serif" font-size="12" lengthAdjust="spacing" textLength="162" x="233.5" y="810.6855">&#35774;&#32622;&#25628;&#32034;&#36215;&#28857;R11 = PCB&#22320;&#22336;</text><rect fill="#F1F1F1" height="47.9375" rx="12.5" ry="12.5" style="stroke:#181818;stroke-width:0.5;" width="199" x="215" y="887.5156"/><text fill="#000000" font-family="sans-serif" font-size="12" lengthAdjust="spacing" textLength="179" x="225" y="908.6543">lock cmpxchg [R11+16], RCX</text><text fill="#000000" font-family="sans-serif" font-size="12" lengthAdjust="spacing" textLength="130" x="225" y="922.623">(&#21407;&#23376;&#25805;&#20316;&#35774;&#32622;&#20219;&#21153;&#29366;&#24577;)</text><polygon fill="#F1F1F1" points="289.5,955.4531,339.5,955.4531,351.5,967.4531,339.5,979.4531,289.5,979.4531,277.5,967.4531,289.5,955.4531" style="stroke:#181818;stroke-width:0.5;"/><text fill="#000000" font-family="sans-serif" font-size="11" lengthAdjust="spacing" textLength="50" x="289.5" y="971.2612">&#35774;&#32622;&#25104;&#21151;?</text><text fill="#000000" font-family="sans-serif" font-size="11" lengthAdjust="spacing" textLength="89" x="188.5" y="964.8589">&#26159; - &#25214;&#21040;&#23601;&#32490;&#20219;&#21153;</text><text fill="#000000" font-family="sans-serif" font-size="11" lengthAdjust="spacing" textLength="89" x="351.5" y="964.8589">&#21542; - &#20219;&#21153;&#24050;&#34987;&#21344;&#29992;</text><rect fill="#F1F1F1" height="33.9688" rx="12.5" ry="12.5" style="stroke:#181818;stroke-width:0.5;" width="170" x="123.5" y="989.4531"/><text fill="#000000" font-family="sans-serif" font-size="12" lengthAdjust="spacing" textLength="150" x="133.5" y="1010.5918">R11 = &#25214;&#21040;&#30340;&#20219;&#21153;PCB&#22320;&#22336;</text><rect fill="#F1F1F1" height="33.9688" rx="12.5" ry="12.5" style="stroke:#181818;stroke-width:0.5;" width="214" x="313.5" y="989.4531"/><text fill="#000000" font-family="sans-serif" font-size="12" lengthAdjust="spacing" textLength="194" x="323.5" y="1010.5918">R11 = [R11+280]&#19979;&#19968;&#20010;PCB&#22320;&#22336;</text><polygon fill="#F1F1F1" points="314.5,843.5156,326.5,855.5156,314.5,867.5156,302.5,855.5156,314.5,843.5156" style="stroke:#181818;stroke-width:0.5;"/><polygon fill="#F1F1F1" points="284,1043.4219,345,1043.4219,357,1055.4219,345,1067.4219,284,1067.4219,272,1055.4219,284,1043.4219" style="stroke:#181818;stroke-width:0.5;"/><text fill="#000000" font-family="sans-serif" font-size="11" lengthAdjust="spacing" textLength="61" x="284" y="1059.23">&#26410;&#22238;&#21040;&#36215;&#28857;?</text><polygon fill="#F1F1F1" points="314.5,1087.4219,326.5,1099.4219,314.5,1111.4219,302.5,1099.4219,314.5,1087.4219" style="stroke:#181818;stroke-width:0.5;"/><rect fill="#F1F1F1" height="33.9688" rx="12.5" ry="12.5" style="stroke:#181818;stroke-width:0.5;" width="70" x="279.5" y="1201.2231"/><text fill="#000000" font-family="sans-serif" font-size="12" lengthAdjust="spacing" textLength="50" x="289.5" y="1222.3618">R11 = 0</text><polygon fill="#F1F1F1" points="273,1152.8208,356,1152.8208,368,1164.8208,356,1176.8208,273,1176.8208,261,1164.8208,273,1152.8208" style="stroke:#181818;stroke-width:0.5;"/><text fill="#000000" font-family="sans-serif" font-size="11" lengthAdjust="spacing" textLength="11" x="318.5" y="1187.0313">&#26159;</text><text fill="#000000" font-family="sans-serif" font-size="11" lengthAdjust="spacing" textLength="83" x="273" y="1168.6289">&#26410;&#25214;&#21040;&#23601;&#32490;&#20219;&#21153;?</text><polygon fill="#F1F1F1" points="314.5,1255.1919,326.5,1267.1919,314.5,1279.1919,302.5,1267.1919,314.5,1255.1919" style="stroke:#181818;stroke-width:0.5;"/><rect fill="#F1F1F1" height="33.9688" rx="12.5" ry="12.5" style="stroke:#181818;stroke-width:0.5;" width="120" x="254.5" y="1299.1919"/><text fill="#000000" font-family="sans-serif" font-size="12" lengthAdjust="spacing" textLength="100" x="264.5" y="1320.3306">&#29992;swapgs&#24674;&#22797;GS</text><polygon fill="#F1F1F1" points="284.5,1365.1606,344.5,1365.1606,356.5,1377.1606,344.5,1389.1606,284.5,1389.1606,272.5,1377.1606,284.5,1365.1606" style="stroke:#181818;stroke-width:0.5;"/><text fill="#000000" font-family="sans-serif" font-size="11" lengthAdjust="spacing" textLength="60" x="284.5" y="1380.9688">R11 == 0?</text><text fill="#000000" font-family="sans-serif" font-size="11" lengthAdjust="spacing" textLength="78" x="194.5" y="1374.5664">&#26159; - &#26410;&#25214;&#21040;&#20219;&#21153;</text><text fill="#000000" font-family="sans-serif" font-size="11" lengthAdjust="spacing" textLength="89" x="356.5" y="1374.5664">&#21542; - &#25214;&#21040;&#23601;&#32490;&#20219;&#21153;</text><rect fill="#F1F1F1" height="33.9688" rx="12.5" ry="12.5" style="stroke:#181818;stroke-width:0.5;" width="68" x="184.25" y="1399.1606"/><text fill="#000000" font-family="sans-serif" font-size="12" lengthAdjust="spacing" textLength="48" x="194.25" y="1420.2993">&#30452;&#25509;&#36820;&#22238;</text><rect fill="none" height="298.1406" style="stroke:#000000;stroke-width:1.5;" width="277" x="272.25" y="1399.1606"/><path d="M394.25,1399.1606 L394.25,1408.4575 L384.25,1418.4575 L272.25,1418.4575 " fill="none" style="stroke:#000000;stroke-width:1.5;"/><text fill="#000000" font-family="sans-serif" font-size="14" lengthAdjust="spacing" textLength="112" x="275.25" y="1413.1558">&#35774;&#32622;&#26032;&#20219;&#21153;&#26102;&#38388;&#29255;</text><rect fill="#F1F1F1" height="33.9688" rx="12.5" ry="12.5" style="stroke:#181818;stroke-width:0.5;" width="130" x="345.75" y="1435.4575"/><text fill="#000000" font-family="sans-serif" font-size="12" lengthAdjust="spacing" textLength="110" x="355.75" y="1456.5962">&#33719;&#21462;1ms&#26102;&#38047;&#21608;&#26399;&#25968;</text><rect fill="#F1F1F1" height="33.9688" rx="12.5" ry="12.5" style="stroke:#181818;stroke-width:0.5;" width="204" x="308.75" y="1489.4263"/><text fill="#000000" font-family="sans-serif" font-size="12" lengthAdjust="spacing" textLength="184" x="318.75" y="1510.5649">&#20174;PCB&#20559;&#31227;240&#22788;&#33719;&#21462;&#26102;&#38388;&#29255;(ms)</text><rect fill="#F1F1F1" height="33.9688" rx="12.5" ry="12.5" style="stroke:#181818;stroke-width:0.5;" width="250" x="285.75" y="1543.395"/><text fill="#000000" font-family="sans-serif" font-size="12" lengthAdjust="spacing" textLength="230" x="295.75" y="1564.5337">&#35745;&#31639;&#24635;&#26102;&#38047;&#21608;&#26399;&#25968; = 1ms&#21608;&#26399;&#25968; &#215; &#26102;&#38388;&#29255;</text><rect fill="#F1F1F1" height="33.9688" rx="12.5" ry="12.5" style="stroke:#181818;stroke-width:0.5;" width="257" x="282.25" y="1597.3638"/><text fill="#000000" font-family="sans-serif" font-size="12" lengthAdjust="spacing" textLength="237" x="292.25" y="1618.5024">&#35774;&#32622;APIC&#23450;&#26102;&#22120;&#20998;&#39057;&#23492;&#23384;&#22120;(0x3e0)&#20026;0x0b</text><rect fill="#F1F1F1" height="33.9688" rx="12.5" ry="12.5" style="stroke:#181818;stroke-width:0.5;" width="253" x="284.25" y="1651.3325"/><text fill="#000000" font-family="sans-serif" font-size="12" lengthAdjust="spacing" textLength="233" x="294.25" y="1672.4712">&#35774;&#32622;APIC&#23450;&#26102;&#22120;&#21521;&#37327;&#23492;&#23384;&#22120;(0x320)&#20026;0xfd</text><rect fill="none" height="555.9219" style="stroke:#000000;stroke-width:1.5;" width="234" x="293.75" y="1707.3013"/><path d="M387.75,1707.3013 L387.75,1716.5981 L377.75,1726.5981 L293.75,1726.5981 " fill="none" style="stroke:#000000;stroke-width:1.5;"/><text fill="#000000" font-family="sans-serif" font-size="14" lengthAdjust="spacing" textLength="84" x="296.75" y="1721.2964">&#20999;&#25442;&#21040;&#26032;&#20219;&#21153;</text><rect fill="#F1F1F1" height="47.9375" rx="12.5" ry="12.5" style="stroke:#181818;stroke-width:0.5;" width="150" x="335.75" y="1743.5981"/><text fill="#000000" font-family="sans-serif" font-size="12" lengthAdjust="spacing" textLength="126" x="345.75" y="1764.7368">&#35774;&#32622;CR3 = [R11+56]</text><text fill="#000000" font-family="sans-serif" font-size="12" lengthAdjust="spacing" textLength="130" x="345.75" y="1778.7056">(&#20999;&#25442;&#21040;&#26032;&#20219;&#21153;&#22320;&#22336;&#31354;&#38388;)</text><rect fill="#F1F1F1" height="33.9688" rx="12.5" ry="12.5" style="stroke:#181818;stroke-width:0.5;" width="163" x="329.25" y="1811.5356"/><text fill="#000000" font-family="sans-serif" font-size="12" lengthAdjust="spacing" textLength="143" x="339.25" y="1832.6743">&#29992;swapgs&#35775;&#38382;&#19987;&#23646;&#23384;&#20648;&#21306;</text><rect fill="#F1F1F1" height="33.9688" rx="12.5" ry="12.5" style="stroke:#181818;stroke-width:0.5;" width="214" x="303.75" y="1865.5044"/><text fill="#000000" font-family="sans-serif" font-size="12" lengthAdjust="spacing" textLength="194" x="313.75" y="1886.6431">&#19987;&#23646;&#23384;&#20648;&#21306;&#20559;&#31227;8 = &#26032;&#20219;&#21153;PCB&#22320;&#22336;</text><rect fill="#F1F1F1" height="47.9375" rx="12.5" ry="12.5" style="stroke:#181818;stroke-width:0.5;" width="181" x="320.25" y="1919.4731"/><text fill="#000000" font-family="sans-serif" font-size="12" lengthAdjust="spacing" textLength="161" x="330.25" y="1940.6118">&#35774;&#32622;TSS.RSP0 = [R11+32]</text><text fill="#000000" font-family="sans-serif" font-size="12" lengthAdjust="spacing" textLength="66" x="330.25" y="1954.5806">(0&#29305;&#26435;&#32423;&#26632;)</text><rect fill="#F1F1F1" height="33.9688" rx="12.5" ry="12.5" style="stroke:#181818;stroke-width:0.5;" width="120" x="350.75" y="1987.4106"/><text fill="#000000" font-family="sans-serif" font-size="12" lengthAdjust="spacing" textLength="100" x="360.75" y="2008.5493">&#29992;swapgs&#24674;&#22797;GS</text><rect fill="#F1F1F1" height="33.9688" rx="12.5" ry="12.5" style="stroke:#181818;stroke-width:0.5;" width="176" x="322.75" y="2041.3794"/><text fill="#000000" font-family="sans-serif" font-size="12" lengthAdjust="spacing" textLength="156" x="332.75" y="2062.5181">&#20174;&#26032;&#20219;&#21153;PCB&#24674;&#22797;&#36890;&#29992;&#23492;&#23384;&#22120;</text><rect fill="#F1F1F1" height="33.9688" rx="12.5" ry="12.5" style="stroke:#181818;stroke-width:0.5;" width="92" x="364.75" y="2095.3481"/><text fill="#000000" font-family="sans-serif" font-size="12" lengthAdjust="spacing" textLength="72" x="374.75" y="2116.4868">&#26500;&#36896;&#20013;&#26029;&#26632;&#24103;</text><rect fill="#F1F1F1" height="47.9375" rx="12.5" ry="12.5" style="stroke:#181818;stroke-width:0.5;" width="203" x="309.25" y="2149.3169"/><text fill="#000000" font-family="sans-serif" font-size="12" lengthAdjust="spacing" textLength="183" x="319.25" y="2170.4556">&#35774;&#32622;APIC&#23450;&#26102;&#22120;&#21021;&#22987;&#35745;&#25968;(0x380)</text><text fill="#000000" font-family="sans-serif" font-size="12" lengthAdjust="spacing" textLength="48" x="319.25" y="2184.4243">&#24320;&#22987;&#35745;&#26102;</text><rect fill="#F1F1F1" height="33.9688" rx="12.5" ry="12.5" style="stroke:#181818;stroke-width:0.5;" width="139" x="341.25" y="2217.2544"/><text fill="#000000" font-family="sans-serif" font-size="12" lengthAdjust="spacing" textLength="119" x="351.25" y="2238.3931">&#25191;&#34892;IRETQ&#36827;&#20837;&#26032;&#20219;&#21153;</text><polygon fill="#F1F1F1" points="314.5,2269.2231,326.5,2281.2231,314.5,2293.2231,302.5,2281.2231,314.5,2269.2231" style="stroke:#181818;stroke-width:0.5;"/><rect fill="none" height="539.625" style="stroke:#000000;stroke-width:1.5;" width="571" x="11" y="2303.2231"/><path d="M119,2303.2231 L119,2312.52 L109,2322.52 L11,2322.52 " fill="none" style="stroke:#000000;stroke-width:1.5;"/><text fill="#000000" font-family="sans-serif" font-size="14" lengthAdjust="spacing" textLength="98" x="14" y="2317.2183">&#26102;&#38388;&#29255;&#21040;&#26399;&#22788;&#29702;</text><rect fill="#F1F1F1" height="33.9688" rx="12.5" ry="12.5" style="stroke:#181818;stroke-width:0.5;" width="127" x="251" y="2339.52"/><text fill="#000000" font-family="sans-serif" font-size="12" lengthAdjust="spacing" textLength="107" x="261" y="2360.6587">APIC&#23450;&#26102;&#22120;&#35745;&#25968;&#21040;0</text><rect fill="#F1F1F1" height="33.9688" rx="12.5" ry="12.5" style="stroke:#181818;stroke-width:0.5;" width="128" x="250.5" y="2393.4888"/><text fill="#000000" font-family="sans-serif" font-size="12" lengthAdjust="spacing" textLength="108" x="260.5" y="2414.6274">&#35302;&#21457;&#26102;&#38388;&#29255;&#21040;&#26399;&#20013;&#26029;</text><rect fill="#F1F1F1" height="33.9688" rx="12.5" ry="12.5" style="stroke:#181818;stroke-width:0.5;" width="186" x="221.5" y="2447.4575"/><text fill="#000000" font-family="sans-serif" font-size="12" lengthAdjust="spacing" textLength="166" x="231.5" y="2468.5962">&#25191;&#34892;time_slice_out_handler</text><rect fill="#F1F1F1" height="33.9688" rx="12.5" ry="12.5" style="stroke:#181818;stroke-width:0.5;" width="139" x="245" y="2501.4263"/><text fill="#000000" font-family="sans-serif" font-size="12" lengthAdjust="spacing" textLength="119" x="255" y="2522.5649">&#21457;&#36865;EOI&#21040;Local APIC</text><polygon fill="#F1F1F1" points="243.5,2555.395,385.5,2555.395,397.5,2568.1997,385.5,2581.0044,243.5,2581.0044,231.5,2568.1997,243.5,2555.395" style="stroke:#181818;stroke-width:0.5;"/><text fill="#000000" font-family="sans-serif" font-size="11" lengthAdjust="spacing" textLength="142" x="243.5" y="2565.6055">search_for_a_ready_task</text><text fill="#000000" font-family="sans-serif" font-size="11" lengthAdjust="spacing" textLength="61" x="243.5" y="2578.4102">&#25214;&#21040;&#26032;&#20219;&#21153;?</text><text fill="#000000" font-family="sans-serif" font-size="11" lengthAdjust="spacing" textLength="11" x="220.5" y="2565.6055">&#26159;</text><text fill="#000000" font-family="sans-serif" font-size="11" lengthAdjust="spacing" textLength="11" x="397.5" y="2565.6055">&#21542;</text><rect fill="#F1F1F1" height="33.9688" rx="12.5" ry="12.5" style="stroke:#181818;stroke-width:0.5;" width="152" x="48.5" y="2591.0044"/><text fill="#000000" font-family="sans-serif" font-size="12" lengthAdjust="spacing" textLength="132" x="58.5" y="2612.1431">&#20445;&#23384;&#24403;&#21069;&#20219;&#21153;&#29366;&#24577;&#21040;PCB</text><rect fill="#F1F1F1" height="33.9688" rx="12.5" ry="12.5" style="stroke:#181818;stroke-width:0.5;" width="169" x="40" y="2644.9731"/><text fill="#000000" font-family="sans-serif" font-size="12" lengthAdjust="spacing" textLength="149" x="50" y="2666.1118">&#35745;&#31639;&#36820;&#22238;&#22320;&#22336;(.return&#26631;&#31614;)</text><rect fill="#F1F1F1" height="33.9688" rx="12.5" ry="12.5" style="stroke:#181818;stroke-width:0.5;" width="147" x="51" y="2698.9419"/><text fill="#000000" font-family="sans-serif" font-size="12" lengthAdjust="spacing" textLength="127" x="61" y="2720.0806">&#20445;&#23384;RIP&#21040;&#24403;&#21069;&#20219;&#21153;PCB</text><path d="M246,2756.7466 L246,2772.8794 L226,2776.8794 L246,2780.8794 L246,2797.0122 A0,0 0 0 0 246,2797.0122 L427,2797.0122 A0,0 0 0 0 427,2797.0122 L427,2766.7466 L417,2756.7466 L246,2756.7466 A0,0 0 0 0 246,2756.7466 " fill="#FEFFDD" style="stroke:#181818;stroke-width:0.5;"/><path d="M417,2756.7466 L417,2766.7466 L427,2766.7466 L417,2756.7466 " fill="#FEFFDD" style="stroke:#181818;stroke-width:0.5;"/><text fill="#000000" font-family="sans-serif" font-size="13" lengthAdjust="spacing" textLength="139" x="252" y="2773.8135">JMP&#19981;&#36820;&#22238;&#65292;&#20294;&#23558;&#26469;&#20219;&#21153;</text><text fill="#000000" font-family="sans-serif" font-size="13" lengthAdjust="spacing" textLength="160" x="252" y="2788.9463">&#24674;&#22797;&#26102;&#20250;&#20174;.return&#32487;&#32493;&#25191;&#34892;</text><rect fill="#F1F1F1" height="47.9375" rx="12.5" ry="12.5" style="stroke:#181818;stroke-width:0.5;" width="203" x="23" y="2752.9106"/><text fill="#000000" font-family="sans-serif" font-size="12" lengthAdjust="spacing" textLength="183" x="33" y="2774.0493">JMP&#21040;resume_execute_a_task</text><text fill="#000000" font-family="sans-serif" font-size="12" lengthAdjust="spacing" textLength="60" x="33" y="2788.0181">&#25191;&#34892;&#26032;&#20219;&#21153;</text><rect fill="#F1F1F1" height="33.9688" rx="12.5" ry="12.5" style="stroke:#181818;stroke-width:0.5;" width="115" x="447" y="2591.0044"/><text fill="#000000" font-family="sans-serif" font-size="12" lengthAdjust="spacing" textLength="95" x="457" y="2612.1431">IRETQ&#36820;&#22238;&#21407;&#20219;&#21153;</text><polygon fill="#F1F1F1" points="314.5,2806.8481,326.5,2818.8481,314.5,2830.8481,302.5,2818.8481,314.5,2806.8481" style="stroke:#181818;stroke-width:0.5;"/><rect fill="none" height="352.1094" style="stroke:#000000;stroke-width:1.5;" width="181" x="224" y="2852.8481"/><path d="M318,2852.8481 L318,2862.145 L308,2872.145 L224,2872.145 " fill="none" style="stroke:#000000;stroke-width:1.5;"/><text fill="#000000" font-family="sans-serif" font-size="14" lengthAdjust="spacing" textLength="84" x="227" y="2866.8433">&#20219;&#21153;&#32456;&#27490;&#22788;&#29702;</text><rect fill="#F1F1F1" height="33.9688" rx="12.5" ry="12.5" style="stroke:#181818;stroke-width:0.5;" width="92" x="268.5" y="2889.145"/><text fill="#000000" font-family="sans-serif" font-size="12" lengthAdjust="spacing" textLength="72" x="278.5" y="2910.2837">&#20219;&#21153;&#25191;&#34892;&#32456;&#27490;</text><rect fill="#F1F1F1" height="33.9688" rx="12.5" ry="12.5" style="stroke:#181818;stroke-width:0.5;" width="161" x="234" y="2943.1138"/><text fill="#000000" font-family="sans-serif" font-size="12" lengthAdjust="spacing" textLength="141" x="244" y="2964.2524">&#35843;&#29992;terminate_process</text><rect fill="#F1F1F1" height="33.9688" rx="12.5" ry="12.5" style="stroke:#181818;stroke-width:0.5;" width="92" x="268.5" y="2997.0825"/><text fill="#000000" font-family="sans-serif" font-size="12" lengthAdjust="spacing" textLength="72" x="278.5" y="3018.2212">&#37322;&#25918;&#20219;&#21153;&#36164;&#28304;</text><rect fill="#F1F1F1" height="33.9688" rx="12.5" ry="12.5" style="stroke:#181818;stroke-width:0.5;" width="128" x="250.5" y="3051.0513"/><text fill="#000000" font-family="sans-serif" font-size="12" lengthAdjust="spacing" textLength="108" x="260.5" y="3072.1899">&#20174;&#20219;&#21153;&#38142;&#34920;&#31227;&#38500;PCB</text><rect fill="#F1F1F1" height="33.9688" rx="12.5" ry="12.5" style="stroke:#181818;stroke-width:0.5;" width="128" x="250.5" y="3105.02"/><text fill="#000000" font-family="sans-serif" font-size="12" lengthAdjust="spacing" textLength="108" x="260.5" y="3126.1587">&#20999;&#25442;&#21040;&#22788;&#29702;&#22120;&#22266;&#26377;&#26632;</text><rect fill="#F1F1F1" height="33.9688" rx="12.5" ry="12.5" style="stroke:#181818;stroke-width:0.5;" width="140" x="244.5" y="3158.9888"/><text fill="#000000" font-family="sans-serif" font-size="12" lengthAdjust="spacing" textLength="120" x="254.5" y="3180.1274">&#20174;&#20043;&#21069;&#20445;&#23384;&#30340;&#20013;&#26029;&#36820;&#22238;</text><ellipse cx="314.5" cy="3235.9575" fill="none" rx="11" ry="11" style="stroke:#222222;stroke-width:1.0;"/><ellipse cx="314.5" cy="3235.9575" fill="#222222" rx="6" ry="6" style="stroke:#222222;stroke-width:1.0;"/><line style="stroke:#181818;stroke-width:1.0;" x1="314.5" x2="314.5" y1="147.5625" y2="167.5625"/><polygon fill="#181818" points="310.5,157.5625,314.5,167.5625,318.5,157.5625,314.5,161.5625" style="stroke:#181818;stroke-width:1.0;"/><line style="stroke:#181818;stroke-width:1.0;" x1="314.5" x2="314.5" y1="201.5313" y2="221.5313"/><polygon fill="#181818" points="310.5,211.5313,314.5,221.5313,318.5,211.5313,314.5,215.5313" style="stroke:#181818;stroke-width:1.0;"/><line style="stroke:#181818;stroke-width:1.0;" x1="314.5" x2="314.5" y1="67.2969" y2="113.5938"/><polygon fill="#181818" points="310.5,103.5938,314.5,113.5938,318.5,103.5938,314.5,107.5938" style="stroke:#181818;stroke-width:1.0;"/><line style="stroke:#181818;stroke-width:1.0;" x1="258.5" x2="208.5" y1="325.7969" y2="325.7969"/><line style="stroke:#181818;stroke-width:1.0;" x1="208.5" x2="208.5" y1="325.7969" y2="373.4063"/><polygon fill="#181818" points="204.5,363.4063,208.5,373.4063,212.5,363.4063,208.5,367.4063" style="stroke:#181818;stroke-width:1.0;"/><text fill="#000000" font-family="sans-serif" font-size="11" lengthAdjust="spacing" textLength="29" x="208.5" y="353.4097">&#24773;&#20917;1</text><line style="stroke:#181818;stroke-width:1.0;" x1="370.5" x2="426.5" y1="325.7969" y2="325.7969"/><line style="stroke:#181818;stroke-width:1.0;" x1="426.5" x2="426.5" y1="325.7969" y2="373.4063"/><polygon fill="#181818" points="422.5,363.4063,426.5,373.4063,430.5,363.4063,426.5,367.4063" style="stroke:#181818;stroke-width:1.0;"/><text fill="#000000" font-family="sans-serif" font-size="11" lengthAdjust="spacing" textLength="29" x="426.5" y="353.4097">&#24773;&#20917;3</text><line style="stroke:#181818;stroke-width:1.0;" x1="314.5" x2="314.5" y1="337.7969" y2="349.6667"/><line style="stroke:#181818;stroke-width:1.0;" x1="314.5" x2="320.5" y1="349.6667" y2="349.6667"/><line style="stroke:#181818;stroke-width:1.0;" x1="320.5" x2="320.5" y1="349.6667" y2="373.4063"/><polygon fill="#181818" points="316.5,363.4063,320.5,373.4063,324.5,363.4063,320.5,367.4063" style="stroke:#181818;stroke-width:1.0;"/><text fill="#000000" font-family="sans-serif" font-size="11" lengthAdjust="spacing" textLength="29" x="314.5" y="354.4097">&#24773;&#20917;2</text><line style="stroke:#181818;stroke-width:1.0;" x1="208.5" x2="208.5" y1="407.375" y2="439.375"/><line style="stroke:#181818;stroke-width:1.0;" x1="208.5" x2="302.5" y1="439.375" y2="439.375"/><polygon fill="#181818" points="292.5,435.375,302.5,439.375,292.5,443.375,296.5,439.375" style="stroke:#181818;stroke-width:1.0;"/><line style="stroke:#181818;stroke-width:1.0;" x1="426.5" x2="426.5" y1="407.375" y2="439.375"/><line style="stroke:#181818;stroke-width:1.0;" x1="426.5" x2="326.5" y1="439.375" y2="439.375"/><polygon fill="#181818" points="336.5,435.375,326.5,439.375,336.5,443.375,332.5,439.375" style="stroke:#181818;stroke-width:1.0;"/><line style="stroke:#181818;stroke-width:1.0;" x1="320.5" x2="320.5" y1="407.375" y2="412.375"/><line style="stroke:#181818;stroke-width:1.0;" x1="320.5" x2="314.5" y1="412.375" y2="412.375"/><line style="stroke:#181818;stroke-width:1.0;" x1="314.5" x2="314.5" y1="412.375" y2="427.375"/><polygon fill="#181818" points="310.5,417.375,314.5,427.375,318.5,417.375,314.5,421.375" style="stroke:#181818;stroke-width:1.0;"/><line style="stroke:#181818;stroke-width:1.0;" x1="314.5" x2="314.5" y1="255.5" y2="313.7969"/><polygon fill="#181818" points="310.5,303.7969,314.5,313.7969,318.5,303.7969,314.5,307.7969" style="stroke:#181818;stroke-width:1.0;"/><line style="stroke:#181818;stroke-width:1.0;" x1="314.5" x2="314.5" y1="451.375" y2="483.375"/><polygon fill="#181818" points="310.5,473.375,314.5,483.375,318.5,473.375,314.5,477.375" style="stroke:#181818;stroke-width:1.0;"/><line style="stroke:#181818;stroke-width:1.0;" x1="314.5" x2="314.5" y1="597.6094" y2="617.6094"/><polygon fill="#181818" points="310.5,607.6094,314.5,617.6094,318.5,607.6094,314.5,611.6094" style="stroke:#181818;stroke-width:1.0;"/><line style="stroke:#181818;stroke-width:1.0;" x1="255.5" x2="217.25" y1="683.5781" y2="683.5781"/><line style="stroke:#181818;stroke-width:1.0;" x1="217.25" x2="217.25" y1="683.5781" y2="705.5781"/><polygon fill="#181818" points="213.25,695.5781,217.25,705.5781,221.25,695.5781,217.25,699.5781" style="stroke:#181818;stroke-width:1.0;"/><line style="stroke:#181818;stroke-width:1.0;" x1="373.5" x2="411.75" y1="683.5781" y2="683.5781"/><line style="stroke:#181818;stroke-width:1.0;" x1="411.75" x2="411.75" y1="683.5781" y2="705.5781"/><polygon fill="#181818" points="407.75,695.5781,411.75,705.5781,415.75,695.5781,411.75,699.5781" style="stroke:#181818;stroke-width:1.0;"/><line style="stroke:#181818;stroke-width:1.0;" x1="217.25" x2="217.25" y1="739.5469" y2="757.5469"/><line style="stroke:#181818;stroke-width:1.0;" x1="217.25" x2="302.5" y1="757.5469" y2="757.5469"/><polygon fill="#181818" points="292.5,753.5469,302.5,757.5469,292.5,761.5469,296.5,757.5469" style="stroke:#181818;stroke-width:1.0;"/><line style="stroke:#181818;stroke-width:1.0;" x1="411.75" x2="411.75" y1="739.5469" y2="757.5469"/><line style="stroke:#181818;stroke-width:1.0;" x1="411.75" x2="326.5" y1="757.5469" y2="757.5469"/><polygon fill="#181818" points="336.5,753.5469,326.5,757.5469,336.5,761.5469,332.5,757.5469" style="stroke:#181818;stroke-width:1.0;"/><line style="stroke:#181818;stroke-width:1.0;" x1="314.5" x2="314.5" y1="651.5781" y2="671.5781"/><polygon fill="#181818" points="310.5,661.5781,314.5,671.5781,318.5,661.5781,314.5,665.5781" style="stroke:#181818;stroke-width:1.0;"/><line style="stroke:#181818;stroke-width:1.0;" x1="314.5" x2="314.5" y1="769.5469" y2="789.5469"/><polygon fill="#181818" points="310.5,779.5469,314.5,789.5469,318.5,779.5469,314.5,783.5469" style="stroke:#181818;stroke-width:1.0;"/><line style="stroke:#181818;stroke-width:1.0;" x1="208.5" x2="208.5" y1="1023.4219" y2="1099.4219"/><line style="stroke:#181818;stroke-width:1.0;" x1="208.5" x2="302.5" y1="1099.4219" y2="1099.4219"/><polygon fill="#181818" points="292.5,1095.4219,302.5,1099.4219,292.5,1103.4219,296.5,1099.4219" style="stroke:#181818;stroke-width:1.0;"/><line style="stroke:#181818;stroke-width:1.0;" x1="277.5" x2="208.5" y1="967.4531" y2="967.4531"/><line style="stroke:#181818;stroke-width:1.0;" x1="208.5" x2="208.5" y1="967.4531" y2="989.4531"/><polygon fill="#181818" points="204.5,979.4531,208.5,989.4531,212.5,979.4531,208.5,983.4531" style="stroke:#181818;stroke-width:1.0;"/><line style="stroke:#181818;stroke-width:1.0;" x1="351.5" x2="420.5" y1="967.4531" y2="967.4531"/><line style="stroke:#181818;stroke-width:1.0;" x1="420.5" x2="420.5" y1="967.4531" y2="989.4531"/><polygon fill="#181818" points="416.5,979.4531,420.5,989.4531,424.5,979.4531,420.5,983.4531" style="stroke:#181818;stroke-width:1.0;"/><line style="stroke:#181818;stroke-width:1.0;" x1="420.5" x2="420.5" y1="1023.4219" y2="1028.4219"/><line style="stroke:#181818;stroke-width:1.0;" x1="420.5" x2="314.5" y1="1028.4219" y2="1028.4219"/><line style="stroke:#181818;stroke-width:1.0;" x1="314.5" x2="314.5" y1="1028.4219" y2="1043.4219"/><polygon fill="#181818" points="310.5,1033.4219,314.5,1043.4219,318.5,1033.4219,314.5,1037.4219" style="stroke:#181818;stroke-width:1.0;"/><line style="stroke:#181818;stroke-width:1.0;" x1="314.5" x2="314.5" y1="935.4531" y2="955.4531"/><polygon fill="#181818" points="310.5,945.4531,314.5,955.4531,318.5,945.4531,314.5,949.4531" style="stroke:#181818;stroke-width:1.0;"/><line style="stroke:#181818;stroke-width:1.0;" x1="314.5" x2="314.5" y1="867.5156" y2="887.5156"/><polygon fill="#181818" points="310.5,877.5156,314.5,887.5156,318.5,877.5156,314.5,881.5156" style="stroke:#181818;stroke-width:1.0;"/><line style="stroke:#181818;stroke-width:1.0;" x1="357" x2="549.5" y1="1055.4219" y2="1055.4219"/><polygon fill="#181818" points="545.5,978.4688,549.5,968.4688,553.5,978.4688,549.5,974.4688" style="stroke:#181818;stroke-width:1.0;"/><line style="stroke:#181818;stroke-width:1.0;" x1="549.5" x2="549.5" y1="855.5156" y2="1055.4219"/><line style="stroke:#181818;stroke-width:1.0;" x1="549.5" x2="326.5" y1="855.5156" y2="855.5156"/><polygon fill="#181818" points="336.5,851.5156,326.5,855.5156,336.5,859.5156,332.5,855.5156" style="stroke:#181818;stroke-width:1.0;"/><line style="stroke:#181818;stroke-width:1.0;" x1="314.5" x2="314.5" y1="1067.4219" y2="1087.4219"/><polygon fill="#181818" points="310.5,1077.4219,314.5,1087.4219,318.5,1077.4219,314.5,1081.4219" style="stroke:#181818;stroke-width:1.0;"/><line style="stroke:#181818;stroke-width:1.0;" x1="314.5" x2="314.5" y1="823.5156" y2="843.5156"/><polygon fill="#181818" points="310.5,833.5156,314.5,843.5156,318.5,833.5156,314.5,837.5156" style="stroke:#181818;stroke-width:1.0;"/><line style="stroke:#181818;stroke-width:1.0;" x1="314.5" x2="314.5" y1="1176.8208" y2="1201.2231"/><polygon fill="#181818" points="310.5,1191.2231,314.5,1201.2231,318.5,1191.2231,314.5,1195.2231" style="stroke:#181818;stroke-width:1.0;"/><line style="stroke:#181818;stroke-width:1.0;" x1="368" x2="380" y1="1164.8208" y2="1164.8208"/><polygon fill="#181818" points="376,1208.2075,380,1218.2075,384,1208.2075,380,1212.2075" style="stroke:#181818;stroke-width:1.0;"/><line style="stroke:#181818;stroke-width:1.0;" x1="380" x2="380" y1="1164.8208" y2="1267.1919"/><line style="stroke:#181818;stroke-width:1.0;" x1="380" x2="326.5" y1="1267.1919" y2="1267.1919"/><polygon fill="#181818" points="336.5,1263.1919,326.5,1267.1919,336.5,1271.1919,332.5,1267.1919" style="stroke:#181818;stroke-width:1.0;"/><line style="stroke:#181818;stroke-width:1.0;" x1="314.5" x2="314.5" y1="1235.1919" y2="1255.1919"/><polygon fill="#181818" points="310.5,1245.1919,314.5,1255.1919,318.5,1245.1919,314.5,1249.1919" style="stroke:#181818;stroke-width:1.0;"/><line style="stroke:#181818;stroke-width:1.0;" x1="314.5" x2="314.5" y1="1111.4219" y2="1152.8208"/><polygon fill="#181818" points="310.5,1142.8208,314.5,1152.8208,318.5,1142.8208,314.5,1146.8208" style="stroke:#181818;stroke-width:1.0;"/><text fill="#000000" font-family="sans-serif" font-size="11" lengthAdjust="spacing" textLength="11" x="318.5" y="1132.7266">&#26159;</text><line style="stroke:#181818;stroke-width:1.0;" x1="314.5" x2="314.5" y1="1279.1919" y2="1299.1919"/><polygon fill="#181818" points="310.5,1289.1919,314.5,1299.1919,318.5,1289.1919,314.5,1293.1919" style="stroke:#181818;stroke-width:1.0;"/><line style="stroke:#181818;stroke-width:1.0;" x1="314.5" x2="314.5" y1="517.3438" y2="563.6406"/><polygon fill="#181818" points="310.5,553.6406,314.5,563.6406,318.5,553.6406,314.5,557.6406" style="stroke:#181818;stroke-width:1.0;"/><line style="stroke:#181818;stroke-width:1.0;" x1="410.75" x2="410.75" y1="1469.4263" y2="1489.4263"/><polygon fill="#181818" points="406.75,1479.4263,410.75,1489.4263,414.75,1479.4263,410.75,1483.4263" style="stroke:#181818;stroke-width:1.0;"/><line style="stroke:#181818;stroke-width:1.0;" x1="410.75" x2="410.75" y1="1523.395" y2="1543.395"/><polygon fill="#181818" points="406.75,1533.395,410.75,1543.395,414.75,1533.395,410.75,1537.395" style="stroke:#181818;stroke-width:1.0;"/><line style="stroke:#181818;stroke-width:1.0;" x1="410.75" x2="410.75" y1="1577.3638" y2="1597.3638"/><polygon fill="#181818" points="406.75,1587.3638,410.75,1597.3638,414.75,1587.3638,410.75,1591.3638" style="stroke:#181818;stroke-width:1.0;"/><line style="stroke:#181818;stroke-width:1.0;" x1="410.75" x2="410.75" y1="1631.3325" y2="1651.3325"/><polygon fill="#181818" points="406.75,1641.3325,410.75,1651.3325,414.75,1641.3325,410.75,1645.3325" style="stroke:#181818;stroke-width:1.0;"/><line style="stroke:#181818;stroke-width:1.0;" x1="410.75" x2="410.75" y1="1791.5356" y2="1811.5356"/><polygon fill="#181818" points="406.75,1801.5356,410.75,1811.5356,414.75,1801.5356,410.75,1805.5356" style="stroke:#181818;stroke-width:1.0;"/><line style="stroke:#181818;stroke-width:1.0;" x1="410.75" x2="410.75" y1="1845.5044" y2="1865.5044"/><polygon fill="#181818" points="406.75,1855.5044,410.75,1865.5044,414.75,1855.5044,410.75,1859.5044" style="stroke:#181818;stroke-width:1.0;"/><line style="stroke:#181818;stroke-width:1.0;" x1="410.75" x2="410.75" y1="1899.4731" y2="1919.4731"/><polygon fill="#181818" points="406.75,1909.4731,410.75,1919.4731,414.75,1909.4731,410.75,1913.4731" style="stroke:#181818;stroke-width:1.0;"/><line style="stroke:#181818;stroke-width:1.0;" x1="410.75" x2="410.75" y1="1967.4106" y2="1987.4106"/><polygon fill="#181818" points="406.75,1977.4106,410.75,1987.4106,414.75,1977.4106,410.75,1981.4106" style="stroke:#181818;stroke-width:1.0;"/><line style="stroke:#181818;stroke-width:1.0;" x1="410.75" x2="410.75" y1="2021.3794" y2="2041.3794"/><polygon fill="#181818" points="406.75,2031.3794,410.75,2041.3794,414.75,2031.3794,410.75,2035.3794" style="stroke:#181818;stroke-width:1.0;"/><line style="stroke:#181818;stroke-width:1.0;" x1="410.75" x2="410.75" y1="2075.3481" y2="2095.3481"/><polygon fill="#181818" points="406.75,2085.3481,410.75,2095.3481,414.75,2085.3481,410.75,2089.3481" style="stroke:#181818;stroke-width:1.0;"/><line style="stroke:#181818;stroke-width:1.0;" x1="410.75" x2="410.75" y1="2129.3169" y2="2149.3169"/><polygon fill="#181818" points="406.75,2139.3169,410.75,2149.3169,414.75,2139.3169,410.75,2143.3169" style="stroke:#181818;stroke-width:1.0;"/><line style="stroke:#181818;stroke-width:1.0;" x1="410.75" x2="410.75" y1="2197.2544" y2="2217.2544"/><polygon fill="#181818" points="406.75,2207.2544,410.75,2217.2544,414.75,2207.2544,410.75,2211.2544" style="stroke:#181818;stroke-width:1.0;"/><line style="stroke:#181818;stroke-width:1.0;" x1="410.75" x2="410.75" y1="1685.3013" y2="1743.5981"/><polygon fill="#181818" points="406.75,1733.5981,410.75,1743.5981,414.75,1733.5981,410.75,1737.5981" style="stroke:#181818;stroke-width:1.0;"/><line style="stroke:#181818;stroke-width:1.0;" x1="272.5" x2="218.25" y1="1377.1606" y2="1377.1606"/><line style="stroke:#181818;stroke-width:1.0;" x1="218.25" x2="218.25" y1="1377.1606" y2="1399.1606"/><polygon fill="#181818" points="214.25,1389.1606,218.25,1399.1606,222.25,1389.1606,218.25,1393.1606" style="stroke:#181818;stroke-width:1.0;"/><line style="stroke:#181818;stroke-width:1.0;" x1="356.5" x2="410.75" y1="1377.1606" y2="1377.1606"/><line style="stroke:#181818;stroke-width:1.0;" x1="410.75" x2="410.75" y1="1377.1606" y2="1435.4575"/><polygon fill="#181818" points="406.75,1425.4575,410.75,1435.4575,414.75,1425.4575,410.75,1429.4575" style="stroke:#181818;stroke-width:1.0;"/><line style="stroke:#181818;stroke-width:1.0;" x1="218.25" x2="218.25" y1="1433.1294" y2="2281.2231"/><line style="stroke:#181818;stroke-width:1.0;" x1="218.25" x2="302.5" y1="2281.2231" y2="2281.2231"/><polygon fill="#181818" points="292.5,2277.2231,302.5,2281.2231,292.5,2285.2231,296.5,2281.2231" style="stroke:#181818;stroke-width:1.0;"/><line style="stroke:#181818;stroke-width:1.0;" x1="410.75" x2="410.75" y1="2251.2231" y2="2281.2231"/><line style="stroke:#181818;stroke-width:1.0;" x1="410.75" x2="326.5" y1="2281.2231" y2="2281.2231"/><polygon fill="#181818" points="336.5,2277.2231,326.5,2281.2231,336.5,2285.2231,332.5,2281.2231" style="stroke:#181818;stroke-width:1.0;"/><line style="stroke:#181818;stroke-width:1.0;" x1="314.5" x2="314.5" y1="1333.1606" y2="1365.1606"/><polygon fill="#181818" points="310.5,1355.1606,314.5,1365.1606,318.5,1355.1606,314.5,1359.1606" style="stroke:#181818;stroke-width:1.0;"/><line style="stroke:#181818;stroke-width:1.0;" x1="314.5" x2="314.5" y1="2373.4888" y2="2393.4888"/><polygon fill="#181818" points="310.5,2383.4888,314.5,2393.4888,318.5,2383.4888,314.5,2387.4888" style="stroke:#181818;stroke-width:1.0;"/><line style="stroke:#181818;stroke-width:1.0;" x1="314.5" x2="314.5" y1="2427.4575" y2="2447.4575"/><polygon fill="#181818" points="310.5,2437.4575,314.5,2447.4575,318.5,2437.4575,314.5,2441.4575" style="stroke:#181818;stroke-width:1.0;"/><line style="stroke:#181818;stroke-width:1.0;" x1="314.5" x2="314.5" y1="2481.4263" y2="2501.4263"/><polygon fill="#181818" points="310.5,2491.4263,314.5,2501.4263,318.5,2491.4263,314.5,2495.4263" style="stroke:#181818;stroke-width:1.0;"/><line style="stroke:#181818;stroke-width:1.0;" x1="124.5" x2="124.5" y1="2624.9731" y2="2644.9731"/><polygon fill="#181818" points="120.5,2634.9731,124.5,2644.9731,128.5,2634.9731,124.5,2638.9731" style="stroke:#181818;stroke-width:1.0;"/><line style="stroke:#181818;stroke-width:1.0;" x1="124.5" x2="124.5" y1="2678.9419" y2="2698.9419"/><polygon fill="#181818" points="120.5,2688.9419,124.5,2698.9419,128.5,2688.9419,124.5,2692.9419" style="stroke:#181818;stroke-width:1.0;"/><line style="stroke:#181818;stroke-width:1.0;" x1="124.5" x2="124.5" y1="2732.9106" y2="2752.9106"/><polygon fill="#181818" points="120.5,2742.9106,124.5,2752.9106,128.5,2742.9106,124.5,2746.9106" style="stroke:#181818;stroke-width:1.0;"/><line style="stroke:#181818;stroke-width:1.0;" x1="231.5" x2="124.5" y1="2568.1997" y2="2568.1997"/><line style="stroke:#181818;stroke-width:1.0;" x1="124.5" x2="124.5" y1="2568.1997" y2="2591.0044"/><polygon fill="#181818" points="120.5,2581.0044,124.5,2591.0044,128.5,2581.0044,124.5,2585.0044" style="stroke:#181818;stroke-width:1.0;"/><line style="stroke:#181818;stroke-width:1.0;" x1="397.5" x2="504.5" y1="2568.1997" y2="2568.1997"/><line style="stroke:#181818;stroke-width:1.0;" x1="504.5" x2="504.5" y1="2568.1997" y2="2591.0044"/><polygon fill="#181818" points="500.5,2581.0044,504.5,2591.0044,508.5,2581.0044,504.5,2585.0044" style="stroke:#181818;stroke-width:1.0;"/><line style="stroke:#181818;stroke-width:1.0;" x1="124.5" x2="124.5" y1="2800.8481" y2="2818.8481"/><line style="stroke:#181818;stroke-width:1.0;" x1="124.5" x2="302.5" y1="2818.8481" y2="2818.8481"/><polygon fill="#181818" points="292.5,2814.8481,302.5,2818.8481,292.5,2822.8481,296.5,2818.8481" style="stroke:#181818;stroke-width:1.0;"/><line style="stroke:#181818;stroke-width:1.0;" x1="504.5" x2="504.5" y1="2624.9731" y2="2818.8481"/><line style="stroke:#181818;stroke-width:1.0;" x1="504.5" x2="326.5" y1="2818.8481" y2="2818.8481"/><polygon fill="#181818" points="336.5,2814.8481,326.5,2818.8481,336.5,2822.8481,332.5,2818.8481" style="stroke:#181818;stroke-width:1.0;"/><line style="stroke:#181818;stroke-width:1.0;" x1="314.5" x2="314.5" y1="2535.395" y2="2555.395"/><polygon fill="#181818" points="310.5,2545.395,314.5,2555.395,318.5,2545.395,314.5,2549.395" style="stroke:#181818;stroke-width:1.0;"/><line style="stroke:#181818;stroke-width:1.0;" x1="314.5" x2="314.5" y1="2293.2231" y2="2339.52"/><polygon fill="#181818" points="310.5,2329.52,314.5,2339.52,318.5,2329.52,314.5,2333.52" style="stroke:#181818;stroke-width:1.0;"/><line style="stroke:#181818;stroke-width:1.0;" x1="314.5" x2="314.5" y1="2923.1138" y2="2943.1138"/><polygon fill="#181818" points="310.5,2933.1138,314.5,2943.1138,318.5,2933.1138,314.5,2937.1138" style="stroke:#181818;stroke-width:1.0;"/><line style="stroke:#181818;stroke-width:1.0;" x1="314.5" x2="314.5" y1="2977.0825" y2="2997.0825"/><polygon fill="#181818" points="310.5,2987.0825,314.5,2997.0825,318.5,2987.0825,314.5,2991.0825" style="stroke:#181818;stroke-width:1.0;"/><line style="stroke:#181818;stroke-width:1.0;" x1="314.5" x2="314.5" y1="3031.0513" y2="3051.0513"/><polygon fill="#181818" points="310.5,3041.0513,314.5,3051.0513,318.5,3041.0513,314.5,3045.0513" style="stroke:#181818;stroke-width:1.0;"/><line style="stroke:#181818;stroke-width:1.0;" x1="314.5" x2="314.5" y1="3085.02" y2="3105.02"/><polygon fill="#181818" points="310.5,3095.02,314.5,3105.02,318.5,3095.02,314.5,3099.02" style="stroke:#181818;stroke-width:1.0;"/><line style="stroke:#181818;stroke-width:1.0;" x1="314.5" x2="314.5" y1="3138.9888" y2="3158.9888"/><polygon fill="#181818" points="310.5,3148.9888,314.5,3158.9888,318.5,3148.9888,314.5,3152.9888" style="stroke:#181818;stroke-width:1.0;"/><line style="stroke:#181818;stroke-width:1.0;" x1="314.5" x2="314.5" y1="2830.8481" y2="2889.145"/><polygon fill="#181818" points="310.5,2879.145,314.5,2889.145,318.5,2879.145,314.5,2883.145" style="stroke:#181818;stroke-width:1.0;"/><line style="stroke:#181818;stroke-width:1.0;" x1="314.5" x2="314.5" y1="3192.9575" y2="3224.9575"/><polygon fill="#181818" points="310.5,3214.9575,314.5,3224.9575,318.5,3214.9575,314.5,3218.9575" style="stroke:#181818;stroke-width:1.0;"/></g></svg>