<?xml version="1.0" encoding="us-ascii" standalone="no"?><svg xmlns="http://www.w3.org/2000/svg" xmlns:xlink="http://www.w3.org/1999/xlink" contentStyleType="text/css" height="1087px" preserveAspectRatio="none" style="width:785px;height:1087px;background:#FFFFFF;" version="1.1" viewBox="0 0 785 1087" width="785px" zoomAndPan="magnify"><defs/><g><text fill="#000000" font-family="sans-serif" font-size="14" font-weight="bold" lengthAdjust="spacing" textLength="254" x="264.25" y="32.9951">&#20219;&#21153;&#32456;&#27490;&#27969;&#31243; (terminate_process)</text><ellipse cx="312.75" cy="57.2969" fill="#222222" rx="10" ry="10" style="stroke:#222222;stroke-width:1.0;"/><rect fill="#F1F1F1" height="47.9375" rx="12.5" ry="12.5" style="stroke:#181818;stroke-width:0.5;" width="147" x="239.25" y="87.2969"/><text fill="#000000" font-family="sans-serif" font-size="12" lengthAdjust="spacing" textLength="93" x="249.25" y="108.4355">syscall &#32456;&#27490;&#21151;&#33021;</text><text fill="#000000" font-family="sans-serif" font-size="12" lengthAdjust="spacing" textLength="127" x="249.25" y="122.4043">(terminate_process)</text><rect fill="none" height="153.3516" style="stroke:#000000;stroke-width:1.5;" width="345" x="219.25" y="145.2344"/><path d="M313.25,145.2344 L313.25,154.5313 L303.25,164.5313 L219.25,164.5313 " fill="none" style="stroke:#000000;stroke-width:1.5;"/><text fill="#000000" font-family="sans-serif" font-size="14" lengthAdjust="spacing" textLength="84" x="222.25" y="159.2295">&#32456;&#27490;&#20219;&#21153;&#20934;&#22791;</text><path d="M416.25,185.3672 L416.25,201.5 L396.25,205.5 L416.25,209.5 L416.25,225.6328 A0,0 0 0 0 416.25,225.6328 L554.25,225.6328 A0,0 0 0 0 554.25,225.6328 L554.25,195.3672 L544.25,185.3672 L416.25,185.3672 A0,0 0 0 0 416.25,185.3672 " fill="#FEFFDD" style="stroke:#181818;stroke-width:0.5;"/><path d="M544.25,185.3672 L544.25,195.3672 L554.25,195.3672 L544.25,185.3672 " fill="#FEFFDD" style="stroke:#181818;stroke-width:0.5;"/><text fill="#000000" font-family="sans-serif" font-size="13" lengthAdjust="spacing" textLength="117" x="422.25" y="202.4341">&#38450;&#27490;&#23450;&#26102;&#22120;&#20013;&#26029;&#24178;&#25200;</text><text fill="#000000" font-family="sans-serif" font-size="13" lengthAdjust="spacing" textLength="91" x="422.25" y="217.5669">&#32456;&#27490;&#36807;&#31243;&#30340;&#25191;&#34892;</text><rect fill="#F1F1F1" height="47.9375" rx="12.5" ry="12.5" style="stroke:#181818;stroke-width:0.5;" width="167" x="229.25" y="181.5313"/><text fill="#000000" font-family="sans-serif" font-size="12" lengthAdjust="spacing" textLength="147" x="239.25" y="202.6699">&#35774;&#32622;APIC&#23450;&#26102;&#22120;&#26412;&#22320;&#21521;&#37327;&#34920;</text><text fill="#000000" font-family="sans-serif" font-size="12" lengthAdjust="spacing" textLength="108" x="239.25" y="216.6387">&#23631;&#34109;&#26102;&#38388;&#29255;&#21040;&#26399;&#20013;&#26029;</text><path d="M375.25,246.3203 L375.25,262.4531 L355.25,266.4531 L375.25,270.4531 L375.25,286.5859 A0,0 0 0 0 375.25,286.5859 L545.25,286.5859 A0,0 0 0 0 545.25,286.5859 L545.25,256.3203 L535.25,246.3203 L375.25,246.3203 A0,0 0 0 0 375.25,246.3203 " fill="#FEFFDD" style="stroke:#181818;stroke-width:0.5;"/><path d="M535.25,246.3203 L535.25,256.3203 L545.25,256.3203 L535.25,246.3203 " fill="#FEFFDD" style="stroke:#181818;stroke-width:0.5;"/><text fill="#000000" font-family="sans-serif" font-size="13" lengthAdjust="spacing" textLength="112" x="381.25" y="263.3872">&#20445;&#25252;swapgs&#25351;&#20196;&#23545;</text><text fill="#000000" font-family="sans-serif" font-size="13" lengthAdjust="spacing" textLength="149" x="381.25" y="278.52">&#36991;&#20813;&#20013;&#26029;&#23548;&#33268;GS&#25351;&#21521;&#38169;&#35823;</text><rect fill="#F1F1F1" height="33.9688" rx="12.5" ry="12.5" style="stroke:#181818;stroke-width:0.5;" width="85" x="270.25" y="249.4688"/><text fill="#000000" font-family="sans-serif" font-size="12" lengthAdjust="spacing" textLength="65" x="280.25" y="270.6074">CLI&#20851;&#38381;&#20013;&#26029;</text><rect fill="none" height="421.9531" style="stroke:#000000;stroke-width:1.5;" width="182" x="221.75" y="308.5859"/><path d="M315.75,308.5859 L315.75,317.8828 L305.75,327.8828 L221.75,327.8828 " fill="none" style="stroke:#000000;stroke-width:1.5;"/><text fill="#000000" font-family="sans-serif" font-size="14" lengthAdjust="spacing" textLength="84" x="224.75" y="322.5811">&#20219;&#21153;&#29366;&#24577;&#28165;&#29702;</text><rect fill="#F1F1F1" height="47.9375" rx="12.5" ry="12.5" style="stroke:#181818;stroke-width:0.5;" width="140" x="242.75" y="344.8828"/><text fill="#000000" font-family="sans-serif" font-size="12" lengthAdjust="spacing" textLength="100" x="252.75" y="366.0215">swapgs&#35753;GS&#25351;&#21521;</text><text fill="#000000" font-family="sans-serif" font-size="12" lengthAdjust="spacing" textLength="120" x="252.75" y="379.9902">&#24403;&#21069;&#22788;&#29702;&#22120;&#19987;&#23646;&#23384;&#20648;&#21306;</text><rect fill="#F1F1F1" height="47.9375" rx="12.5" ry="12.5" style="stroke:#181818;stroke-width:0.5;" width="140" x="242.75" y="412.8203"/><text fill="#000000" font-family="sans-serif" font-size="12" lengthAdjust="spacing" textLength="104" x="252.75" y="433.959">&#20174;&#19987;&#23646;&#23384;&#20648;&#21306;&#20559;&#31227;8</text><text fill="#000000" font-family="sans-serif" font-size="12" lengthAdjust="spacing" textLength="120" x="252.75" y="447.9277">&#33719;&#21462;&#24403;&#21069;&#20219;&#21153;PCB&#22320;&#22336;</text><rect fill="#F1F1F1" height="47.9375" rx="12.5" ry="12.5" style="stroke:#181818;stroke-width:0.5;" width="136" x="244.75" y="480.7578"/><text fill="#000000" font-family="sans-serif" font-size="12" lengthAdjust="spacing" textLength="116" x="254.75" y="501.8965">&#20462;&#25913;&#20219;&#21153;PCB&#29366;&#24577;&#20026;2</text><text fill="#000000" font-family="sans-serif" font-size="12" lengthAdjust="spacing" textLength="58" x="254.75" y="515.8652">(&#32456;&#27490;&#29366;&#24577;)</text><rect fill="#F1F1F1" height="47.9375" rx="12.5" ry="12.5" style="stroke:#181818;stroke-width:0.5;" width="136" x="244.75" y="548.6953"/><text fill="#000000" font-family="sans-serif" font-size="12" lengthAdjust="spacing" textLength="116" x="254.75" y="569.834">&#28165;&#38646;&#19987;&#23646;&#23384;&#20648;&#21306;&#20559;&#31227;0</text><text fill="#000000" font-family="sans-serif" font-size="12" lengthAdjust="spacing" textLength="90" x="254.75" y="583.8027">(3&#29305;&#26435;&#32423;&#26632;&#25351;&#38024;)</text><rect fill="#F1F1F1" height="47.9375" rx="12.5" ry="12.5" style="stroke:#181818;stroke-width:0.5;" width="162" x="231.75" y="616.6328"/><text fill="#000000" font-family="sans-serif" font-size="12" lengthAdjust="spacing" textLength="142" x="241.75" y="637.7715">RSP = &#19987;&#23646;&#23384;&#20648;&#21306;&#20559;&#31227;24</text><text fill="#000000" font-family="sans-serif" font-size="12" lengthAdjust="spacing" textLength="118" x="241.75" y="651.7402">(&#20999;&#25442;&#21040;&#22788;&#29702;&#22120;&#22266;&#26377;&#26632;)</text><rect fill="#F1F1F1" height="33.9688" rx="12.5" ry="12.5" style="stroke:#181818;stroke-width:0.5;" width="132" x="246.75" y="684.5703"/><text fill="#000000" font-family="sans-serif" font-size="12" lengthAdjust="spacing" textLength="112" x="256.75" y="705.709">swapgs&#24674;&#22797;GS&#21407;&#20540;</text><rect fill="none" height="293.5703" style="stroke:#000000;stroke-width:1.5;" width="763.5" x="11" y="740.5391"/><path d="M91,740.5391 L91,749.8359 L81,759.8359 L11,759.8359 " fill="none" style="stroke:#000000;stroke-width:1.5;"/><text fill="#000000" font-family="sans-serif" font-size="14" lengthAdjust="spacing" textLength="70" x="14" y="754.5342">&#23547;&#25214;&#26032;&#20219;&#21153;</text><rect fill="#F1F1F1" height="47.9375" rx="12.5" ry="12.5" style="stroke:#181818;stroke-width:0.5;" width="198" x="213.75" y="776.8359"/><text fill="#000000" font-family="sans-serif" font-size="12" lengthAdjust="spacing" textLength="178" x="223.75" y="797.9746">&#35843;&#29992;search_for_a_ready_task</text><text fill="#000000" font-family="sans-serif" font-size="12" lengthAdjust="spacing" textLength="72" x="223.75" y="811.9434">&#23547;&#25214;&#23601;&#32490;&#20219;&#21153;</text><polygon fill="#F1F1F1" points="276.75,844.7734,348.75,844.7734,360.75,856.7734,348.75,868.7734,276.75,868.7734,264.75,856.7734,276.75,844.7734" style="stroke:#181818;stroke-width:0.5;"/><text fill="#000000" font-family="sans-serif" font-size="11" lengthAdjust="spacing" textLength="72" x="276.75" y="860.5815">&#25214;&#21040;&#23601;&#32490;&#20219;&#21153;?</text><text fill="#000000" font-family="sans-serif" font-size="11" lengthAdjust="spacing" textLength="11" x="253.75" y="854.1792">&#26159;</text><text fill="#000000" font-family="sans-serif" font-size="11" lengthAdjust="spacing" textLength="78" x="360.75" y="854.1792">&#21542; - &#26410;&#25214;&#21040;&#20219;&#21153;</text><path d="M246,882.6094 L246,898.7422 L226,902.7422 L246,906.7422 L246,922.875 A0,0 0 0 0 246,922.875 L423,922.875 A0,0 0 0 0 423,922.875 L423,892.6094 L413,882.6094 L246,882.6094 A0,0 0 0 0 246,882.6094 " fill="#FEFFDD" style="stroke:#181818;stroke-width:0.5;"/><path d="M413,882.6094 L413,892.6094 L423,892.6094 L413,882.6094 " fill="#FEFFDD" style="stroke:#181818;stroke-width:0.5;"/><text fill="#000000" font-family="sans-serif" font-size="13" lengthAdjust="spacing" textLength="65" x="252" y="899.6763">&#19968;&#21435;&#19981;&#22238;&#22836;</text><text fill="#000000" font-family="sans-serif" font-size="13" lengthAdjust="spacing" textLength="156" x="252" y="914.8091">&#30452;&#25509;&#36827;&#20837;&#26032;&#20219;&#21153;&#25191;&#34892;&#19978;&#19979;&#25991;</text><rect fill="#F1F1F1" height="47.9375" rx="12.5" ry="12.5" style="stroke:#181818;stroke-width:0.5;" width="203" x="23" y="878.7734"/><text fill="#000000" font-family="sans-serif" font-size="12" lengthAdjust="spacing" textLength="183" x="33" y="899.9121">JMP&#21040;resume_execute_a_task</text><text fill="#000000" font-family="sans-serif" font-size="12" lengthAdjust="spacing" textLength="96" x="33" y="913.8809">&#24674;&#22797;&#24182;&#25191;&#34892;&#26032;&#20219;&#21153;</text><rect fill="#F1F1F1" height="33.9688" rx="12.5" ry="12.5" style="stroke:#181818;stroke-width:0.5;" width="116" x="443" y="878.7734"/><text fill="#000000" font-family="sans-serif" font-size="12" lengthAdjust="spacing" textLength="96" x="453" y="899.9121">&#20351;&#29992;&#22788;&#29702;&#22120;&#22266;&#26377;&#26632;</text><path d="M572.5,936.7109 L572.5,960.4102 L552.5,964.4102 L572.5,968.4102 L572.5,992.1094 A0,0 0 0 0 572.5,992.1094 L762.5,992.1094 A0,0 0 0 0 762.5,992.1094 L762.5,946.7109 L752.5,936.7109 L572.5,936.7109 A0,0 0 0 0 572.5,936.7109 " fill="#FEFFDD" style="stroke:#181818;stroke-width:0.5;"/><path d="M752.5,936.7109 L752.5,946.7109 L762.5,946.7109 L752.5,936.7109 " fill="#FEFFDD" style="stroke:#181818;stroke-width:0.5;"/><text fill="#000000" font-family="sans-serif" font-size="13" lengthAdjust="spacing" textLength="130" x="578.5" y="953.7778">&#36820;&#22238;&#21040;&#26368;&#36817;&#19968;&#27425;&#26410;&#25191;&#34892;</text><text fill="#000000" font-family="sans-serif" font-size="13" lengthAdjust="spacing" textLength="169" x="578.5" y="968.9106">&#20219;&#21153;&#26102;&#30340;&#29366;&#24577;&#65288;&#22914;&#20572;&#26426;&#29366;&#24577;&#65289;</text><text fill="#000000" font-family="sans-serif" font-size="13" lengthAdjust="spacing" textLength="143" x="578.5" y="984.0435">&#20013;&#26029;&#36820;&#22238;&#22320;&#22336;&#22312;&#22266;&#26377;&#26632;&#20013;</text><rect fill="#F1F1F1" height="33.9688" rx="12.5" ry="12.5" style="stroke:#181818;stroke-width:0.5;" width="103" x="449.5" y="947.4258"/><text fill="#000000" font-family="sans-serif" font-size="12" lengthAdjust="spacing" textLength="83" x="459.5" y="968.5645">&#25191;&#34892;IRETQ&#25351;&#20196;</text><polygon fill="#F1F1F1" points="312.75,998.1094,324.75,1010.1094,312.75,1022.1094,300.75,1010.1094,312.75,998.1094" style="stroke:#181818;stroke-width:0.5;"/><ellipse cx="312.75" cy="1065.1094" fill="none" rx="11" ry="11" style="stroke:#222222;stroke-width:1.0;"/><ellipse cx="312.75" cy="1065.1094" fill="#222222" rx="6" ry="6" style="stroke:#222222;stroke-width:1.0;"/><line style="stroke:#181818;stroke-width:1.0;" x1="312.75" x2="312.75" y1="67.2969" y2="87.2969"/><polygon fill="#181818" points="308.75,77.2969,312.75,87.2969,316.75,77.2969,312.75,81.2969" style="stroke:#181818;stroke-width:1.0;"/><line style="stroke:#181818;stroke-width:1.0;" x1="312.75" x2="312.75" y1="229.4688" y2="249.4688"/><polygon fill="#181818" points="308.75,239.4688,312.75,249.4688,316.75,239.4688,312.75,243.4688" style="stroke:#181818;stroke-width:1.0;"/><line style="stroke:#181818;stroke-width:1.0;" x1="312.75" x2="312.75" y1="135.2344" y2="181.5313"/><polygon fill="#181818" points="308.75,171.5313,312.75,181.5313,316.75,171.5313,312.75,175.5313" style="stroke:#181818;stroke-width:1.0;"/><line style="stroke:#181818;stroke-width:1.0;" x1="312.75" x2="312.75" y1="392.8203" y2="412.8203"/><polygon fill="#181818" points="308.75,402.8203,312.75,412.8203,316.75,402.8203,312.75,406.8203" style="stroke:#181818;stroke-width:1.0;"/><line style="stroke:#181818;stroke-width:1.0;" x1="312.75" x2="312.75" y1="460.7578" y2="480.7578"/><polygon fill="#181818" points="308.75,470.7578,312.75,480.7578,316.75,470.7578,312.75,474.7578" style="stroke:#181818;stroke-width:1.0;"/><line style="stroke:#181818;stroke-width:1.0;" x1="312.75" x2="312.75" y1="528.6953" y2="548.6953"/><polygon fill="#181818" points="308.75,538.6953,312.75,548.6953,316.75,538.6953,312.75,542.6953" style="stroke:#181818;stroke-width:1.0;"/><line style="stroke:#181818;stroke-width:1.0;" x1="312.75" x2="312.75" y1="596.6328" y2="616.6328"/><polygon fill="#181818" points="308.75,606.6328,312.75,616.6328,316.75,606.6328,312.75,610.6328" style="stroke:#181818;stroke-width:1.0;"/><line style="stroke:#181818;stroke-width:1.0;" x1="312.75" x2="312.75" y1="664.5703" y2="684.5703"/><polygon fill="#181818" points="308.75,674.5703,312.75,684.5703,316.75,674.5703,312.75,678.5703" style="stroke:#181818;stroke-width:1.0;"/><line style="stroke:#181818;stroke-width:1.0;" x1="312.75" x2="312.75" y1="283.4375" y2="344.8828"/><polygon fill="#181818" points="308.75,334.8828,312.75,344.8828,316.75,334.8828,312.75,338.8828" style="stroke:#181818;stroke-width:1.0;"/><line style="stroke:#181818;stroke-width:1.0;" x1="501" x2="501" y1="912.7422" y2="947.4258"/><polygon fill="#181818" points="497,937.4258,501,947.4258,505,937.4258,501,941.4258" style="stroke:#181818;stroke-width:1.0;"/><line style="stroke:#181818;stroke-width:1.0;" x1="264.75" x2="124.5" y1="856.7734" y2="856.7734"/><line style="stroke:#181818;stroke-width:1.0;" x1="124.5" x2="124.5" y1="856.7734" y2="878.7734"/><polygon fill="#181818" points="120.5,868.7734,124.5,878.7734,128.5,868.7734,124.5,872.7734" style="stroke:#181818;stroke-width:1.0;"/><line style="stroke:#181818;stroke-width:1.0;" x1="360.75" x2="501" y1="856.7734" y2="856.7734"/><line style="stroke:#181818;stroke-width:1.0;" x1="501" x2="501" y1="856.7734" y2="878.7734"/><polygon fill="#181818" points="497,868.7734,501,878.7734,505,868.7734,501,872.7734" style="stroke:#181818;stroke-width:1.0;"/><line style="stroke:#181818;stroke-width:1.0;" x1="124.5" x2="124.5" y1="926.7109" y2="1010.1094"/><line style="stroke:#181818;stroke-width:1.0;" x1="124.5" x2="300.75" y1="1010.1094" y2="1010.1094"/><polygon fill="#181818" points="290.75,1006.1094,300.75,1010.1094,290.75,1014.1094,294.75,1010.1094" style="stroke:#181818;stroke-width:1.0;"/><line style="stroke:#181818;stroke-width:1.0;" x1="501" x2="501" y1="981.3945" y2="1010.1094"/><line style="stroke:#181818;stroke-width:1.0;" x1="501" x2="324.75" y1="1010.1094" y2="1010.1094"/><polygon fill="#181818" points="334.75,1006.1094,324.75,1010.1094,334.75,1014.1094,330.75,1010.1094" style="stroke:#181818;stroke-width:1.0;"/><line style="stroke:#181818;stroke-width:1.0;" x1="312.75" x2="312.75" y1="824.7734" y2="844.7734"/><polygon fill="#181818" points="308.75,834.7734,312.75,844.7734,316.75,834.7734,312.75,838.7734" style="stroke:#181818;stroke-width:1.0;"/><line style="stroke:#181818;stroke-width:1.0;" x1="312.75" x2="312.75" y1="718.5391" y2="776.8359"/><polygon fill="#181818" points="308.75,766.8359,312.75,776.8359,316.75,766.8359,312.75,770.8359" style="stroke:#181818;stroke-width:1.0;"/><line style="stroke:#181818;stroke-width:1.0;" x1="312.75" x2="312.75" y1="1022.1094" y2="1054.1094"/><polygon fill="#181818" points="308.75,1044.1094,312.75,1054.1094,316.75,1044.1094,312.75,1048.1094" style="stroke:#181818;stroke-width:1.0;"/></g></svg>