<?xml version="1.0" encoding="us-ascii" standalone="no"?><svg xmlns="http://www.w3.org/2000/svg" xmlns:xlink="http://www.w3.org/1999/xlink" contentStyleType="text/css" height="1992px" preserveAspectRatio="none" style="width:721px;height:1992px;background:#FFFFFF;" version="1.1" viewBox="0 0 721 1992" width="721px" zoomAndPan="magnify"><defs/><g><text fill="#000000" font-family="sans-serif" font-size="14" font-weight="bold" lengthAdjust="spacing" textLength="210" x="254" y="32.9951">&#22810;&#32447;&#31243;&#20219;&#21153;&#21019;&#24314;&#19982;&#35843;&#24230;&#26680;&#24515;&#27969;&#31243;</text><ellipse cx="347.5" cy="57.2969" fill="#222222" rx="10" ry="10" style="stroke:#222222;stroke-width:1.0;"/><rect fill="#F1F1F1" height="33.9688" rx="12.5" ry="12.5" style="stroke:#181818;stroke-width:0.5;" width="159" x="268" y="87.2969"/><text fill="#000000" font-family="sans-serif" font-size="12" lengthAdjust="spacing" textLength="139" x="278" y="108.4355">&#20869;&#26680;&#20174;init&#26631;&#21495;&#24320;&#22987;&#21021;&#22987;&#21270;</text><rect fill="#F1F1F1" height="47.9375" rx="12.5" ry="12.5" style="stroke:#181818;stroke-width:0.5;" width="165" x="265" y="141.2656"/><text fill="#000000" font-family="sans-serif" font-size="12" lengthAdjust="spacing" textLength="145" x="275" y="162.4043">&#35843;&#29992;create_process&#20363;&#31243;</text><text fill="#000000" font-family="sans-serif" font-size="12" lengthAdjust="spacing" textLength="120" x="275" y="176.373">&#21019;&#24314;&#26032;&#20219;&#21153;&#21450;&#20854;&#20027;&#32447;&#31243;</text><rect fill="none" height="761.5859" style="stroke:#000000;stroke-width:1.5;" width="484.5" x="225.5" y="199.2031"/><path d="M524.5,199.2031 L524.5,208.5 L514.5,218.5 L225.5,218.5 " fill="none" style="stroke:#000000;stroke-width:1.5;"/><text fill="#000000" font-family="sans-serif" font-size="14" lengthAdjust="spacing" textLength="289" x="228.5" y="213.1982">create_process&#20363;&#31243; (&#21019;&#24314;&#20219;&#21153;&#23481;&#22120;&#21644;&#20027;&#32447;&#31243;)</text><rect fill="#F1F1F1" height="33.9688" rx="12.5" ry="12.5" style="stroke:#181818;stroke-width:0.5;" width="174" x="260.5" y="235.5"/><text fill="#000000" font-family="sans-serif" font-size="12" lengthAdjust="spacing" textLength="154" x="270.5" y="256.6387">&#20026;&#20219;&#21153;&#25511;&#21046;&#22359;(PCB)&#20998;&#37197;&#20869;&#23384;</text><path d="M479.5,279.4688 L479.5,303.168 L459.5,307.168 L479.5,311.168 L479.5,334.8672 A0,0 0 0 0 479.5,334.8672 L679.5,334.8672 A0,0 0 0 0 679.5,334.8672 L679.5,289.4688 L669.5,279.4688 L479.5,279.4688 A0,0 0 0 0 479.5,279.4688 " fill="#FEFFDD" style="stroke:#181818;stroke-width:0.5;"/><path d="M669.5,279.4688 L669.5,289.4688 L679.5,289.4688 L669.5,279.4688 " fill="#FEFFDD" style="stroke:#181818;stroke-width:0.5;"/><text fill="#000000" font-family="sans-serif" font-size="13" font-weight="bold" lengthAdjust="spacing" textLength="28" x="485.5" y="296.5356">&#37325;&#28857;</text><text fill="#000000" font-family="sans-serif" font-size="13" lengthAdjust="spacing" textLength="104" x="513.5" y="296.5356">&#65306;&#20219;&#21153;&#20316;&#20026;&#23481;&#22120;&#65292;</text><text fill="#000000" font-family="sans-serif" font-size="13" lengthAdjust="spacing" textLength="179" x="485.5" y="311.6685">&#24517;&#39035;&#33267;&#23569;&#21253;&#21547;&#19968;&#20010;&#32447;&#31243;(&#20027;&#32447;&#31243;)</text><text fill="#000000" font-family="sans-serif" font-size="13" lengthAdjust="spacing" textLength="52" x="485.5" y="326.8013">&#25165;&#33021;&#25191;&#34892;</text><rect fill="#F1F1F1" height="33.9688" rx="12.5" ry="12.5" style="stroke:#181818;stroke-width:0.5;" width="224" x="235.5" y="290.1836"/><text fill="#000000" font-family="sans-serif" font-size="12" lengthAdjust="spacing" textLength="12" x="245.5" y="311.3223">&#20026;</text><text fill="#000000" font-family="sans-serif" font-size="12" font-weight="bold" lengthAdjust="spacing" textLength="39" x="257.5" y="311.3223">&#20027;&#32447;&#31243;</text><text fill="#000000" font-family="sans-serif" font-size="12" lengthAdjust="spacing" textLength="153" x="296.5" y="311.3223">&#30340;&#32447;&#31243;&#25511;&#21046;&#22359;(TCB)&#20998;&#37197;&#20869;&#23384;</text><rect fill="#F1F1F1" height="33.9688" rx="12.5" ry="12.5" style="stroke:#181818;stroke-width:0.5;" width="187" x="254" y="354.8672"/><text fill="#000000" font-family="sans-serif" font-size="12" lengthAdjust="spacing" textLength="167" x="264" y="376.0059">&#23558;&#20027;&#32447;&#31243;TCB&#22320;&#22336;&#30331;&#35760;&#21040;PCB&#20013;</text><rect fill="#F1F1F1" height="33.9688" rx="12.5" ry="12.5" style="stroke:#181818;stroke-width:0.5;" width="194" x="250.5" y="408.8359"/><text fill="#000000" font-family="sans-serif" font-size="12" lengthAdjust="spacing" textLength="174" x="260.5" y="429.9746">&#21019;&#24314;&#26032;&#20219;&#21153;&#30340;&#22320;&#22336;&#31354;&#38388;(4&#32423;&#22836;&#34920;)</text><rect fill="#F1F1F1" height="33.9688" rx="12.5" ry="12.5" style="stroke:#181818;stroke-width:0.5;" width="179" x="258" y="462.8047"/><text fill="#000000" font-family="sans-serif" font-size="12" lengthAdjust="spacing" textLength="12" x="268" y="483.9434">&#20026;</text><text fill="#000000" font-family="sans-serif" font-size="12" font-weight="bold" lengthAdjust="spacing" textLength="39" x="280" y="483.9434">&#20027;&#32447;&#31243;</text><text fill="#000000" font-family="sans-serif" font-size="12" lengthAdjust="spacing" textLength="108" x="319" y="483.9434">&#20998;&#37197;&#20869;&#26680;&#26632;&#19982;&#29992;&#25143;&#26632;</text><rect fill="#F1F1F1" height="33.9688" rx="12.5" ry="12.5" style="stroke:#181818;stroke-width:0.5;" width="162" x="266.5" y="516.7734"/><text fill="#000000" font-family="sans-serif" font-size="12" lengthAdjust="spacing" textLength="142" x="276.5" y="537.9121">&#35774;&#32622;&#20219;&#21153;&#29366;&#24577;&#20026;&#8220;&#24537;&#8221;(&#36816;&#34892;)</text><path d="M445,567.5938 L445,583.7266 L425,587.7266 L445,591.7266 L445,607.8594 A0,0 0 0 0 445,607.8594 L624,607.8594 A0,0 0 0 0 624,607.8594 L624,577.5938 L614,567.5938 L445,567.5938 A0,0 0 0 0 445,567.5938 " fill="#FEFFDD" style="stroke:#181818;stroke-width:0.5;"/><path d="M614,567.5938 L614,577.5938 L624,577.5938 L614,567.5938 " fill="#FEFFDD" style="stroke:#181818;stroke-width:0.5;"/><text fill="#000000" font-family="sans-serif" font-size="13" font-weight="bold" lengthAdjust="spacing" textLength="28" x="451" y="584.6606">&#37325;&#28857;</text><text fill="#000000" font-family="sans-serif" font-size="13" lengthAdjust="spacing" textLength="130" x="479" y="584.6606">&#65306;&#32447;&#31243;&#29366;&#24577;&#20915;&#23450;&#35843;&#24230;&#65292;</text><text fill="#000000" font-family="sans-serif" font-size="13" lengthAdjust="spacing" textLength="78" x="451" y="599.7935">&#32780;&#38750;&#20219;&#21153;&#29366;&#24577;</text><rect fill="#F1F1F1" height="33.9688" rx="12.5" ry="12.5" style="stroke:#181818;stroke-width:0.5;" width="155" x="270" y="570.7422"/><text fill="#000000" font-family="sans-serif" font-size="12" lengthAdjust="spacing" textLength="24" x="280" y="591.8809">&#35774;&#32622;</text><text fill="#000000" font-family="sans-serif" font-size="12" font-weight="bold" lengthAdjust="spacing" textLength="39" x="304" y="591.8809">&#20027;&#32447;&#31243;</text><text fill="#000000" font-family="sans-serif" font-size="12" lengthAdjust="spacing" textLength="72" x="343" y="591.8809">&#29366;&#24577;&#20026;&#8220;&#23601;&#32490;&#8221;</text><rect fill="#F1F1F1" height="33.9688" rx="12.5" ry="12.5" style="stroke:#181818;stroke-width:0.5;" width="128" x="283.5" y="627.8594"/><text fill="#000000" font-family="sans-serif" font-size="12" lengthAdjust="spacing" textLength="108" x="293.5" y="648.998">&#20174;&#30913;&#30424;&#21152;&#36733;&#29992;&#25143;&#31243;&#24207;</text><path d="M470,678.6797 L470,694.8125 L450,698.8125 L470,702.8125 L470,718.9453 A0,0 0 0 0 470,718.9453 L700,718.9453 A0,0 0 0 0 700,718.9453 L700,688.6797 L690,678.6797 L470,678.6797 A0,0 0 0 0 470,678.6797 " fill="#FEFFDD" style="stroke:#181818;stroke-width:0.5;"/><path d="M690,678.6797 L690,688.6797 L700,688.6797 L690,678.6797 " fill="#FEFFDD" style="stroke:#181818;stroke-width:0.5;"/><text fill="#000000" font-family="sans-serif" font-size="13" font-weight="bold" lengthAdjust="spacing" textLength="28" x="476" y="695.7466">&#37325;&#28857;</text><text fill="#000000" font-family="sans-serif" font-size="13" lengthAdjust="spacing" textLength="181" x="504" y="695.7466">&#65306;&#25191;&#34892;&#20837;&#21475;&#28857;&#20174;PCB&#31227;&#33267;TCB&#65292;</text><text fill="#000000" font-family="sans-serif" font-size="13" lengthAdjust="spacing" textLength="117" x="476" y="710.8794">&#22240;&#20026;&#25191;&#34892;&#20027;&#20307;&#26159;&#32447;&#31243;</text><rect fill="#F1F1F1" height="33.9688" rx="12.5" ry="12.5" style="stroke:#181818;stroke-width:0.5;" width="205" x="245" y="681.8281"/><text fill="#000000" font-family="sans-serif" font-size="12" lengthAdjust="spacing" textLength="12" x="255" y="702.9668">&#22312;</text><text fill="#000000" font-family="sans-serif" font-size="12" font-weight="bold" lengthAdjust="spacing" textLength="65" x="267" y="702.9668">&#20027;&#32447;&#31243;TCB</text><text fill="#000000" font-family="sans-serif" font-size="12" lengthAdjust="spacing" textLength="108" x="332" y="702.9668">&#20013;&#30331;&#35760;&#25191;&#34892;&#20837;&#21475;&#22320;&#22336;</text><rect fill="#F1F1F1" height="47.9375" rx="12.5" ry="12.5" style="stroke:#181818;stroke-width:0.5;" width="193" x="251" y="738.9453"/><text fill="#000000" font-family="sans-serif" font-size="12" lengthAdjust="spacing" textLength="12" x="261" y="760.084">&#22312;</text><text fill="#000000" font-family="sans-serif" font-size="12" font-weight="bold" lengthAdjust="spacing" textLength="65" x="273" y="760.084">&#20027;&#32447;&#31243;TCB</text><text fill="#000000" font-family="sans-serif" font-size="12" lengthAdjust="spacing" textLength="96" x="338" y="760.084">&#20013;&#30331;&#35760;&#27573;&#36873;&#25321;&#23376;&#12289;</text><text fill="#000000" font-family="sans-serif" font-size="12" lengthAdjust="spacing" textLength="108" x="261" y="774.0527">&#26102;&#38388;&#29255;&#31561;&#25191;&#34892;&#19978;&#19979;&#25991;</text><rect fill="#F1F1F1" height="33.9688" rx="12.5" ry="12.5" style="stroke:#181818;stroke-width:0.5;" width="128" x="283.5" y="806.8828"/><text fill="#000000" font-family="sans-serif" font-size="12" lengthAdjust="spacing" textLength="108" x="293.5" y="828.0215">&#29983;&#25104;&#20219;&#21153;ID&#21644;&#32447;&#31243;ID</text><rect fill="#F1F1F1" height="33.9688" rx="12.5" ry="12.5" style="stroke:#181818;stroke-width:0.5;" width="188" x="253.5" y="860.8516"/><text fill="#000000" font-family="sans-serif" font-size="12" lengthAdjust="spacing" textLength="168" x="263.5" y="881.9902">&#23558;&#26032;&#20219;&#21153;PCB&#21152;&#20837;&#31995;&#32479;&#20840;&#23616;&#38142;&#34920;</text><rect fill="#F1F1F1" height="33.9688" rx="12.5" ry="12.5" style="stroke:#181818;stroke-width:0.5;" width="207" x="244" y="914.8203"/><text fill="#000000" font-family="sans-serif" font-size="12" lengthAdjust="spacing" textLength="96" x="254" y="935.959">&#21521;&#25152;&#26377;&#22788;&#29702;&#22120;&#24191;&#25773;</text><text fill="#000000" font-family="sans-serif" font-size="12" font-weight="bold" lengthAdjust="spacing" textLength="91" x="350" y="935.959">&#26032;&#32447;&#31243;&#35748;&#39046;&#20013;&#26029;</text><rect fill="#F1F1F1" height="47.9375" rx="12.5" ry="12.5" style="stroke:#181818;stroke-width:0.5;" width="124" x="285.5" y="980.7891"/><text fill="#000000" font-family="sans-serif" font-size="12" lengthAdjust="spacing" textLength="104" x="295.5" y="1001.9277">BSP/AP&#22788;&#29702;&#22120;&#21709;&#24212;</text><text fill="#000000" font-family="sans-serif" font-size="12" lengthAdjust="spacing" textLength="84" x="295.5" y="1015.8965">&#26032;&#32447;&#31243;&#35748;&#39046;&#20013;&#26029;</text><rect fill="none" height="556.3438" style="stroke:#000000;stroke-width:1.5;" width="582" x="11" y="1038.7266"/><path d="M189,1038.7266 L189,1048.0234 L179,1058.0234 L11,1058.0234 " fill="none" style="stroke:#000000;stroke-width:1.5;"/><text fill="#000000" font-family="sans-serif" font-size="14" lengthAdjust="spacing" textLength="168" x="14" y="1052.7217">&#20013;&#26029;&#22788;&#29702;&#20989;&#25968; (&#35843;&#24230;&#19982;&#25191;&#34892;)</text><polygon fill="#F1F1F1" points="271,1075.0234,424,1075.0234,436,1087.0234,424,1099.0234,271,1099.0234,259,1087.0234,271,1075.0234" style="stroke:#181818;stroke-width:0.5;"/><text fill="#000000" font-family="sans-serif" font-size="11" lengthAdjust="spacing" textLength="153" x="271" y="1090.8315">&#24403;&#21069;&#22788;&#29702;&#22120;&#27491;&#22312;&#25191;&#34892;&#20219;&#21153;/&#32447;&#31243;?</text><text fill="#000000" font-family="sans-serif" font-size="11" lengthAdjust="spacing" textLength="11" x="248" y="1084.4292">&#26159;</text><text fill="#000000" font-family="sans-serif" font-size="11" lengthAdjust="spacing" textLength="11" x="436" y="1084.4292">&#21542;</text><rect fill="#F1F1F1" height="47.9375" rx="12.5" ry="12.5" style="stroke:#181818;stroke-width:0.5;" width="104" x="197" y="1109.0234"/><text fill="#000000" font-family="sans-serif" font-size="12" lengthAdjust="spacing" textLength="76" x="207" y="1130.1621">&#30452;&#25509;&#20013;&#26029;&#36820;&#22238;;</text><text fill="#000000" font-family="sans-serif" font-size="12" lengthAdjust="spacing" textLength="84" x="207" y="1144.1309">&#32487;&#32493;&#25191;&#34892;&#21407;&#32447;&#31243;</text><rect fill="#F1F1F1" height="47.9375" rx="12.5" ry="12.5" style="stroke:#181818;stroke-width:0.5;" width="213" x="339.5" y="1109.0234"/><text fill="#000000" font-family="sans-serif" font-size="12" lengthAdjust="spacing" textLength="193" x="349.5" y="1130.1621">&#35843;&#29992;search_for_a_ready_thread</text><text fill="#000000" font-family="sans-serif" font-size="12" font-weight="bold" lengthAdjust="spacing" textLength="78" x="349.5" y="1144.1309">&#23547;&#25214;&#23601;&#32490;&#32447;&#31243;</text><polygon fill="#F1F1F1" points="347.5,1162.9609,359.5,1174.9609,347.5,1186.9609,335.5,1174.9609,347.5,1162.9609" style="stroke:#181818;stroke-width:0.5;"/><polygon fill="#F1F1F1" points="311.5,1206.9609,383.5,1206.9609,395.5,1218.9609,383.5,1230.9609,311.5,1230.9609,299.5,1218.9609,311.5,1206.9609" style="stroke:#181818;stroke-width:0.5;"/><text fill="#000000" font-family="sans-serif" font-size="11" lengthAdjust="spacing" textLength="72" x="311.5" y="1222.769">&#25214;&#21040;&#23601;&#32490;&#32447;&#31243;?</text><text fill="#000000" font-family="sans-serif" font-size="11" lengthAdjust="spacing" textLength="11" x="288.5" y="1216.3667">&#26159;</text><text fill="#000000" font-family="sans-serif" font-size="11" lengthAdjust="spacing" textLength="11" x="395.5" y="1216.3667">&#21542;</text><rect fill="none" height="312.1094" style="stroke:#000000;stroke-width:1.5;" width="462" x="23" y="1240.9609"/><path d="M244,1240.9609 L244,1250.2578 L234,1260.2578 L23,1260.2578 " fill="none" style="stroke:#000000;stroke-width:1.5;"/><text fill="#000000" font-family="sans-serif" font-size="14" lengthAdjust="spacing" textLength="211" x="26" y="1254.9561">resume_execute_a_thread&#20363;&#31243;</text><rect fill="#F1F1F1" height="33.9688" rx="12.5" ry="12.5" style="stroke:#181818;stroke-width:0.5;" width="246" x="33" y="1277.2578"/><text fill="#000000" font-family="sans-serif" font-size="12" lengthAdjust="spacing" textLength="226" x="43" y="1298.3965">&#20999;&#25442;&#21040;&#32447;&#31243;&#25152;&#23646;&#20219;&#21153;&#30340;&#22320;&#22336;&#31354;&#38388;(&#21152;&#36733;CR3)</text><path d="M252,1335.0625 L252,1351.1953 L232,1355.1953 L252,1359.1953 L252,1375.3281 A0,0 0 0 0 252,1375.3281 L475,1375.3281 A0,0 0 0 0 475,1375.3281 L475,1345.0625 L465,1335.0625 L252,1335.0625 A0,0 0 0 0 252,1335.0625 " fill="#FEFFDD" style="stroke:#181818;stroke-width:0.5;"/><path d="M465,1335.0625 L465,1345.0625 L475,1345.0625 L465,1335.0625 " fill="#FEFFDD" style="stroke:#181818;stroke-width:0.5;"/><text fill="#000000" font-family="sans-serif" font-size="13" font-weight="bold" lengthAdjust="spacing" textLength="28" x="258" y="1352.1294">&#37325;&#28857;</text><text fill="#000000" font-family="sans-serif" font-size="13" lengthAdjust="spacing" textLength="104" x="286" y="1352.1294">&#65306;&#22788;&#29702;&#22120;&#21516;&#26102;&#35760;&#24405;</text><text fill="#000000" font-family="sans-serif" font-size="13" lengthAdjust="spacing" textLength="202" x="258" y="1367.2622">&#24403;&#21069;&#20219;&#21153;(&#29615;&#22659;)&#21644;&#24403;&#21069;&#32447;&#31243;(&#25191;&#34892;&#27969;)</text><rect fill="#F1F1F1" height="47.9375" rx="12.5" ry="12.5" style="stroke:#181818;stroke-width:0.5;" width="152" x="80" y="1331.2266"/><text fill="#000000" font-family="sans-serif" font-size="12" lengthAdjust="spacing" textLength="132" x="90" y="1352.3652">&#22312;&#22788;&#29702;&#22120;&#19987;&#23646;&#23384;&#20648;&#21306;&#35774;&#32622;</text><text fill="#000000" font-family="sans-serif" font-size="12" font-weight="bold" lengthAdjust="spacing" textLength="53" x="90" y="1366.334">&#24403;&#21069;PCB</text><text fill="#000000" font-family="sans-serif" font-size="12" lengthAdjust="spacing" textLength="12" x="143" y="1366.334">&#21644;</text><text fill="#000000" font-family="sans-serif" font-size="12" font-weight="bold" lengthAdjust="spacing" textLength="52" x="155" y="1366.334">&#24403;&#21069;TCB</text><rect fill="#F1F1F1" height="33.9688" rx="12.5" ry="12.5" style="stroke:#181818;stroke-width:0.5;" width="202" x="55" y="1399.1641"/><text fill="#000000" font-family="sans-serif" font-size="12" lengthAdjust="spacing" textLength="12" x="65" y="1420.3027">&#20174;</text><text fill="#000000" font-family="sans-serif" font-size="12" font-weight="bold" lengthAdjust="spacing" textLength="26" x="77" y="1420.3027">TCB</text><text fill="#000000" font-family="sans-serif" font-size="12" lengthAdjust="spacing" textLength="144" x="103" y="1420.3027">&#20013;&#24674;&#22797;&#32447;&#31243;&#30340;&#23492;&#23384;&#22120;&#19978;&#19979;&#25991;</text><rect fill="#F1F1F1" height="33.9688" rx="12.5" ry="12.5" style="stroke:#181818;stroke-width:0.5;" width="153" x="79.5" y="1453.1328"/><text fill="#000000" font-family="sans-serif" font-size="12" lengthAdjust="spacing" textLength="133" x="89.5" y="1474.2715">&#35774;&#32622;APIC&#23450;&#26102;&#22120;(&#26102;&#38388;&#29255;)</text><rect fill="#F1F1F1" height="33.9688" rx="12.5" ry="12.5" style="stroke:#181818;stroke-width:0.5;" width="217" x="47.5" y="1507.1016"/><text fill="#000000" font-family="sans-serif" font-size="12" lengthAdjust="spacing" textLength="89" x="57.5" y="1528.2402">&#25191;&#34892;iretq&#25351;&#20196;&#65292;</text><text fill="#000000" font-family="sans-serif" font-size="12" font-weight="bold" lengthAdjust="spacing" textLength="108" x="146.5" y="1528.2402">&#24320;&#22987;/&#24674;&#22797;&#32447;&#31243;&#25191;&#34892;</text><rect fill="#F1F1F1" height="33.9688" rx="12.5" ry="12.5" style="stroke:#181818;stroke-width:0.5;" width="68" x="505" y="1240.9609"/><text fill="#000000" font-family="sans-serif" font-size="12" lengthAdjust="spacing" textLength="48" x="515" y="1262.0996">&#20013;&#26029;&#36820;&#22238;</text><polygon fill="#F1F1F1" points="347.5,1559.0703,359.5,1571.0703,347.5,1583.0703,335.5,1571.0703,347.5,1559.0703" style="stroke:#181818;stroke-width:0.5;"/><rect fill="none" height="376.1094" style="stroke:#000000;stroke-width:1.5;" width="457" x="107.75" y="1605.0703"/><path d="M243.75,1605.0703 L243.75,1614.3672 L233.75,1624.3672 L107.75,1624.3672 " fill="none" style="stroke:#000000;stroke-width:1.5;"/><text fill="#000000" font-family="sans-serif" font-size="14" lengthAdjust="spacing" textLength="126" x="110.75" y="1619.0654">&#26102;&#38388;&#29255;&#21040;&#26399;&#20013;&#26029;&#22788;&#29702;</text><rect fill="#F1F1F1" height="33.9688" rx="12.5" ry="12.5" style="stroke:#181818;stroke-width:0.5;" width="131" x="282" y="1641.3672"/><text fill="#000000" font-family="sans-serif" font-size="12" lengthAdjust="spacing" textLength="111" x="292" y="1662.5059">Local APIC&#21457;&#20986;&#20013;&#26029;</text><rect fill="#F1F1F1" height="33.9688" rx="12.5" ry="12.5" style="stroke:#181818;stroke-width:0.5;" width="249" x="223" y="1695.3359"/><text fill="#000000" font-family="sans-serif" font-size="12" lengthAdjust="spacing" textLength="24" x="233" y="1716.4746">&#20445;&#23384;</text><text fill="#000000" font-family="sans-serif" font-size="12" font-weight="bold" lengthAdjust="spacing" textLength="52" x="257" y="1716.4746">&#24403;&#21069;&#32447;&#31243;</text><text fill="#000000" font-family="sans-serif" font-size="12" lengthAdjust="spacing" textLength="153" x="309" y="1716.4746">&#30340;&#19978;&#19979;&#25991;(&#23492;&#23384;&#22120;&#31561;)&#21040;&#20854;TCB</text><rect fill="#F1F1F1" height="33.9688" rx="12.5" ry="12.5" style="stroke:#181818;stroke-width:0.5;" width="164" x="265.5" y="1749.3047"/><text fill="#000000" font-family="sans-serif" font-size="12" lengthAdjust="spacing" textLength="144" x="275.5" y="1770.4434">&#35774;&#32622;&#24403;&#21069;&#32447;&#31243;&#29366;&#24577;&#20026;&#8220;&#23601;&#32490;&#8221;</text><rect fill="#F1F1F1" height="33.9688" rx="12.5" ry="12.5" style="stroke:#181818;stroke-width:0.5;" width="297" x="199" y="1803.2734"/><text fill="#000000" font-family="sans-serif" font-size="12" lengthAdjust="spacing" textLength="277" x="209" y="1824.4121">&#35843;&#29992;search_for_a_ready_thread&#23547;&#25214;&#19979;&#19968;&#20010;&#32447;&#31243;</text><polygon fill="#F1F1F1" points="311.5,1857.2422,383.5,1857.2422,395.5,1869.2422,383.5,1881.2422,311.5,1881.2422,299.5,1869.2422,311.5,1857.2422" style="stroke:#181818;stroke-width:0.5;"/><text fill="#000000" font-family="sans-serif" font-size="11" lengthAdjust="spacing" textLength="72" x="311.5" y="1873.0503">&#25214;&#21040;&#23601;&#32490;&#32447;&#31243;?</text><text fill="#000000" font-family="sans-serif" font-size="11" lengthAdjust="spacing" textLength="11" x="288.5" y="1866.6479">&#26159;</text><text fill="#000000" font-family="sans-serif" font-size="11" lengthAdjust="spacing" textLength="11" x="395.5" y="1866.6479">&#21542;</text><rect fill="#F1F1F1" height="47.9375" rx="12.5" ry="12.5" style="stroke:#181818;stroke-width:0.5;" width="221" x="127.75" y="1891.2422"/><text fill="#000000" font-family="sans-serif" font-size="12" lengthAdjust="spacing" textLength="201" x="137.75" y="1912.3809">&#36339;&#36716;&#21040;resume_execute_a_thread</text><text fill="#000000" font-family="sans-serif" font-size="12" lengthAdjust="spacing" textLength="60" x="137.75" y="1926.3496">&#25191;&#34892;&#26032;&#32447;&#31243;</text><rect fill="#F1F1F1" height="33.9688" rx="12.5" ry="12.5" style="stroke:#181818;stroke-width:0.5;" width="176" x="368.75" y="1891.2422"/><text fill="#000000" font-family="sans-serif" font-size="12" lengthAdjust="spacing" textLength="156" x="378.75" y="1912.3809">&#24674;&#22797;&#21407;&#32447;&#31243;&#19978;&#19979;&#25991;&#24182;&#20013;&#26029;&#36820;&#22238;</text><polygon fill="#F1F1F1" points="347.5,1945.1797,359.5,1957.1797,347.5,1969.1797,335.5,1957.1797,347.5,1945.1797" style="stroke:#181818;stroke-width:0.5;"/><line style="stroke:#181818;stroke-width:1.0;" x1="347.5" x2="347.5" y1="67.2969" y2="87.2969"/><polygon fill="#181818" points="343.5,77.2969,347.5,87.2969,351.5,77.2969,347.5,81.2969" style="stroke:#181818;stroke-width:1.0;"/><line style="stroke:#181818;stroke-width:1.0;" x1="347.5" x2="347.5" y1="121.2656" y2="141.2656"/><polygon fill="#181818" points="343.5,131.2656,347.5,141.2656,351.5,131.2656,347.5,135.2656" style="stroke:#181818;stroke-width:1.0;"/><line style="stroke:#181818;stroke-width:1.0;" x1="347.5" x2="347.5" y1="269.4688" y2="290.1836"/><polygon fill="#181818" points="343.5,280.1836,347.5,290.1836,351.5,280.1836,347.5,284.1836" style="stroke:#181818;stroke-width:1.0;"/><line style="stroke:#181818;stroke-width:1.0;" x1="347.5" x2="347.5" y1="324.1523" y2="354.8672"/><polygon fill="#181818" points="343.5,344.8672,347.5,354.8672,351.5,344.8672,347.5,348.8672" style="stroke:#181818;stroke-width:1.0;"/><line style="stroke:#181818;stroke-width:1.0;" x1="347.5" x2="347.5" y1="388.8359" y2="408.8359"/><polygon fill="#181818" points="343.5,398.8359,347.5,408.8359,351.5,398.8359,347.5,402.8359" style="stroke:#181818;stroke-width:1.0;"/><line style="stroke:#181818;stroke-width:1.0;" x1="347.5" x2="347.5" y1="442.8047" y2="462.8047"/><polygon fill="#181818" points="343.5,452.8047,347.5,462.8047,351.5,452.8047,347.5,456.8047" style="stroke:#181818;stroke-width:1.0;"/><line style="stroke:#181818;stroke-width:1.0;" x1="347.5" x2="347.5" y1="496.7734" y2="516.7734"/><polygon fill="#181818" points="343.5,506.7734,347.5,516.7734,351.5,506.7734,347.5,510.7734" style="stroke:#181818;stroke-width:1.0;"/><line style="stroke:#181818;stroke-width:1.0;" x1="347.5" x2="347.5" y1="550.7422" y2="570.7422"/><polygon fill="#181818" points="343.5,560.7422,347.5,570.7422,351.5,560.7422,347.5,564.7422" style="stroke:#181818;stroke-width:1.0;"/><line style="stroke:#181818;stroke-width:1.0;" x1="347.5" x2="347.5" y1="604.7109" y2="627.8594"/><polygon fill="#181818" points="343.5,617.8594,347.5,627.8594,351.5,617.8594,347.5,621.8594" style="stroke:#181818;stroke-width:1.0;"/><line style="stroke:#181818;stroke-width:1.0;" x1="347.5" x2="347.5" y1="661.8281" y2="681.8281"/><polygon fill="#181818" points="343.5,671.8281,347.5,681.8281,351.5,671.8281,347.5,675.8281" style="stroke:#181818;stroke-width:1.0;"/><line style="stroke:#181818;stroke-width:1.0;" x1="347.5" x2="347.5" y1="715.7969" y2="738.9453"/><polygon fill="#181818" points="343.5,728.9453,347.5,738.9453,351.5,728.9453,347.5,732.9453" style="stroke:#181818;stroke-width:1.0;"/><line style="stroke:#181818;stroke-width:1.0;" x1="347.5" x2="347.5" y1="786.8828" y2="806.8828"/><polygon fill="#181818" points="343.5,796.8828,347.5,806.8828,351.5,796.8828,347.5,800.8828" style="stroke:#181818;stroke-width:1.0;"/><line style="stroke:#181818;stroke-width:1.0;" x1="347.5" x2="347.5" y1="840.8516" y2="860.8516"/><polygon fill="#181818" points="343.5,850.8516,347.5,860.8516,351.5,850.8516,347.5,854.8516" style="stroke:#181818;stroke-width:1.0;"/><line style="stroke:#181818;stroke-width:1.0;" x1="347.5" x2="347.5" y1="894.8203" y2="914.8203"/><polygon fill="#181818" points="343.5,904.8203,347.5,914.8203,351.5,904.8203,347.5,908.8203" style="stroke:#181818;stroke-width:1.0;"/><line style="stroke:#181818;stroke-width:1.0;" x1="347.5" x2="347.5" y1="189.2031" y2="235.5"/><polygon fill="#181818" points="343.5,225.5,347.5,235.5,351.5,225.5,347.5,229.5" style="stroke:#181818;stroke-width:1.0;"/><line style="stroke:#181818;stroke-width:1.0;" x1="347.5" x2="347.5" y1="948.7891" y2="980.7891"/><polygon fill="#181818" points="343.5,970.7891,347.5,980.7891,351.5,970.7891,347.5,974.7891" style="stroke:#181818;stroke-width:1.0;"/><line style="stroke:#181818;stroke-width:1.0;" x1="259" x2="249" y1="1087.0234" y2="1087.0234"/><line style="stroke:#181818;stroke-width:1.0;" x1="249" x2="249" y1="1087.0234" y2="1109.0234"/><polygon fill="#181818" points="245,1099.0234,249,1109.0234,253,1099.0234,249,1103.0234" style="stroke:#181818;stroke-width:1.0;"/><line style="stroke:#181818;stroke-width:1.0;" x1="436" x2="446" y1="1087.0234" y2="1087.0234"/><line style="stroke:#181818;stroke-width:1.0;" x1="446" x2="446" y1="1087.0234" y2="1109.0234"/><polygon fill="#181818" points="442,1099.0234,446,1109.0234,450,1099.0234,446,1103.0234" style="stroke:#181818;stroke-width:1.0;"/><line style="stroke:#181818;stroke-width:1.0;" x1="249" x2="249" y1="1156.9609" y2="1174.9609"/><line style="stroke:#181818;stroke-width:1.0;" x1="249" x2="335.5" y1="1174.9609" y2="1174.9609"/><polygon fill="#181818" points="325.5,1170.9609,335.5,1174.9609,325.5,1178.9609,329.5,1174.9609" style="stroke:#181818;stroke-width:1.0;"/><line style="stroke:#181818;stroke-width:1.0;" x1="446" x2="446" y1="1156.9609" y2="1174.9609"/><line style="stroke:#181818;stroke-width:1.0;" x1="446" x2="359.5" y1="1174.9609" y2="1174.9609"/><polygon fill="#181818" points="369.5,1170.9609,359.5,1174.9609,369.5,1178.9609,365.5,1174.9609" style="stroke:#181818;stroke-width:1.0;"/><line style="stroke:#181818;stroke-width:1.0;" x1="156" x2="156" y1="1311.2266" y2="1331.2266"/><polygon fill="#181818" points="152,1321.2266,156,1331.2266,160,1321.2266,156,1325.2266" style="stroke:#181818;stroke-width:1.0;"/><line style="stroke:#181818;stroke-width:1.0;" x1="156" x2="156" y1="1379.1641" y2="1399.1641"/><polygon fill="#181818" points="152,1389.1641,156,1399.1641,160,1389.1641,156,1393.1641" style="stroke:#181818;stroke-width:1.0;"/><line style="stroke:#181818;stroke-width:1.0;" x1="156" x2="156" y1="1433.1328" y2="1453.1328"/><polygon fill="#181818" points="152,1443.1328,156,1453.1328,160,1443.1328,156,1447.1328" style="stroke:#181818;stroke-width:1.0;"/><line style="stroke:#181818;stroke-width:1.0;" x1="156" x2="156" y1="1487.1016" y2="1507.1016"/><polygon fill="#181818" points="152,1497.1016,156,1507.1016,160,1497.1016,156,1501.1016" style="stroke:#181818;stroke-width:1.0;"/><line style="stroke:#181818;stroke-width:1.0;" x1="299.5" x2="156" y1="1218.9609" y2="1218.9609"/><line style="stroke:#181818;stroke-width:1.0;" x1="156" x2="156" y1="1218.9609" y2="1277.2578"/><polygon fill="#181818" points="152,1267.2578,156,1277.2578,160,1267.2578,156,1271.2578" style="stroke:#181818;stroke-width:1.0;"/><line style="stroke:#181818;stroke-width:1.0;" x1="395.5" x2="539" y1="1218.9609" y2="1218.9609"/><line style="stroke:#181818;stroke-width:1.0;" x1="539" x2="539" y1="1218.9609" y2="1240.9609"/><polygon fill="#181818" points="535,1230.9609,539,1240.9609,543,1230.9609,539,1234.9609" style="stroke:#181818;stroke-width:1.0;"/><line style="stroke:#181818;stroke-width:1.0;" x1="156" x2="156" y1="1541.0703" y2="1571.0703"/><line style="stroke:#181818;stroke-width:1.0;" x1="156" x2="335.5" y1="1571.0703" y2="1571.0703"/><polygon fill="#181818" points="325.5,1567.0703,335.5,1571.0703,325.5,1575.0703,329.5,1571.0703" style="stroke:#181818;stroke-width:1.0;"/><line style="stroke:#181818;stroke-width:1.0;" x1="539" x2="539" y1="1274.9297" y2="1571.0703"/><line style="stroke:#181818;stroke-width:1.0;" x1="539" x2="359.5" y1="1571.0703" y2="1571.0703"/><polygon fill="#181818" points="369.5,1567.0703,359.5,1571.0703,369.5,1575.0703,365.5,1571.0703" style="stroke:#181818;stroke-width:1.0;"/><line style="stroke:#181818;stroke-width:1.0;" x1="347.5" x2="347.5" y1="1186.9609" y2="1206.9609"/><polygon fill="#181818" points="343.5,1196.9609,347.5,1206.9609,351.5,1196.9609,347.5,1200.9609" style="stroke:#181818;stroke-width:1.0;"/><line style="stroke:#181818;stroke-width:1.0;" x1="347.5" x2="347.5" y1="1028.7266" y2="1075.0234"/><polygon fill="#181818" points="343.5,1065.0234,347.5,1075.0234,351.5,1065.0234,347.5,1069.0234" style="stroke:#181818;stroke-width:1.0;"/><line style="stroke:#181818;stroke-width:1.0;" x1="347.5" x2="347.5" y1="1675.3359" y2="1695.3359"/><polygon fill="#181818" points="343.5,1685.3359,347.5,1695.3359,351.5,1685.3359,347.5,1689.3359" style="stroke:#181818;stroke-width:1.0;"/><line style="stroke:#181818;stroke-width:1.0;" x1="347.5" x2="347.5" y1="1729.3047" y2="1749.3047"/><polygon fill="#181818" points="343.5,1739.3047,347.5,1749.3047,351.5,1739.3047,347.5,1743.3047" style="stroke:#181818;stroke-width:1.0;"/><line style="stroke:#181818;stroke-width:1.0;" x1="347.5" x2="347.5" y1="1783.2734" y2="1803.2734"/><polygon fill="#181818" points="343.5,1793.2734,347.5,1803.2734,351.5,1793.2734,347.5,1797.2734" style="stroke:#181818;stroke-width:1.0;"/><line style="stroke:#181818;stroke-width:1.0;" x1="299.5" x2="238.25" y1="1869.2422" y2="1869.2422"/><line style="stroke:#181818;stroke-width:1.0;" x1="238.25" x2="238.25" y1="1869.2422" y2="1891.2422"/><polygon fill="#181818" points="234.25,1881.2422,238.25,1891.2422,242.25,1881.2422,238.25,1885.2422" style="stroke:#181818;stroke-width:1.0;"/><line style="stroke:#181818;stroke-width:1.0;" x1="395.5" x2="456.75" y1="1869.2422" y2="1869.2422"/><line style="stroke:#181818;stroke-width:1.0;" x1="456.75" x2="456.75" y1="1869.2422" y2="1891.2422"/><polygon fill="#181818" points="452.75,1881.2422,456.75,1891.2422,460.75,1881.2422,456.75,1885.2422" style="stroke:#181818;stroke-width:1.0;"/><line style="stroke:#181818;stroke-width:1.0;" x1="238.25" x2="238.25" y1="1939.1797" y2="1957.1797"/><line style="stroke:#181818;stroke-width:1.0;" x1="238.25" x2="335.5" y1="1957.1797" y2="1957.1797"/><polygon fill="#181818" points="325.5,1953.1797,335.5,1957.1797,325.5,1961.1797,329.5,1957.1797" style="stroke:#181818;stroke-width:1.0;"/><line style="stroke:#181818;stroke-width:1.0;" x1="456.75" x2="456.75" y1="1925.2109" y2="1957.1797"/><line style="stroke:#181818;stroke-width:1.0;" x1="456.75" x2="359.5" y1="1957.1797" y2="1957.1797"/><polygon fill="#181818" points="369.5,1953.1797,359.5,1957.1797,369.5,1961.1797,365.5,1957.1797" style="stroke:#181818;stroke-width:1.0;"/><line style="stroke:#181818;stroke-width:1.0;" x1="347.5" x2="347.5" y1="1837.2422" y2="1857.2422"/><polygon fill="#181818" points="343.5,1847.2422,347.5,1857.2422,351.5,1847.2422,347.5,1851.2422" style="stroke:#181818;stroke-width:1.0;"/><line style="stroke:#181818;stroke-width:1.0;" x1="347.5" x2="347.5" y1="1583.0703" y2="1641.3672"/><polygon fill="#181818" points="343.5,1631.3672,347.5,1641.3672,351.5,1631.3672,347.5,1635.3672" style="stroke:#181818;stroke-width:1.0;"/></g></svg>