<?xml version="1.0" encoding="us-ascii" standalone="no"?><svg xmlns="http://www.w3.org/2000/svg" xmlns:xlink="http://www.w3.org/1999/xlink" contentStyleType="text/css" height="1394px" preserveAspectRatio="none" style="width:506px;height:1394px;background:#FFFFFF;" version="1.1" viewBox="0 0 506 1394" width="506px" zoomAndPan="magnify"><defs/><g><text fill="#000000" font-family="sans-serif" font-size="14" font-weight="bold" lengthAdjust="spacing" textLength="150" x="176.5" y="32.9951">&#21019;&#24314;&#29992;&#25143;&#32447;&#31243;&#35814;&#32454;&#27969;&#31243;</text><ellipse cx="152" cy="57.2969" fill="#222222" rx="10" ry="10" style="stroke:#222222;stroke-width:1.0;"/><rect fill="#F1F1F1" height="33.9688" rx="12.5" ry="12.5" style="stroke:#181818;stroke-width:0.5;" width="224" x="40" y="87.2969"/><text fill="#000000" font-family="sans-serif" font-size="12" lengthAdjust="spacing" textLength="204" x="50" y="108.4355">&#29992;&#25143;&#31243;&#24207;&#36890;&#36807;&#31995;&#32479;&#35843;&#29992;&#35831;&#27714;&#21019;&#24314;&#26032;&#32447;&#31243;</text><rect fill="none" height="1197.8364" style="stroke:#000000;stroke-width:1.5;" width="484" x="11" y="131.2656"/><path d="M215,131.2656 L215,140.5625 L205,150.5625 L11,150.5625 " fill="none" style="stroke:#000000;stroke-width:1.5;"/><text fill="#000000" font-family="sans-serif" font-size="14" lengthAdjust="spacing" textLength="194" x="14" y="145.2607">create_thread&#20363;&#31243; (&#20869;&#26680;&#31354;&#38388;)</text><rect fill="#F1F1F1" height="33.9688" rx="12.5" ry="12.5" style="stroke:#181818;stroke-width:0.5;" width="197" x="53.5" y="167.5625"/><text fill="#000000" font-family="sans-serif" font-size="12" lengthAdjust="spacing" textLength="177" x="63.5" y="188.7012">&#20026;&#32447;&#31243;&#25511;&#21046;&#22359;(TCB)&#20998;&#37197;&#20869;&#26680;&#20869;&#23384;</text><rect fill="#F1F1F1" height="33.9688" rx="12.5" ry="12.5" style="stroke:#181818;stroke-width:0.5;" width="139" x="82.5" y="221.5313"/><text fill="#000000" font-family="sans-serif" font-size="12" lengthAdjust="spacing" textLength="119" x="92.5" y="242.6699">&#29983;&#25104;&#32447;&#31243;ID&#24182;&#22635;&#20837;TCB</text><rect fill="#F1F1F1" height="33.9688" rx="12.5" ry="12.5" style="stroke:#181818;stroke-width:0.5;" width="138" x="83" y="275.5"/><text fill="#000000" font-family="sans-serif" font-size="12" lengthAdjust="spacing" textLength="118" x="93" y="296.6387">&#35774;&#32622;&#32447;&#31243;&#29366;&#24577;&#20026;"&#23601;&#32490;"</text><rect fill="#F1F1F1" height="47.9375" rx="12.5" ry="12.5" style="stroke:#181818;stroke-width:0.5;" width="166" x="69" y="329.4688"/><text fill="#000000" font-family="sans-serif" font-size="12" lengthAdjust="spacing" textLength="60" x="79" y="350.6074">&#20026;&#32447;&#31243;&#20998;&#37197;</text><text fill="#000000" font-family="sans-serif" font-size="12" font-weight="bold" lengthAdjust="spacing" textLength="86" x="139" y="350.6074">0&#29305;&#26435;&#32423;&#20869;&#26680;&#26632;</text><text fill="#000000" font-family="sans-serif" font-size="12" lengthAdjust="spacing" textLength="94" x="79" y="364.5762">(&#29992;&#20110;&#29305;&#26435;&#32423;&#20999;&#25442;)</text><rect fill="#F1F1F1" height="47.9375" rx="12.5" ry="12.5" style="stroke:#181818;stroke-width:0.5;" width="189" x="57.5" y="397.4063"/><text fill="#000000" font-family="sans-serif" font-size="12" lengthAdjust="spacing" textLength="132" x="67.5" y="418.5449">&#20174;&#22788;&#29702;&#22120;&#19987;&#23646;&#23384;&#20648;&#21306;&#33719;&#21462;</text><text fill="#000000" font-family="sans-serif" font-size="12" font-weight="bold" lengthAdjust="spacing" textLength="79" x="67.5" y="432.5137">&#24403;&#21069;&#20219;&#21153;PCB</text><text fill="#000000" font-family="sans-serif" font-size="12" lengthAdjust="spacing" textLength="12" x="146.5" y="432.5137">&#21644;</text><text fill="#000000" font-family="sans-serif" font-size="12" font-weight="bold" lengthAdjust="spacing" textLength="78" x="158.5" y="432.5137">&#24403;&#21069;&#32447;&#31243;TCB</text><rect fill="none" height="204.1719" style="stroke:#000000;stroke-width:1.5;" width="243" x="30.5" y="455.3438"/><path d="M231.5,455.3438 L231.5,464.6406 L221.5,474.6406 L30.5,474.6406 " fill="none" style="stroke:#000000;stroke-width:1.5;"/><text fill="#000000" font-family="sans-serif" font-size="14" lengthAdjust="spacing" textLength="191" x="33.5" y="469.3389">&#22312;&#29992;&#25143;&#22320;&#22336;&#31354;&#38388;&#20998;&#37197;3&#29305;&#26435;&#32423;&#26632;</text><rect fill="#F1F1F1" height="47.9375" rx="12.5" ry="12.5" style="stroke:#181818;stroke-width:0.5;" width="208" x="48" y="491.6406"/><text fill="#000000" font-family="sans-serif" font-size="12" lengthAdjust="spacing" textLength="163" x="58" y="512.7793">&#35843;&#29992;user_memory_allocate</text><text fill="#000000" font-family="sans-serif" font-size="12" lengthAdjust="spacing" textLength="12" x="58" y="526.748">&#22312;</text><text fill="#000000" font-family="sans-serif" font-size="12" font-weight="bold" lengthAdjust="spacing" textLength="104" x="70" y="526.748">&#24403;&#21069;&#20219;&#21153;&#22320;&#22336;&#31354;&#38388;</text><text fill="#000000" font-family="sans-serif" font-size="12" lengthAdjust="spacing" textLength="72" x="174" y="526.748">&#20013;&#20998;&#37197;&#26632;&#20869;&#23384;</text><rect fill="#F1F1F1" height="33.9688" rx="12.5" ry="12.5" style="stroke:#181818;stroke-width:0.5;" width="220" x="42" y="559.5781"/><text fill="#000000" font-family="sans-serif" font-size="12" lengthAdjust="spacing" textLength="200" x="52" y="580.7168">&#35745;&#31639;&#26632;&#39030;&#20301;&#32622;(R14 = &#20998;&#37197;&#22320;&#22336; - 32)</text><rect fill="#F1F1F1" height="33.9688" rx="12.5" ry="12.5" style="stroke:#181818;stroke-width:0.5;" width="223" x="40.5" y="613.5469"/><text fill="#000000" font-family="sans-serif" font-size="12" lengthAdjust="spacing" textLength="203" x="50.5" y="634.6855">&#23558;&#26632;&#39030;&#22320;&#22336;&#20445;&#23384;&#21040;&#26032;&#32447;&#31243;TCB&#30340;RSP&#22495;</text><rect fill="none" height="150.2031" style="stroke:#000000;stroke-width:1.5;" width="464" x="21" y="669.5156"/><path d="M115,669.5156 L115,678.8125 L105,688.8125 L21,688.8125 " fill="none" style="stroke:#000000;stroke-width:1.5;"/><text fill="#000000" font-family="sans-serif" font-size="14" lengthAdjust="spacing" textLength="84" x="24" y="683.5107">&#26500;&#36896;&#32447;&#31243;&#26632;&#24103;</text><rect fill="#F1F1F1" height="33.9688" rx="12.5" ry="12.5" style="stroke:#181818;stroke-width:0.5;" width="242" x="31" y="705.8125"/><text fill="#000000" font-family="sans-serif" font-size="12" lengthAdjust="spacing" textLength="118" x="41" y="726.9512">&#22312;&#26632;&#39030;&#20301;&#32622;(R14)&#20889;&#20837;</text><text fill="#000000" font-family="sans-serif" font-size="12" font-weight="bold" lengthAdjust="spacing" textLength="104" x="159" y="726.9512">&#32447;&#31243;&#32467;&#26463;&#20195;&#30721;&#22320;&#22336;</text><path d="M289,763.6172 L289,779.75 L269,783.75 L289,787.75 L289,803.8828 A0,0 0 0 0 289,803.8828 L475,803.8828 A0,0 0 0 0 475,803.8828 L475,773.6172 L465,763.6172 L289,763.6172 A0,0 0 0 0 289,763.6172 " fill="#FEFFDD" style="stroke:#181818;stroke-width:0.5;"/><path d="M465,763.6172 L465,773.6172 L475,773.6172 L465,763.6172 " fill="#FEFFDD" style="stroke:#181818;stroke-width:0.5;"/><text fill="#000000" font-family="sans-serif" font-size="13" font-weight="bold" lengthAdjust="spacing" textLength="56" x="295" y="780.6841">&#31934;&#22937;&#35774;&#35745;</text><text fill="#000000" font-family="sans-serif" font-size="13" lengthAdjust="spacing" textLength="109" x="351" y="780.6841">&#65306;ret&#25351;&#20196;&#20250;&#36339;&#36716;&#21040;</text><text fill="#000000" font-family="sans-serif" font-size="13" lengthAdjust="spacing" textLength="156" x="295" y="795.8169">&#36825;&#37324;&#25191;&#34892;&#32447;&#31243;&#32467;&#26463;&#31995;&#32479;&#35843;&#29992;</text><rect fill="#F1F1F1" height="47.9375" rx="12.5" ry="12.5" style="stroke:#181818;stroke-width:0.5;" width="234" x="35" y="759.7813"/><text fill="#000000" font-family="sans-serif" font-size="12" lengthAdjust="spacing" textLength="136" x="45" y="780.9199">&#22312;&#26632;&#39030;&#19978;&#26041;(R14+8)&#20889;&#20837;</text><text fill="#000000" font-family="sans-serif" font-size="12" font-weight="bold" lengthAdjust="spacing" textLength="78" x="181" y="780.9199">&#19977;&#26465;&#26426;&#22120;&#25351;&#20196;</text><text fill="#000000" font-family="sans-serif" font-size="12" lengthAdjust="spacing" textLength="192" x="45" y="794.8887">(mov rax,9; xor rdx,rdx; syscall)</text><rect fill="#F1F1F1" height="89.8438" rx="12.5" ry="12.5" style="stroke:#181818;stroke-width:0.5;" width="131" x="86.5" y="839.7188"/><text fill="#000000" font-family="sans-serif" font-size="12" lengthAdjust="spacing" textLength="111" x="96.5" y="860.8574">&#22312;&#26032;&#32447;&#31243;TCB&#20013;&#30331;&#35760;:</text><text fill="#000000" font-family="sans-serif" font-size="12" lengthAdjust="spacing" textLength="109" x="96.5" y="874.8262">- &#20837;&#21475;&#22320;&#22336;(RSI&#20256;&#20837;)</text><text fill="#000000" font-family="sans-serif" font-size="12" lengthAdjust="spacing" textLength="108" x="96.5" y="888.7949">- &#20195;&#30721;&#27573;/&#26632;&#27573;&#36873;&#25321;&#23376;</text><text fill="#000000" font-family="sans-serif" font-size="12" lengthAdjust="spacing" textLength="68" x="96.5" y="902.7637">- &#26631;&#24535;&#23492;&#23384;&#22120;</text><text fill="#000000" font-family="sans-serif" font-size="12" lengthAdjust="spacing" textLength="68" x="96.5" y="916.7324">- &#25512;&#33616;&#26102;&#38388;&#29255;</text><rect fill="none" height="323.5708" style="stroke:#000000;stroke-width:1.5;" width="398" x="32" y="939.5625"/><path d="M212,939.5625 L212,948.8594 L202,958.8594 L32,958.8594 " fill="none" style="stroke:#000000;stroke-width:1.5;"/><text fill="#000000" font-family="sans-serif" font-size="14" lengthAdjust="spacing" textLength="170" x="35" y="953.5576">&#23558;&#26032;TCB&#21152;&#20837;&#20219;&#21153;TCB&#38142;&#34920;</text><rect fill="#F1F1F1" height="33.9688" rx="12.5" ry="12.5" style="stroke:#181818;stroke-width:0.5;" width="175" x="64.5" y="975.8594"/><text fill="#000000" font-family="sans-serif" font-size="12" lengthAdjust="spacing" textLength="155" x="74.5" y="996.998">&#20174;&#24403;&#21069;&#32447;&#31243;TCB&#24320;&#22987;&#36941;&#21382;&#38142;&#34920;</text><rect fill="#F1F1F1" height="33.9688" rx="12.5" ry="12.5" style="stroke:#181818;stroke-width:0.5;" width="220" x="42" y="1073.8281"/><text fill="#000000" font-family="sans-serif" font-size="12" lengthAdjust="spacing" textLength="200" x="52" y="1094.9668">&#26816;&#26597;&#24403;&#21069;TCB&#33410;&#28857;&#30340;"&#19979;&#19968;&#20010;TCB"&#25351;&#38024;</text><polygon fill="#F1F1F1" points="152,1029.8281,164,1041.8281,152,1053.8281,140,1041.8281,152,1029.8281" style="stroke:#181818;stroke-width:0.5;"/><polygon fill="#F1F1F1" points="121.5,1137.7969,182.5,1137.7969,194.5,1149.7969,182.5,1161.7969,121.5,1161.7969,109.5,1149.7969,121.5,1137.7969" style="stroke:#181818;stroke-width:0.5;"/><text fill="#000000" font-family="sans-serif" font-size="11" lengthAdjust="spacing" textLength="61" x="121.5" y="1153.605">&#25351;&#38024;&#19981;&#20026;&#31354;?</text><text fill="#000000" font-family="sans-serif" font-size="11" lengthAdjust="spacing" textLength="11" x="194.5" y="1147.2026">&#21542;</text><rect fill="#F1F1F1" height="33.9688" rx="12.5" ry="12.5" style="stroke:#181818;stroke-width:0.5;" width="72" x="286" y="1073.8281"/><text fill="#000000" font-family="sans-serif" font-size="12" lengthAdjust="spacing" textLength="48" x="300" y="1094.9668">&#21521;&#21518;&#36941;&#21382;</text><path d="M252,1207.0317 L252,1223.1646 L232,1227.1646 L252,1231.1646 L252,1247.2974 A0,0 0 0 0 252,1247.2974 L420,1247.2974 A0,0 0 0 0 420,1247.2974 L420,1217.0317 L410,1207.0317 L252,1207.0317 A0,0 0 0 0 252,1207.0317 " fill="#FEFFDD" style="stroke:#181818;stroke-width:0.5;"/><path d="M410,1207.0317 L410,1217.0317 L420,1217.0317 L410,1207.0317 " fill="#FEFFDD" style="stroke:#181818;stroke-width:0.5;"/><text fill="#000000" font-family="sans-serif" font-size="13" font-weight="bold" lengthAdjust="spacing" textLength="56" x="258" y="1224.0986">&#24182;&#21457;&#23433;&#20840;</text><text fill="#000000" font-family="sans-serif" font-size="13" lengthAdjust="spacing" textLength="91" x="314" y="1224.0986">&#65306;&#38450;&#27490;&#22810;&#22788;&#29702;&#22120;</text><text fill="#000000" font-family="sans-serif" font-size="13" lengthAdjust="spacing" textLength="143" x="258" y="1239.2314">&#21516;&#26102;&#20462;&#25913;&#38142;&#34920;&#26102;&#20986;&#29616;&#31454;&#20105;</text><rect fill="#F1F1F1" height="47.9375" rx="12.5" ry="12.5" style="stroke:#181818;stroke-width:0.5;" width="160" x="72" y="1203.1958"/><text fill="#000000" font-family="sans-serif" font-size="12" lengthAdjust="spacing" textLength="24" x="82" y="1224.3345">&#20351;&#29992;</text><text fill="#000000" font-family="sans-serif" font-size="12" font-weight="bold" lengthAdjust="spacing" textLength="92" x="106" y="1224.3345">lock cmpxchg</text><text fill="#000000" font-family="sans-serif" font-size="12" lengthAdjust="spacing" textLength="24" x="198" y="1224.3345">&#25351;&#20196;</text><text fill="#000000" font-family="sans-serif" font-size="12" lengthAdjust="spacing" textLength="131" x="82" y="1238.3032">&#21407;&#23376;&#24615;&#22320;&#28155;&#21152;&#26032;TCB&#33410;&#28857;</text><rect fill="#F1F1F1" height="33.9688" rx="12.5" ry="12.5" style="stroke:#181818;stroke-width:0.5;" width="207" x="48.5" y="1283.1333"/><text fill="#000000" font-family="sans-serif" font-size="12" lengthAdjust="spacing" textLength="96" x="58.5" y="1304.272">&#21521;&#25152;&#26377;&#22788;&#29702;&#22120;&#24191;&#25773;</text><text fill="#000000" font-family="sans-serif" font-size="12" font-weight="bold" lengthAdjust="spacing" textLength="91" x="154.5" y="1304.272">&#26032;&#32447;&#31243;&#35748;&#39046;&#20013;&#26029;</text><rect fill="#F1F1F1" height="33.9688" rx="12.5" ry="12.5" style="stroke:#181818;stroke-width:0.5;" width="194" x="55" y="1349.1021"/><text fill="#000000" font-family="sans-serif" font-size="12" lengthAdjust="spacing" textLength="174" x="65" y="1370.2407">&#31995;&#32479;&#35843;&#29992;&#36820;&#22238;&#65292;RDX = &#26032;&#32447;&#31243;ID</text><line style="stroke:#181818;stroke-width:1.0;" x1="152" x2="152" y1="67.2969" y2="87.2969"/><polygon fill="#181818" points="148,77.2969,152,87.2969,156,77.2969,152,81.2969" style="stroke:#181818;stroke-width:1.0;"/><line style="stroke:#181818;stroke-width:1.0;" x1="152" x2="152" y1="201.5313" y2="221.5313"/><polygon fill="#181818" points="148,211.5313,152,221.5313,156,211.5313,152,215.5313" style="stroke:#181818;stroke-width:1.0;"/><line style="stroke:#181818;stroke-width:1.0;" x1="152" x2="152" y1="255.5" y2="275.5"/><polygon fill="#181818" points="148,265.5,152,275.5,156,265.5,152,269.5" style="stroke:#181818;stroke-width:1.0;"/><line style="stroke:#181818;stroke-width:1.0;" x1="152" x2="152" y1="309.4688" y2="329.4688"/><polygon fill="#181818" points="148,319.4688,152,329.4688,156,319.4688,152,323.4688" style="stroke:#181818;stroke-width:1.0;"/><line style="stroke:#181818;stroke-width:1.0;" x1="152" x2="152" y1="377.4063" y2="397.4063"/><polygon fill="#181818" points="148,387.4063,152,397.4063,156,387.4063,152,391.4063" style="stroke:#181818;stroke-width:1.0;"/><line style="stroke:#181818;stroke-width:1.0;" x1="152" x2="152" y1="539.5781" y2="559.5781"/><polygon fill="#181818" points="148,549.5781,152,559.5781,156,549.5781,152,553.5781" style="stroke:#181818;stroke-width:1.0;"/><line style="stroke:#181818;stroke-width:1.0;" x1="152" x2="152" y1="593.5469" y2="613.5469"/><polygon fill="#181818" points="148,603.5469,152,613.5469,156,603.5469,152,607.5469" style="stroke:#181818;stroke-width:1.0;"/><line style="stroke:#181818;stroke-width:1.0;" x1="152" x2="152" y1="445.3438" y2="491.6406"/><polygon fill="#181818" points="148,481.6406,152,491.6406,156,481.6406,152,485.6406" style="stroke:#181818;stroke-width:1.0;"/><line style="stroke:#181818;stroke-width:1.0;" x1="152" x2="152" y1="739.7813" y2="759.7813"/><polygon fill="#181818" points="148,749.7813,152,759.7813,156,749.7813,152,753.7813" style="stroke:#181818;stroke-width:1.0;"/><line style="stroke:#181818;stroke-width:1.0;" x1="152" x2="152" y1="647.5156" y2="705.8125"/><polygon fill="#181818" points="148,695.8125,152,705.8125,156,695.8125,152,699.8125" style="stroke:#181818;stroke-width:1.0;"/><line style="stroke:#181818;stroke-width:1.0;" x1="152" x2="152" y1="807.7188" y2="839.7188"/><polygon fill="#181818" points="148,829.7188,152,839.7188,156,829.7188,152,833.7188" style="stroke:#181818;stroke-width:1.0;"/><line style="stroke:#181818;stroke-width:1.0;" x1="152" x2="152" y1="1053.8281" y2="1073.8281"/><polygon fill="#181818" points="148,1063.8281,152,1073.8281,156,1063.8281,152,1067.8281" style="stroke:#181818;stroke-width:1.0;"/><line style="stroke:#181818;stroke-width:1.0;" x1="194.5" x2="322" y1="1149.7969" y2="1149.7969"/><line style="stroke:#181818;stroke-width:1.0;" x1="322" x2="322" y1="1107.7969" y2="1149.7969"/><polygon fill="#181818" points="318,1117.7969,322,1107.7969,326,1117.7969,322,1113.7969" style="stroke:#181818;stroke-width:1.0;"/><line style="stroke:#181818;stroke-width:1.0;" x1="322" x2="322" y1="1041.8281" y2="1073.8281"/><line style="stroke:#181818;stroke-width:1.0;" x1="322" x2="164" y1="1041.8281" y2="1041.8281"/><polygon fill="#181818" points="174,1037.8281,164,1041.8281,174,1045.8281,170,1041.8281" style="stroke:#181818;stroke-width:1.0;"/><line style="stroke:#181818;stroke-width:1.0;" x1="152" x2="152" y1="1107.7969" y2="1137.7969"/><polygon fill="#181818" points="148,1127.7969,152,1137.7969,156,1127.7969,152,1131.7969" style="stroke:#181818;stroke-width:1.0;"/><line style="stroke:#181818;stroke-width:1.0;" x1="152" x2="152" y1="1009.8281" y2="1029.8281"/><polygon fill="#181818" points="148,1019.8281,152,1029.8281,156,1019.8281,152,1023.8281" style="stroke:#181818;stroke-width:1.0;"/><line style="stroke:#181818;stroke-width:1.0;" x1="152" x2="152" y1="1161.7969" y2="1203.1958"/><polygon fill="#181818" points="148,1193.1958,152,1203.1958,156,1193.1958,152,1197.1958" style="stroke:#181818;stroke-width:1.0;"/><text fill="#000000" font-family="sans-serif" font-size="11" lengthAdjust="spacing" textLength="11" x="156" y="1183.1016">&#26159;</text><line style="stroke:#181818;stroke-width:1.0;" x1="152" x2="152" y1="929.5625" y2="975.8594"/><polygon fill="#181818" points="148,965.8594,152,975.8594,156,965.8594,152,969.8594" style="stroke:#181818;stroke-width:1.0;"/><line style="stroke:#181818;stroke-width:1.0;" x1="152" x2="152" y1="1251.1333" y2="1283.1333"/><polygon fill="#181818" points="148,1273.1333,152,1283.1333,156,1273.1333,152,1277.1333" style="stroke:#181818;stroke-width:1.0;"/><line style="stroke:#181818;stroke-width:1.0;" x1="152" x2="152" y1="121.2656" y2="167.5625"/><polygon fill="#181818" points="148,157.5625,152,167.5625,156,157.5625,152,161.5625" style="stroke:#181818;stroke-width:1.0;"/><line style="stroke:#181818;stroke-width:1.0;" x1="152" x2="152" y1="1317.1021" y2="1349.1021"/><polygon fill="#181818" points="148,1339.1021,152,1349.1021,156,1339.1021,152,1343.1021" style="stroke:#181818;stroke-width:1.0;"/></g></svg>