<?xml version="1.0" encoding="us-ascii" standalone="no"?><svg xmlns="http://www.w3.org/2000/svg" xmlns:xlink="http://www.w3.org/1999/xlink" contentStyleType="text/css" height="1087px" preserveAspectRatio="none" style="width:1057px;height:1087px;background:#FFFFFF;" version="1.1" viewBox="0 0 1057 1087" width="1057px" zoomAndPan="magnify"><defs/><g><text fill="#000000" font-family="sans-serif" font-size="14" font-weight="bold" lengthAdjust="spacing" textLength="195" x="429.75" y="32.9951">&#32447;&#31243;&#32467;&#26463;&#19982;&#20219;&#21153;&#32456;&#27490;&#23436;&#25972;&#27969;&#31243;</text><ellipse cx="500" cy="57.2969" fill="#222222" rx="10" ry="10" style="stroke:#222222;stroke-width:1.0;"/><polygon fill="#F1F1F1" points="469.5,87.2969,530.5,87.2969,542.5,99.2969,530.5,111.2969,469.5,111.2969,457.5,99.2969,469.5,87.2969" style="stroke:#181818;stroke-width:0.5;"/><text fill="#000000" font-family="sans-serif" font-size="11" lengthAdjust="spacing" textLength="61" x="469.5" y="103.105">&#25191;&#34892;&#27969;&#31867;&#22411;?</text><text fill="#000000" font-family="sans-serif" font-size="11" lengthAdjust="spacing" textLength="66" x="391.5" y="96.7026">&#20316;&#20026;&#32447;&#31243;&#25191;&#34892;</text><text fill="#000000" font-family="sans-serif" font-size="11" lengthAdjust="spacing" textLength="88" x="542.5" y="96.7026">&#20316;&#20026;&#26222;&#36890;&#20363;&#31243;&#35843;&#29992;</text><rect fill="#F1F1F1" height="33.9688" rx="12.5" ry="12.5" style="stroke:#181818;stroke-width:0.5;" width="181" x="163.5" y="121.2969"/><text fill="#000000" font-family="sans-serif" font-size="12" lengthAdjust="spacing" textLength="161" x="173.5" y="142.4355">&#32447;&#31243;&#25191;&#34892;thread_procedure</text><rect fill="#F1F1F1" height="33.9688" rx="12.5" ry="12.5" style="stroke:#181818;stroke-width:0.5;" width="86" x="211" y="175.2656"/><text fill="#000000" font-family="sans-serif" font-size="12" lengthAdjust="spacing" textLength="66" x="221" y="196.4043">&#25191;&#34892;ret&#25351;&#20196;</text><rect fill="none" height="790.1172" style="stroke:#000000;stroke-width:1.5;" width="474" x="11" y="229.2344"/><path d="M105,229.2344 L105,238.5313 L95,248.5313 L11,248.5313 " fill="none" style="stroke:#000000;stroke-width:1.5;"/><text fill="#000000" font-family="sans-serif" font-size="14" lengthAdjust="spacing" textLength="84" x="14" y="243.2295">&#32447;&#31243;&#32467;&#26463;&#36335;&#24452;</text><rect fill="#F1F1F1" height="33.9688" rx="12.5" ry="12.5" style="stroke:#181818;stroke-width:0.5;" width="184" x="162" y="265.5313"/><text fill="#000000" font-family="sans-serif" font-size="12" lengthAdjust="spacing" textLength="60" x="172" y="286.6699">&#20174;&#26632;&#20013;&#24377;&#20986;</text><text fill="#000000" font-family="sans-serif" font-size="12" font-weight="bold" lengthAdjust="spacing" textLength="104" x="232" y="286.6699">&#32447;&#31243;&#32467;&#26463;&#20195;&#30721;&#22320;&#22336;</text><rect fill="#F1F1F1" height="33.9688" rx="12.5" ry="12.5" style="stroke:#181818;stroke-width:0.5;" width="164" x="172" y="334.5"/><text fill="#000000" font-family="sans-serif" font-size="12" lengthAdjust="spacing" textLength="144" x="182" y="355.6387">&#36339;&#36716;&#21040;&#39044;&#32622;&#30340;&#32447;&#31243;&#32467;&#26463;&#20195;&#30721;</text><rect fill="#F1F1F1" height="33.9688" rx="12.5" ry="12.5" style="stroke:#181818;stroke-width:0.5;" width="216" x="146" y="403.4688"/><text fill="#000000" font-family="sans-serif" font-size="12" lengthAdjust="spacing" textLength="196" x="156" y="424.6074">&#25191;&#34892;&#31995;&#32479;&#35843;&#29992;9&#21495;&#21151;&#33021;(thread_exit)</text><rect fill="none" height="526.9141" style="stroke:#000000;stroke-width:1.5;" width="454" x="21" y="472.4375"/><path d="M177,472.4375 L177,481.7344 L167,491.7344 L21,491.7344 " fill="none" style="stroke:#000000;stroke-width:1.5;"/><text fill="#000000" font-family="sans-serif" font-size="14" lengthAdjust="spacing" textLength="146" x="24" y="486.4326">thread_exit&#20363;&#31243; (&#20869;&#26680;)</text><rect fill="#F1F1F1" height="33.9688" rx="12.5" ry="12.5" style="stroke:#181818;stroke-width:0.5;" width="115" x="196.5" y="508.7344"/><text fill="#000000" font-family="sans-serif" font-size="12" lengthAdjust="spacing" textLength="95" x="206.5" y="529.873">&#33719;&#21462;&#24403;&#21069;&#32447;&#31243;TCB</text><rect fill="#F1F1F1" height="33.9688" rx="12.5" ry="12.5" style="stroke:#181818;stroke-width:0.5;" width="128" x="190" y="577.7031"/><text fill="#000000" font-family="sans-serif" font-size="12" lengthAdjust="spacing" textLength="108" x="200" y="598.8418">&#20999;&#25442;&#21040;&#22788;&#29702;&#22120;&#22266;&#26377;&#26632;</text><rect fill="#F1F1F1" height="33.9688" rx="12.5" ry="12.5" style="stroke:#181818;stroke-width:0.5;" width="162" x="173" y="646.6719"/><text fill="#000000" font-family="sans-serif" font-size="12" lengthAdjust="spacing" textLength="142" x="183" y="667.8105">&#35774;&#32622;&#24403;&#21069;&#32447;&#31243;&#29366;&#24577;&#20026;"&#32456;&#27490;"</text><rect fill="#F1F1F1" height="33.9688" rx="12.5" ry="12.5" style="stroke:#181818;stroke-width:0.5;" width="150" x="179" y="715.6406"/><text fill="#000000" font-family="sans-serif" font-size="12" lengthAdjust="spacing" textLength="130" x="189" y="736.7793">&#30331;&#35760;&#32447;&#31243;&#32467;&#26463;&#20195;&#30721;(RDX)</text><rect fill="#F1F1F1" height="47.9375" rx="12.5" ry="12.5" style="stroke:#181818;stroke-width:0.5;" width="213" x="147.5" y="784.4766"/><text fill="#000000" font-family="sans-serif" font-size="12" lengthAdjust="spacing" textLength="193" x="157.5" y="805.6152">&#35843;&#29992;search_for_a_ready_thread</text><text fill="#000000" font-family="sans-serif" font-size="12" lengthAdjust="spacing" textLength="72" x="157.5" y="819.584">&#23547;&#25214;&#23601;&#32490;&#32447;&#31243;</text><polygon fill="#F1F1F1" points="218,867.4141,290,867.4141,302,879.4141,290,891.4141,218,891.4141,206,879.4141,218,867.4141" style="stroke:#181818;stroke-width:0.5;"/><text fill="#000000" font-family="sans-serif" font-size="11" lengthAdjust="spacing" textLength="72" x="218" y="883.2222">&#25214;&#21040;&#23601;&#32490;&#32447;&#31243;?</text><text fill="#000000" font-family="sans-serif" font-size="11" lengthAdjust="spacing" textLength="11" x="195" y="876.8198">&#26159;</text><text fill="#000000" font-family="sans-serif" font-size="11" lengthAdjust="spacing" textLength="11" x="302" y="876.8198">&#21542;</text><rect fill="#F1F1F1" height="47.9375" rx="12.5" ry="12.5" style="stroke:#181818;stroke-width:0.5;" width="221" x="33" y="901.4141"/><text fill="#000000" font-family="sans-serif" font-size="12" lengthAdjust="spacing" textLength="201" x="43" y="922.5527">&#36339;&#36716;&#21040;resume_execute_a_thread</text><text fill="#000000" font-family="sans-serif" font-size="12" lengthAdjust="spacing" textLength="60" x="43" y="936.5215">&#25191;&#34892;&#26032;&#32447;&#31243;</text><rect fill="#F1F1F1" height="33.9688" rx="12.5" ry="12.5" style="stroke:#181818;stroke-width:0.5;" width="181" x="274" y="901.4141"/><text fill="#000000" font-family="sans-serif" font-size="12" lengthAdjust="spacing" textLength="161" x="284" y="922.5527">&#29992;iretq&#36820;&#22238;&#21040;&#22788;&#29702;&#22120;&#31354;&#38386;&#29366;&#24577;</text><polygon fill="#F1F1F1" points="254,955.3516,266,967.3516,254,979.3516,242,967.3516,254,955.3516" style="stroke:#181818;stroke-width:0.5;"/><rect fill="#F1F1F1" height="33.9688" rx="12.5" ry="12.5" style="stroke:#181818;stroke-width:0.5;" width="214" x="639" y="121.2969"/><text fill="#000000" font-family="sans-serif" font-size="12" lengthAdjust="spacing" textLength="194" x="649" y="142.4355">&#20027;&#32447;&#31243;call&#35843;&#29992;thread_procedure</text><rect fill="#F1F1F1" height="33.9688" rx="12.5" ry="12.5" style="stroke:#181818;stroke-width:0.5;" width="86" x="703" y="175.2656"/><text fill="#000000" font-family="sans-serif" font-size="12" lengthAdjust="spacing" textLength="66" x="713" y="196.4043">&#25191;&#34892;ret&#25351;&#20196;</text><rect fill="#F1F1F1" height="33.9688" rx="12.5" ry="12.5" style="stroke:#181818;stroke-width:0.5;" width="116" x="688" y="229.2344"/><text fill="#000000" font-family="sans-serif" font-size="12" lengthAdjust="spacing" textLength="96" x="698" y="250.373">&#27491;&#24120;&#36820;&#22238;&#21040;&#35843;&#29992;&#32773;</text><rect fill="#F1F1F1" height="33.9688" rx="12.5" ry="12.5" style="stroke:#181818;stroke-width:0.5;" width="128" x="682" y="298.2031"/><text fill="#000000" font-family="sans-serif" font-size="12" lengthAdjust="spacing" textLength="108" x="692" y="319.3418">&#32487;&#32493;&#25191;&#34892;&#20027;&#32447;&#31243;&#20195;&#30721;</text><rect fill="#F1F1F1" height="33.9688" rx="12.5" ry="12.5" style="stroke:#181818;stroke-width:0.5;" width="263" x="614.5" y="367.1719"/><text fill="#000000" font-family="sans-serif" font-size="12" lengthAdjust="spacing" textLength="243" x="624.5" y="388.3105">&#25191;&#34892;&#31995;&#32479;&#35843;&#29992;5&#21495;&#21151;&#33021;(terminate_process)</text><rect fill="none" height="609.3125" style="stroke:#000000;stroke-width:1.5;" width="541.5" x="505" y="436.1406"/><path d="M714,436.1406 L714,445.4375 L704,455.4375 L505,455.4375 " fill="none" style="stroke:#000000;stroke-width:1.5;"/><text fill="#000000" font-family="sans-serif" font-size="14" lengthAdjust="spacing" textLength="199" x="508" y="450.1357">terminate_process&#20363;&#31243; (&#20869;&#26680;)</text><rect fill="#F1F1F1" height="33.9688" rx="12.5" ry="12.5" style="stroke:#181818;stroke-width:0.5;" width="131" x="680.5" y="472.4375"/><text fill="#000000" font-family="sans-serif" font-size="12" lengthAdjust="spacing" textLength="111" x="690.5" y="493.5762">&#23631;&#34109;APIC&#23450;&#26102;&#22120;&#20013;&#26029;</text><rect fill="#F1F1F1" height="33.9688" rx="12.5" ry="12.5" style="stroke:#181818;stroke-width:0.5;" width="175" x="658.5" y="541.4063"/><text fill="#000000" font-family="sans-serif" font-size="12" lengthAdjust="spacing" textLength="155" x="668.5" y="562.5449">&#33719;&#21462;&#24403;&#21069;&#20219;&#21153;PCB&#21644;&#32447;&#31243;TCB</text><rect fill="#F1F1F1" height="33.9688" rx="12.5" ry="12.5" style="stroke:#181818;stroke-width:0.5;" width="161" x="665.5" y="610.375"/><text fill="#000000" font-family="sans-serif" font-size="12" lengthAdjust="spacing" textLength="24" x="675.5" y="631.5137">&#35774;&#32622;</text><text fill="#000000" font-family="sans-serif" font-size="12" font-weight="bold" lengthAdjust="spacing" textLength="117" x="699.5" y="631.5137">&#24403;&#21069;&#20219;&#21153;&#29366;&#24577;&#20026;&#32456;&#27490;</text><path d="M846.5,679.3438 L846.5,703.043 L826.5,707.043 L846.5,711.043 L846.5,734.7422 A0,0 0 0 0 846.5,734.7422 L1036.5,734.7422 A0,0 0 0 0 1036.5,734.7422 L1036.5,689.3438 L1026.5,679.3438 L846.5,679.3438 A0,0 0 0 0 846.5,679.3438 " fill="#FEFFDD" style="stroke:#181818;stroke-width:0.5;"/><path d="M1026.5,679.3438 L1026.5,689.3438 L1036.5,689.3438 L1026.5,679.3438 " fill="#FEFFDD" style="stroke:#181818;stroke-width:0.5;"/><text fill="#000000" font-family="sans-serif" font-size="13" font-weight="bold" lengthAdjust="spacing" textLength="56" x="852.5" y="696.4106">&#35774;&#35745;&#36873;&#25321;</text><text fill="#000000" font-family="sans-serif" font-size="13" lengthAdjust="spacing" textLength="13" x="908.5" y="696.4106">&#65306;</text><text fill="#000000" font-family="sans-serif" font-size="13" lengthAdjust="spacing" textLength="169" x="852.5" y="711.5435">&#21482;&#32456;&#27490;&#24403;&#21069;&#32447;&#31243;&#65292;&#20219;&#21153;&#30340;&#20854;&#20182;</text><text fill="#000000" font-family="sans-serif" font-size="13" lengthAdjust="spacing" textLength="104" x="852.5" y="726.6763">&#32447;&#31243;&#20173;&#21487;&#32487;&#32493;&#25191;&#34892;</text><rect fill="#F1F1F1" height="33.9688" rx="12.5" ry="12.5" style="stroke:#181818;stroke-width:0.5;" width="161" x="665.5" y="690.0586"/><text fill="#000000" font-family="sans-serif" font-size="12" lengthAdjust="spacing" textLength="24" x="675.5" y="711.1973">&#35774;&#32622;</text><text fill="#000000" font-family="sans-serif" font-size="12" font-weight="bold" lengthAdjust="spacing" textLength="117" x="699.5" y="711.1973">&#24403;&#21069;&#32447;&#31243;&#29366;&#24577;&#20026;&#32456;&#27490;</text><rect fill="#F1F1F1" height="33.9688" rx="12.5" ry="12.5" style="stroke:#181818;stroke-width:0.5;" width="128" x="682" y="769.6094"/><text fill="#000000" font-family="sans-serif" font-size="12" lengthAdjust="spacing" textLength="108" x="692" y="790.748">&#20999;&#25442;&#21040;&#22788;&#29702;&#22120;&#22266;&#26377;&#26632;</text><rect fill="#F1F1F1" height="47.9375" rx="12.5" ry="12.5" style="stroke:#181818;stroke-width:0.5;" width="213" x="639.5" y="838.5781"/><text fill="#000000" font-family="sans-serif" font-size="12" lengthAdjust="spacing" textLength="193" x="649.5" y="859.7168">&#35843;&#29992;search_for_a_ready_thread</text><text fill="#000000" font-family="sans-serif" font-size="12" lengthAdjust="spacing" textLength="72" x="649.5" y="873.6855">&#23547;&#25214;&#23601;&#32490;&#32447;&#31243;</text><polygon fill="#F1F1F1" points="710,921.5156,782,921.5156,794,933.5156,782,945.5156,710,945.5156,698,933.5156,710,921.5156" style="stroke:#181818;stroke-width:0.5;"/><text fill="#000000" font-family="sans-serif" font-size="11" lengthAdjust="spacing" textLength="72" x="710" y="937.3237">&#25214;&#21040;&#23601;&#32490;&#32447;&#31243;?</text><text fill="#000000" font-family="sans-serif" font-size="11" lengthAdjust="spacing" textLength="11" x="687" y="930.9214">&#26159;</text><text fill="#000000" font-family="sans-serif" font-size="11" lengthAdjust="spacing" textLength="11" x="794" y="930.9214">&#21542;</text><rect fill="#F1F1F1" height="47.9375" rx="12.5" ry="12.5" style="stroke:#181818;stroke-width:0.5;" width="221" x="525" y="955.5156"/><text fill="#000000" font-family="sans-serif" font-size="12" lengthAdjust="spacing" textLength="201" x="535" y="976.6543">&#36339;&#36716;&#21040;resume_execute_a_thread</text><text fill="#000000" font-family="sans-serif" font-size="12" lengthAdjust="spacing" textLength="60" x="535" y="990.623">&#25191;&#34892;&#26032;&#32447;&#31243;</text><rect fill="#F1F1F1" height="33.9688" rx="12.5" ry="12.5" style="stroke:#181818;stroke-width:0.5;" width="181" x="766" y="955.5156"/><text fill="#000000" font-family="sans-serif" font-size="12" lengthAdjust="spacing" textLength="161" x="776" y="976.6543">&#29992;iretq&#36820;&#22238;&#21040;&#22788;&#29702;&#22120;&#31354;&#38386;&#29366;&#24577;</text><polygon fill="#F1F1F1" points="746,1009.4531,758,1021.4531,746,1033.4531,734,1021.4531,746,1009.4531" style="stroke:#181818;stroke-width:0.5;"/><polygon fill="#F1F1F1" points="500,1051.4531,512,1063.4531,500,1075.4531,488,1063.4531,500,1051.4531" style="stroke:#181818;stroke-width:0.5;"/><line style="stroke:#181818;stroke-width:1.0;" x1="254" x2="254" y1="155.2656" y2="175.2656"/><polygon fill="#181818" points="250,165.2656,254,175.2656,258,165.2656,254,169.2656" style="stroke:#181818;stroke-width:1.0;"/><line style="stroke:#181818;stroke-width:1.0;" x1="254" x2="254" y1="299.5" y2="334.5"/><polygon fill="#181818" points="250,324.5,254,334.5,258,324.5,254,328.5" style="stroke:#181818;stroke-width:1.0;"/><line style="stroke:#181818;stroke-width:1.0;" x1="254" x2="254" y1="368.4688" y2="403.4688"/><polygon fill="#181818" points="250,393.4688,254,403.4688,258,393.4688,254,397.4688" style="stroke:#181818;stroke-width:1.0;"/><line style="stroke:#181818;stroke-width:1.0;" x1="254" x2="254" y1="542.7031" y2="577.7031"/><polygon fill="#181818" points="250,567.7031,254,577.7031,258,567.7031,254,571.7031" style="stroke:#181818;stroke-width:1.0;"/><line style="stroke:#181818;stroke-width:1.0;" x1="254" x2="254" y1="611.6719" y2="646.6719"/><polygon fill="#181818" points="250,636.6719,254,646.6719,258,636.6719,254,640.6719" style="stroke:#181818;stroke-width:1.0;"/><line style="stroke:#181818;stroke-width:1.0;" x1="254" x2="254" y1="680.6406" y2="715.6406"/><polygon fill="#181818" points="250,705.6406,254,715.6406,258,705.6406,254,709.6406" style="stroke:#181818;stroke-width:1.0;"/><line style="stroke:#181818;stroke-width:1.0;" x1="254" x2="254" y1="749.6094" y2="784.4766"/><polygon fill="#181818" points="250,774.4766,254,784.4766,258,774.4766,254,778.4766" style="stroke:#181818;stroke-width:1.0;"/><line style="stroke:#181818;stroke-width:1.0;" x1="206" x2="143.5" y1="879.4141" y2="879.4141"/><line style="stroke:#181818;stroke-width:1.0;" x1="143.5" x2="143.5" y1="879.4141" y2="901.4141"/><polygon fill="#181818" points="139.5,891.4141,143.5,901.4141,147.5,891.4141,143.5,895.4141" style="stroke:#181818;stroke-width:1.0;"/><line style="stroke:#181818;stroke-width:1.0;" x1="302" x2="364.5" y1="879.4141" y2="879.4141"/><line style="stroke:#181818;stroke-width:1.0;" x1="364.5" x2="364.5" y1="879.4141" y2="901.4141"/><polygon fill="#181818" points="360.5,891.4141,364.5,901.4141,368.5,891.4141,364.5,895.4141" style="stroke:#181818;stroke-width:1.0;"/><line style="stroke:#181818;stroke-width:1.0;" x1="143.5" x2="143.5" y1="949.3516" y2="967.3516"/><line style="stroke:#181818;stroke-width:1.0;" x1="143.5" x2="242" y1="967.3516" y2="967.3516"/><polygon fill="#181818" points="232,963.3516,242,967.3516,232,971.3516,236,967.3516" style="stroke:#181818;stroke-width:1.0;"/><line style="stroke:#181818;stroke-width:1.0;" x1="364.5" x2="364.5" y1="935.3828" y2="967.3516"/><line style="stroke:#181818;stroke-width:1.0;" x1="364.5" x2="266" y1="967.3516" y2="967.3516"/><polygon fill="#181818" points="276,963.3516,266,967.3516,276,971.3516,272,967.3516" style="stroke:#181818;stroke-width:1.0;"/><line style="stroke:#181818;stroke-width:1.0;" x1="254" x2="254" y1="832.4141" y2="867.4141"/><polygon fill="#181818" points="250,857.4141,254,867.4141,258,857.4141,254,861.4141" style="stroke:#181818;stroke-width:1.0;"/><line style="stroke:#181818;stroke-width:1.0;" x1="254" x2="254" y1="437.4375" y2="508.7344"/><polygon fill="#181818" points="250,498.7344,254,508.7344,258,498.7344,254,502.7344" style="stroke:#181818;stroke-width:1.0;"/><line style="stroke:#181818;stroke-width:1.0;" x1="254" x2="254" y1="209.2344" y2="265.5313"/><polygon fill="#181818" points="250,255.5313,254,265.5313,258,255.5313,254,259.5313" style="stroke:#181818;stroke-width:1.0;"/><line style="stroke:#181818;stroke-width:1.0;" x1="746" x2="746" y1="155.2656" y2="175.2656"/><polygon fill="#181818" points="742,165.2656,746,175.2656,750,165.2656,746,169.2656" style="stroke:#181818;stroke-width:1.0;"/><line style="stroke:#181818;stroke-width:1.0;" x1="746" x2="746" y1="209.2344" y2="229.2344"/><polygon fill="#181818" points="742,219.2344,746,229.2344,750,219.2344,746,223.2344" style="stroke:#181818;stroke-width:1.0;"/><line style="stroke:#181818;stroke-width:1.0;" x1="746" x2="746" y1="263.2031" y2="298.2031"/><polygon fill="#181818" points="742,288.2031,746,298.2031,750,288.2031,746,292.2031" style="stroke:#181818;stroke-width:1.0;"/><line style="stroke:#181818;stroke-width:1.0;" x1="746" x2="746" y1="332.1719" y2="367.1719"/><polygon fill="#181818" points="742,357.1719,746,367.1719,750,357.1719,746,361.1719" style="stroke:#181818;stroke-width:1.0;"/><line style="stroke:#181818;stroke-width:1.0;" x1="746" x2="746" y1="506.4063" y2="541.4063"/><polygon fill="#181818" points="742,531.4063,746,541.4063,750,531.4063,746,535.4063" style="stroke:#181818;stroke-width:1.0;"/><line style="stroke:#181818;stroke-width:1.0;" x1="746" x2="746" y1="575.375" y2="610.375"/><polygon fill="#181818" points="742,600.375,746,610.375,750,600.375,746,604.375" style="stroke:#181818;stroke-width:1.0;"/><line style="stroke:#181818;stroke-width:1.0;" x1="746" x2="746" y1="644.3438" y2="690.0586"/><polygon fill="#181818" points="742,680.0586,746,690.0586,750,680.0586,746,684.0586" style="stroke:#181818;stroke-width:1.0;"/><line style="stroke:#181818;stroke-width:1.0;" x1="746" x2="746" y1="724.0273" y2="769.6094"/><polygon fill="#181818" points="742,759.6094,746,769.6094,750,759.6094,746,763.6094" style="stroke:#181818;stroke-width:1.0;"/><line style="stroke:#181818;stroke-width:1.0;" x1="746" x2="746" y1="803.5781" y2="838.5781"/><polygon fill="#181818" points="742,828.5781,746,838.5781,750,828.5781,746,832.5781" style="stroke:#181818;stroke-width:1.0;"/><line style="stroke:#181818;stroke-width:1.0;" x1="698" x2="635.5" y1="933.5156" y2="933.5156"/><line style="stroke:#181818;stroke-width:1.0;" x1="635.5" x2="635.5" y1="933.5156" y2="955.5156"/><polygon fill="#181818" points="631.5,945.5156,635.5,955.5156,639.5,945.5156,635.5,949.5156" style="stroke:#181818;stroke-width:1.0;"/><line style="stroke:#181818;stroke-width:1.0;" x1="794" x2="856.5" y1="933.5156" y2="933.5156"/><line style="stroke:#181818;stroke-width:1.0;" x1="856.5" x2="856.5" y1="933.5156" y2="955.5156"/><polygon fill="#181818" points="852.5,945.5156,856.5,955.5156,860.5,945.5156,856.5,949.5156" style="stroke:#181818;stroke-width:1.0;"/><line style="stroke:#181818;stroke-width:1.0;" x1="635.5" x2="635.5" y1="1003.4531" y2="1021.4531"/><line style="stroke:#181818;stroke-width:1.0;" x1="635.5" x2="734" y1="1021.4531" y2="1021.4531"/><polygon fill="#181818" points="724,1017.4531,734,1021.4531,724,1025.4531,728,1021.4531" style="stroke:#181818;stroke-width:1.0;"/><line style="stroke:#181818;stroke-width:1.0;" x1="856.5" x2="856.5" y1="989.4844" y2="1021.4531"/><line style="stroke:#181818;stroke-width:1.0;" x1="856.5" x2="758" y1="1021.4531" y2="1021.4531"/><polygon fill="#181818" points="768,1017.4531,758,1021.4531,768,1025.4531,764,1021.4531" style="stroke:#181818;stroke-width:1.0;"/><line style="stroke:#181818;stroke-width:1.0;" x1="746" x2="746" y1="886.5156" y2="921.5156"/><polygon fill="#181818" points="742,911.5156,746,921.5156,750,911.5156,746,915.5156" style="stroke:#181818;stroke-width:1.0;"/><line style="stroke:#181818;stroke-width:1.0;" x1="746" x2="746" y1="401.1406" y2="472.4375"/><polygon fill="#181818" points="742,462.4375,746,472.4375,750,462.4375,746,466.4375" style="stroke:#181818;stroke-width:1.0;"/><line style="stroke:#181818;stroke-width:1.0;" x1="457.5" x2="254" y1="99.2969" y2="99.2969"/><line style="stroke:#181818;stroke-width:1.0;" x1="254" x2="254" y1="99.2969" y2="121.2969"/><polygon fill="#181818" points="250,111.2969,254,121.2969,258,111.2969,254,115.2969" style="stroke:#181818;stroke-width:1.0;"/><line style="stroke:#181818;stroke-width:1.0;" x1="542.5" x2="746" y1="99.2969" y2="99.2969"/><line style="stroke:#181818;stroke-width:1.0;" x1="746" x2="746" y1="99.2969" y2="121.2969"/><polygon fill="#181818" points="742,111.2969,746,121.2969,750,111.2969,746,115.2969" style="stroke:#181818;stroke-width:1.0;"/><line style="stroke:#181818;stroke-width:1.0;" x1="254" x2="254" y1="979.3516" y2="1063.4531"/><line style="stroke:#181818;stroke-width:1.0;" x1="254" x2="488" y1="1063.4531" y2="1063.4531"/><polygon fill="#181818" points="478,1059.4531,488,1063.4531,478,1067.4531,482,1063.4531" style="stroke:#181818;stroke-width:1.0;"/><line style="stroke:#181818;stroke-width:1.0;" x1="746" x2="746" y1="1033.4531" y2="1063.4531"/><line style="stroke:#181818;stroke-width:1.0;" x1="746" x2="512" y1="1063.4531" y2="1063.4531"/><polygon fill="#181818" points="522,1059.4531,512,1063.4531,522,1067.4531,518,1063.4531" style="stroke:#181818;stroke-width:1.0;"/><line style="stroke:#181818;stroke-width:1.0;" x1="500" x2="500" y1="67.2969" y2="87.2969"/><polygon fill="#181818" points="496,77.2969,500,87.2969,504,77.2969,500,81.2969" style="stroke:#181818;stroke-width:1.0;"/></g></svg>