<?xml version="1.0" encoding="us-ascii" standalone="no"?><svg xmlns="http://www.w3.org/2000/svg" xmlns:xlink="http://www.w3.org/1999/xlink" contentStyleType="text/css" height="875px" preserveAspectRatio="none" style="width:756px;height:875px;background:#FFFFFF;" version="1.1" viewBox="0 0 756 875" width="756px" zoomAndPan="magnify"><defs/><g><text fill="#000000" font-family="sans-serif" font-size="14" font-weight="bold" lengthAdjust="spacing" textLength="225" x="264.25" y="32.9951">&#32447;&#31243;&#20241;&#30496;&#19982;&#31995;&#32479;&#31649;&#29702;&#20013;&#26029;&#23436;&#25972;&#27969;&#31243;</text><ellipse cx="199.875" cy="57.2969" fill="#222222" rx="10" ry="10" style="stroke:#222222;stroke-width:1.0;"/><rect fill="none" height="787.6328" style="stroke:#000000;stroke-width:1.5;" width="734.5" x="11" y="77.2969"/><path d="M203,77.2969 L203,86.5938 L193,96.5938 L11,96.5938 " fill="none" style="stroke:#000000;stroke-width:1.5;"/><text fill="#000000" font-family="sans-serif" font-size="14" lengthAdjust="spacing" textLength="182" x="14" y="91.292">&#32447;&#31243;&#20241;&#30496;&#31995;&#32479;&#35843;&#29992;(15&#21495;&#21151;&#33021;)</text><rect fill="#F1F1F1" height="33.9688" rx="12.5" ry="12.5" style="stroke:#181818;stroke-width:0.5;" width="266" x="66.875" y="113.5938"/><text fill="#000000" font-family="sans-serif" font-size="12" lengthAdjust="spacing" textLength="246" x="76.875" y="134.7324">&#29992;&#25143;&#32447;&#31243;&#35843;&#29992;thread_sleep(RDX=&#20241;&#30496;&#26102;&#38388;)</text><polygon fill="#F1F1F1" points="158.375,167.5625,241.375,167.5625,253.375,179.5625,241.375,191.5625,158.375,191.5625,146.375,179.5625,158.375,167.5625" style="stroke:#181818;stroke-width:0.5;"/><text fill="#000000" font-family="sans-serif" font-size="11" lengthAdjust="spacing" textLength="83" x="158.375" y="183.3706">&#20241;&#30496;&#26102;&#38388; == 0?</text><text fill="#000000" font-family="sans-serif" font-size="11" lengthAdjust="spacing" textLength="11" x="135.375" y="176.9683">&#26159;</text><text fill="#000000" font-family="sans-serif" font-size="11" lengthAdjust="spacing" textLength="11" x="253.375" y="176.9683">&#21542;</text><rect fill="#F1F1F1" height="33.9688" rx="12.5" ry="12.5" style="stroke:#181818;stroke-width:0.5;" width="68" x="23" y="201.5625"/><text fill="#000000" font-family="sans-serif" font-size="12" lengthAdjust="spacing" textLength="48" x="33" y="222.7012">&#30452;&#25509;&#36820;&#22238;</text><rect fill="#F1F1F1" height="33.9688" rx="12.5" ry="12.5" style="stroke:#181818;stroke-width:0.5;" width="164" x="260.75" y="201.5625"/><text fill="#000000" font-family="sans-serif" font-size="12" lengthAdjust="spacing" textLength="144" x="270.75" y="222.7012">&#23631;&#34109;&#20013;&#26029;&#21644;&#26102;&#38388;&#29255;&#21040;&#26399;&#20013;&#26029;</text><rect fill="none" height="218.1406" style="stroke:#000000;stroke-width:1.5;" width="179" x="253.25" y="245.5313"/><path d="M347.25,245.5313 L347.25,254.8281 L337.25,264.8281 L253.25,264.8281 " fill="none" style="stroke:#000000;stroke-width:1.5;"/><text fill="#000000" font-family="sans-serif" font-size="14" lengthAdjust="spacing" textLength="84" x="256.25" y="259.5264">&#20445;&#23384;&#32447;&#31243;&#29366;&#24577;</text><rect fill="#F1F1F1" height="33.9688" rx="12.5" ry="12.5" style="stroke:#181818;stroke-width:0.5;" width="152" x="266.75" y="281.8281"/><text fill="#000000" font-family="sans-serif" font-size="12" lengthAdjust="spacing" textLength="132" x="276.75" y="302.9668">&#20445;&#23384;&#23492;&#23384;&#22120;&#31561;&#25191;&#34892;&#19978;&#19979;&#25991;</text><rect fill="#F1F1F1" height="61.9063" rx="12.5" ry="12.5" style="stroke:#181818;stroke-width:0.5;" width="126" x="279.75" y="335.7969"/><text fill="#000000" font-family="sans-serif" font-size="12" lengthAdjust="spacing" textLength="99" x="289.75" y="356.9355">&#22312;&#32447;&#31243;TCB&#20013;&#35774;&#32622;:</text><text fill="#000000" font-family="sans-serif" font-size="12" lengthAdjust="spacing" textLength="106" x="289.75" y="370.9043">- &#20241;&#30496;&#26102;&#38388;(&#20559;&#31227;56)</text><text fill="#000000" font-family="sans-serif" font-size="12" lengthAdjust="spacing" textLength="84" x="289.75" y="384.873">- &#29366;&#24577;=4(&#20241;&#30496;)</text><rect fill="#F1F1F1" height="33.9688" rx="12.5" ry="12.5" style="stroke:#181818;stroke-width:0.5;" width="159" x="263.25" y="417.7031"/><text fill="#000000" font-family="sans-serif" font-size="12" lengthAdjust="spacing" textLength="139" x="273.25" y="438.8418">&#35774;&#32622;&#36820;&#22238;&#28857;&#20026;.return&#26631;&#21495;</text><rect fill="#F1F1F1" height="47.9375" rx="12.5" ry="12.5" style="stroke:#181818;stroke-width:0.5;" width="213" x="236.25" y="483.6719"/><text fill="#000000" font-family="sans-serif" font-size="12" lengthAdjust="spacing" textLength="193" x="246.25" y="504.8105">&#35843;&#29992;search_for_a_ready_thread</text><text fill="#000000" font-family="sans-serif" font-size="12" lengthAdjust="spacing" textLength="72" x="246.25" y="518.7793">&#23547;&#25214;&#23601;&#32490;&#32447;&#31243;</text><polygon fill="#F1F1F1" points="306.75,551.6094,378.75,551.6094,390.75,563.6094,378.75,575.6094,306.75,575.6094,294.75,563.6094,306.75,551.6094" style="stroke:#181818;stroke-width:0.5;"/><text fill="#000000" font-family="sans-serif" font-size="11" lengthAdjust="spacing" textLength="72" x="306.75" y="567.4175">&#25214;&#21040;&#23601;&#32490;&#32447;&#31243;?</text><text fill="#000000" font-family="sans-serif" font-size="11" lengthAdjust="spacing" textLength="11" x="283.75" y="561.0151">&#26159;</text><text fill="#000000" font-family="sans-serif" font-size="11" lengthAdjust="spacing" textLength="11" x="390.75" y="561.0151">&#21542;</text><rect fill="#F1F1F1" height="47.9375" rx="12.5" ry="12.5" style="stroke:#181818;stroke-width:0.5;" width="221" x="121" y="585.6094"/><text fill="#000000" font-family="sans-serif" font-size="12" lengthAdjust="spacing" textLength="201" x="131" y="606.748">&#36339;&#36716;&#21040;resume_execute_a_thread</text><text fill="#000000" font-family="sans-serif" font-size="12" lengthAdjust="spacing" textLength="60" x="131" y="620.7168">&#25191;&#34892;&#26032;&#32447;&#31243;</text><rect fill="none" height="207.3203" style="stroke:#000000;stroke-width:1.5;" width="371.5" x="362" y="585.6094"/><path d="M498,585.6094 L498,594.9063 L488,604.9063 L362,604.9063 " fill="none" style="stroke:#000000;stroke-width:1.5;"/><text fill="#000000" font-family="sans-serif" font-size="14" lengthAdjust="spacing" textLength="126" x="365" y="599.6045">&#22788;&#29702;&#22120;&#36827;&#20837;&#20572;&#26426;&#29366;&#24577;</text><rect fill="#F1F1F1" height="47.9375" rx="12.5" ry="12.5" style="stroke:#181818;stroke-width:0.5;" width="164" x="372" y="621.9063"/><text fill="#000000" font-family="sans-serif" font-size="12" lengthAdjust="spacing" textLength="144" x="382" y="643.0449">&#28165;&#38500;&#22788;&#29702;&#22120;&#19987;&#23646;&#23384;&#20648;&#21306;&#20013;&#30340;</text><text fill="#000000" font-family="sans-serif" font-size="12" lengthAdjust="spacing" textLength="83" x="382" y="657.0137">PCB&#21644;TCB&#25351;&#38024;</text><rect fill="#F1F1F1" height="33.9688" rx="12.5" ry="12.5" style="stroke:#181818;stroke-width:0.5;" width="128" x="390" y="689.8438"/><text fill="#000000" font-family="sans-serif" font-size="12" lengthAdjust="spacing" textLength="108" x="400" y="710.9824">&#20999;&#25442;&#21040;&#22788;&#29702;&#22120;&#22266;&#26377;&#26632;</text><path d="M546.5,740.6641 L546.5,756.7969 L526.5,760.7969 L546.5,764.7969 L546.5,780.9297 A0,0 0 0 0 546.5,780.9297 L723.5,780.9297 A0,0 0 0 0 723.5,780.9297 L723.5,750.6641 L713.5,740.6641 L546.5,740.6641 A0,0 0 0 0 546.5,740.6641 " fill="#FEFFDD" style="stroke:#181818;stroke-width:0.5;"/><path d="M713.5,740.6641 L713.5,750.6641 L723.5,750.6641 L713.5,740.6641 " fill="#FEFFDD" style="stroke:#181818;stroke-width:0.5;"/><text fill="#000000" font-family="sans-serif" font-size="13" lengthAdjust="spacing" textLength="156" x="552.5" y="757.731">&#37325;&#35201;&#20462;&#22797;&#65306;&#36991;&#20813;&#35843;&#24230;&#22120;&#35823;&#21028;</text><text fill="#000000" font-family="sans-serif" font-size="13" lengthAdjust="spacing" textLength="65" x="552.5" y="772.8638">&#22788;&#29702;&#22120;&#29366;&#24577;</text><rect fill="#F1F1F1" height="33.9688" rx="12.5" ry="12.5" style="stroke:#181818;stroke-width:0.5;" width="145" x="381.5" y="743.8125"/><text fill="#000000" font-family="sans-serif" font-size="12" lengthAdjust="spacing" textLength="125" x="391.5" y="764.9512">&#25191;&#34892;iretq&#36827;&#20837;&#20572;&#26426;&#24490;&#29615;</text><polygon fill="#F1F1F1" points="342.75,798.9297,354.75,810.9297,342.75,822.9297,330.75,810.9297,342.75,798.9297" style="stroke:#181818;stroke-width:0.5;"/><polygon fill="#F1F1F1" points="199.875,828.9297,211.875,840.9297,199.875,852.9297,187.875,840.9297,199.875,828.9297" style="stroke:#181818;stroke-width:0.5;"/><line style="stroke:#181818;stroke-width:1.0;" x1="342.75" x2="342.75" y1="315.7969" y2="335.7969"/><polygon fill="#181818" points="338.75,325.7969,342.75,335.7969,346.75,325.7969,342.75,329.7969" style="stroke:#181818;stroke-width:1.0;"/><line style="stroke:#181818;stroke-width:1.0;" x1="342.75" x2="342.75" y1="397.7031" y2="417.7031"/><polygon fill="#181818" points="338.75,407.7031,342.75,417.7031,346.75,407.7031,342.75,411.7031" style="stroke:#181818;stroke-width:1.0;"/><line style="stroke:#181818;stroke-width:1.0;" x1="342.75" x2="342.75" y1="235.5313" y2="281.8281"/><polygon fill="#181818" points="338.75,271.8281,342.75,281.8281,346.75,271.8281,342.75,275.8281" style="stroke:#181818;stroke-width:1.0;"/><line style="stroke:#181818;stroke-width:1.0;" x1="342.75" x2="342.75" y1="451.6719" y2="483.6719"/><polygon fill="#181818" points="338.75,473.6719,342.75,483.6719,346.75,473.6719,342.75,477.6719" style="stroke:#181818;stroke-width:1.0;"/><line style="stroke:#181818;stroke-width:1.0;" x1="454" x2="454" y1="669.8438" y2="689.8438"/><polygon fill="#181818" points="450,679.8438,454,689.8438,458,679.8438,454,683.8438" style="stroke:#181818;stroke-width:1.0;"/><line style="stroke:#181818;stroke-width:1.0;" x1="454" x2="454" y1="723.8125" y2="743.8125"/><polygon fill="#181818" points="450,733.8125,454,743.8125,458,733.8125,454,737.8125" style="stroke:#181818;stroke-width:1.0;"/><line style="stroke:#181818;stroke-width:1.0;" x1="294.75" x2="231.5" y1="563.6094" y2="563.6094"/><line style="stroke:#181818;stroke-width:1.0;" x1="231.5" x2="231.5" y1="563.6094" y2="585.6094"/><polygon fill="#181818" points="227.5,575.6094,231.5,585.6094,235.5,575.6094,231.5,579.6094" style="stroke:#181818;stroke-width:1.0;"/><line style="stroke:#181818;stroke-width:1.0;" x1="390.75" x2="454" y1="563.6094" y2="563.6094"/><line style="stroke:#181818;stroke-width:1.0;" x1="454" x2="454" y1="563.6094" y2="621.9063"/><polygon fill="#181818" points="450,611.9063,454,621.9063,458,611.9063,454,615.9063" style="stroke:#181818;stroke-width:1.0;"/><line style="stroke:#181818;stroke-width:1.0;" x1="231.5" x2="231.5" y1="633.5469" y2="810.9297"/><line style="stroke:#181818;stroke-width:1.0;" x1="231.5" x2="330.75" y1="810.9297" y2="810.9297"/><polygon fill="#181818" points="320.75,806.9297,330.75,810.9297,320.75,814.9297,324.75,810.9297" style="stroke:#181818;stroke-width:1.0;"/><line style="stroke:#181818;stroke-width:1.0;" x1="454" x2="454" y1="777.7813" y2="810.9297"/><line style="stroke:#181818;stroke-width:1.0;" x1="454" x2="354.75" y1="810.9297" y2="810.9297"/><polygon fill="#181818" points="364.75,806.9297,354.75,810.9297,364.75,814.9297,360.75,810.9297" style="stroke:#181818;stroke-width:1.0;"/><line style="stroke:#181818;stroke-width:1.0;" x1="342.75" x2="342.75" y1="531.6094" y2="551.6094"/><polygon fill="#181818" points="338.75,541.6094,342.75,551.6094,346.75,541.6094,342.75,545.6094" style="stroke:#181818;stroke-width:1.0;"/><line style="stroke:#181818;stroke-width:1.0;" x1="146.375" x2="57" y1="179.5625" y2="179.5625"/><line style="stroke:#181818;stroke-width:1.0;" x1="57" x2="57" y1="179.5625" y2="201.5625"/><polygon fill="#181818" points="53,191.5625,57,201.5625,61,191.5625,57,195.5625" style="stroke:#181818;stroke-width:1.0;"/><line style="stroke:#181818;stroke-width:1.0;" x1="253.375" x2="342.75" y1="179.5625" y2="179.5625"/><line style="stroke:#181818;stroke-width:1.0;" x1="342.75" x2="342.75" y1="179.5625" y2="201.5625"/><polygon fill="#181818" points="338.75,191.5625,342.75,201.5625,346.75,191.5625,342.75,195.5625" style="stroke:#181818;stroke-width:1.0;"/><line style="stroke:#181818;stroke-width:1.0;" x1="57" x2="57" y1="235.5313" y2="840.9297"/><line style="stroke:#181818;stroke-width:1.0;" x1="57" x2="187.875" y1="840.9297" y2="840.9297"/><polygon fill="#181818" points="177.875,836.9297,187.875,840.9297,177.875,844.9297,181.875,840.9297" style="stroke:#181818;stroke-width:1.0;"/><line style="stroke:#181818;stroke-width:1.0;" x1="342.75" x2="342.75" y1="822.9297" y2="840.9297"/><line style="stroke:#181818;stroke-width:1.0;" x1="342.75" x2="211.875" y1="840.9297" y2="840.9297"/><polygon fill="#181818" points="221.875,836.9297,211.875,840.9297,221.875,844.9297,217.875,840.9297" style="stroke:#181818;stroke-width:1.0;"/><line style="stroke:#181818;stroke-width:1.0;" x1="199.875" x2="199.875" y1="147.5625" y2="167.5625"/><polygon fill="#181818" points="195.875,157.5625,199.875,167.5625,203.875,157.5625,199.875,161.5625" style="stroke:#181818;stroke-width:1.0;"/><line style="stroke:#181818;stroke-width:1.0;" x1="199.875" x2="199.875" y1="67.2969" y2="113.5938"/><polygon fill="#181818" points="195.875,103.5938,199.875,113.5938,203.875,103.5938,199.875,107.5938" style="stroke:#181818;stroke-width:1.0;"/></g></svg>