<?xml version="1.0" encoding="us-ascii" standalone="no"?><svg xmlns="http://www.w3.org/2000/svg" xmlns:xlink="http://www.w3.org/1999/xlink" contentStyleType="text/css" height="1019px" preserveAspectRatio="none" style="width:998px;height:1019px;background:#FFFFFF;" version="1.1" viewBox="0 0 998 1019" width="998px" zoomAndPan="magnify"><defs/><g><text fill="#000000" font-family="sans-serif" font-size="14" font-weight="bold" lengthAdjust="spacing" textLength="235" x="380.3125" y="32.9951">&#31995;&#32479;&#31649;&#29702;&#20013;&#26029;&#22788;&#29702;&#27969;&#31243;(55ms&#21608;&#26399;)</text><ellipse cx="230.5" cy="57.2969" fill="#222222" rx="10" ry="10" style="stroke:#222222;stroke-width:1.0;"/><rect fill="#F1F1F1" height="47.9375" rx="12.5" ry="12.5" style="stroke:#181818;stroke-width:0.5;" width="158" x="151.5" y="87.2969"/><text fill="#000000" font-family="sans-serif" font-size="12" lengthAdjust="spacing" textLength="138" x="161.5" y="108.4355">8254&#23450;&#26102;&#22120;&#27599;55ms&#35302;&#21457;</text><text fill="#000000" font-family="sans-serif" font-size="12" lengthAdjust="spacing" textLength="107" x="161.5" y="122.4043">&#31995;&#32479;&#31649;&#29702;&#20013;&#26029;(0xfc)</text><rect fill="none" height="863.4766" style="stroke:#000000;stroke-width:1.5;" width="976.625" x="11" y="145.2344"/><path d="M229,145.2344 L229,154.5313 L219,164.5313 L11,164.5313 " fill="none" style="stroke:#000000;stroke-width:1.5;"/><text fill="#000000" font-family="sans-serif" font-size="14" lengthAdjust="spacing" textLength="208" x="14" y="159.2295">system_management_handler</text><rect fill="#F1F1F1" height="33.9688" rx="12.5" ry="12.5" style="stroke:#181818;stroke-width:0.5;" width="68" x="196.5" y="181.5313"/><text fill="#000000" font-family="sans-serif" font-size="12" lengthAdjust="spacing" textLength="48" x="206.5" y="202.6699">&#20445;&#23384;&#29616;&#22330;</text><rect fill="#F1F1F1" height="33.9688" rx="12.5" ry="12.5" style="stroke:#181818;stroke-width:0.5;" width="187" x="137" y="235.5"/><text fill="#000000" font-family="sans-serif" font-size="12" lengthAdjust="spacing" textLength="167" x="147" y="256.6387">&#20174;pcb_ptr&#33719;&#21462;&#20219;&#21153;&#38142;&#34920;&#39318;&#33410;&#28857;</text><polygon fill="#F1F1F1" points="194.5,289.4688,266.5,289.4688,278.5,301.4688,266.5,313.4688,194.5,313.4688,182.5,301.4688,194.5,289.4688" style="stroke:#181818;stroke-width:0.5;"/><text fill="#000000" font-family="sans-serif" font-size="11" lengthAdjust="spacing" textLength="72" x="194.5" y="305.2769">&#20219;&#21153;&#38142;&#34920;&#20026;&#31354;?</text><text fill="#000000" font-family="sans-serif" font-size="11" lengthAdjust="spacing" textLength="11" x="171.5" y="298.8745">&#26159;</text><text fill="#000000" font-family="sans-serif" font-size="11" lengthAdjust="spacing" textLength="11" x="278.5" y="298.8745">&#21542;</text><rect fill="#F1F1F1" height="33.9688" rx="12.5" ry="12.5" style="stroke:#181818;stroke-width:0.5;" width="92" x="23" y="323.4688"/><text fill="#000000" font-family="sans-serif" font-size="12" lengthAdjust="spacing" textLength="72" x="33" y="344.6074">&#30452;&#25509;&#20013;&#26029;&#36820;&#22238;</text><rect fill="none" height="535.3047" style="stroke:#000000;stroke-width:1.5;" width="850.625" x="125" y="323.4688"/><path d="M289,323.4688 L289,332.7656 L279,342.7656 L125,342.7656 " fill="none" style="stroke:#000000;stroke-width:1.5;"/><text fill="#000000" font-family="sans-serif" font-size="14" lengthAdjust="spacing" textLength="154" x="128" y="337.4639">&#22806;&#23618;&#24490;&#29615;&#65306;&#36941;&#21382;&#25152;&#26377;&#20219;&#21153;</text><rect fill="#F1F1F1" height="33.9688" rx="12.5" ry="12.5" style="stroke:#181818;stroke-width:0.5;" width="187" x="312.875" y="403.7656"/><text fill="#000000" font-family="sans-serif" font-size="12" lengthAdjust="spacing" textLength="167" x="322.875" y="424.9043">&#33719;&#21462;&#24403;&#21069;&#20219;&#21153;&#30340;TCB&#38142;&#34920;&#39318;&#33410;&#28857;</text><polygon fill="#F1F1F1" points="369.875,457.7344,442.875,457.7344,454.875,469.7344,442.875,481.7344,369.875,481.7344,357.875,469.7344,369.875,457.7344" style="stroke:#181818;stroke-width:0.5;"/><text fill="#000000" font-family="sans-serif" font-size="11" lengthAdjust="spacing" textLength="73" x="369.875" y="473.5425">TCB&#38142;&#34920;&#20026;&#31354;?</text><text fill="#000000" font-family="sans-serif" font-size="11" lengthAdjust="spacing" textLength="11" x="346.875" y="467.1401">&#26159;</text><text fill="#000000" font-family="sans-serif" font-size="11" lengthAdjust="spacing" textLength="11" x="454.875" y="467.1401">&#21542;</text><rect fill="#F1F1F1" height="33.9688" rx="12.5" ry="12.5" style="stroke:#181818;stroke-width:0.5;" width="80" x="164.625" y="491.7344"/><text fill="#000000" font-family="sans-serif" font-size="12" lengthAdjust="spacing" textLength="60" x="174.625" y="512.873">&#36339;&#36807;&#35813;&#20219;&#21153;</text><rect fill="none" height="303.0391" style="stroke:#000000;stroke-width:1.5;" width="681" x="264.625" y="491.7344"/><path d="M470.625,491.7344 L470.625,501.0313 L460.625,511.0313 L264.625,511.0313 " fill="none" style="stroke:#000000;stroke-width:1.5;"/><text fill="#000000" font-family="sans-serif" font-size="14" lengthAdjust="spacing" textLength="196" x="267.625" y="505.7295">&#20869;&#23618;&#24490;&#29615;&#65306;&#36941;&#21382;&#20219;&#21153;&#30340;&#25152;&#26377;&#32447;&#31243;</text><rect fill="#F1F1F1" height="33.9688" rx="12.5" ry="12.5" style="stroke:#181818;stroke-width:0.5;" width="92" x="562.125" y="572.0313"/><text fill="#000000" font-family="sans-serif" font-size="12" lengthAdjust="spacing" textLength="72" x="572.125" y="593.1699">&#26816;&#26597;&#32447;&#31243;&#29366;&#24577;</text><polygon fill="#F1F1F1" points="334.625,650,439.625,650,451.625,662,439.625,674,334.625,674,322.625,662,334.625,650" style="stroke:#181818;stroke-width:0.5;"/><text fill="#000000" font-family="sans-serif" font-size="11" lengthAdjust="spacing" textLength="11" x="391.125" y="684.2104">&#26159;</text><text fill="#000000" font-family="sans-serif" font-size="11" lengthAdjust="spacing" textLength="105" x="334.625" y="665.8081">&#29366;&#24577; == 4&#12304;&#20241;&#30496;&#12305;?</text><rect fill="#F1F1F1" height="33.9688" rx="12.5" ry="12.5" style="stroke:#181818;stroke-width:0.5;" width="177" x="298.625" y="706.8047"/><text fill="#000000" font-family="sans-serif" font-size="12" lengthAdjust="spacing" textLength="157" x="308.625" y="727.9434">&#35843;&#29992;handle_waiting_sleep</text><polygon fill="#F1F1F1" points="507.625,650,634.625,650,646.625,662,634.625,674,507.625,674,495.625,662,507.625,650" style="stroke:#181818;stroke-width:0.5;"/><text fill="#000000" font-family="sans-serif" font-size="11" lengthAdjust="spacing" textLength="11" x="575.125" y="684.2104">&#26159;</text><text fill="#000000" font-family="sans-serif" font-size="11" lengthAdjust="spacing" textLength="127" x="507.625" y="665.8081">&#29366;&#24577; == 3&#12304;&#31561;&#24453;&#32447;&#31243;&#12305;?</text><rect fill="#F1F1F1" height="33.9688" rx="12.5" ry="12.5" style="stroke:#181818;stroke-width:0.5;" width="78" x="532.125" y="706.8047"/><text fill="#000000" font-family="sans-serif" font-size="12" lengthAdjust="spacing" textLength="58" x="542.125" y="727.9434">(&#21518;&#32493;&#22788;&#29702;)</text><polygon fill="#F1F1F1" points="678.625,650,805.625,650,817.625,662,805.625,674,678.625,674,666.625,662,678.625,650" style="stroke:#181818;stroke-width:0.5;"/><text fill="#000000" font-family="sans-serif" font-size="11" lengthAdjust="spacing" textLength="11" x="746.125" y="684.2104">&#26159;</text><text fill="#000000" font-family="sans-serif" font-size="11" lengthAdjust="spacing" textLength="127" x="678.625" y="665.8081">&#29366;&#24577; == 5&#12304;&#31561;&#24453;&#20449;&#21495;&#12305;?</text><text fill="#000000" font-family="sans-serif" font-size="11" lengthAdjust="spacing" textLength="44" x="817.625" y="659.4058">&#20854;&#20182;&#29366;&#24577;</text><rect fill="#F1F1F1" height="33.9688" rx="12.5" ry="12.5" style="stroke:#181818;stroke-width:0.5;" width="78" x="703.125" y="706.8047"/><text fill="#000000" font-family="sans-serif" font-size="12" lengthAdjust="spacing" textLength="58" x="713.125" y="727.9434">(&#21518;&#32493;&#22788;&#29702;)</text><rect fill="#F1F1F1" height="33.9688" rx="12.5" ry="12.5" style="stroke:#181818;stroke-width:0.5;" width="80" x="837.625" y="703.4023"/><text fill="#000000" font-family="sans-serif" font-size="12" lengthAdjust="spacing" textLength="60" x="847.625" y="724.541">&#36339;&#36807;&#35813;&#32447;&#31243;</text><polygon fill="#F1F1F1" points="563.625,528.0313,652.625,528.0313,664.625,540.0313,652.625,552.0313,563.625,552.0313,551.625,540.0313,563.625,528.0313" style="stroke:#181818;stroke-width:0.5;"/><text fill="#000000" font-family="sans-serif" font-size="11" lengthAdjust="spacing" textLength="89" x="563.625" y="543.8394">&#36941;&#21382;&#25152;&#26377;&#32447;&#31243;TCB</text><polygon fill="#F1F1F1" points="406.375,800.7734,418.375,812.7734,406.375,824.7734,394.375,812.7734,406.375,800.7734" style="stroke:#181818;stroke-width:0.5;"/><polygon fill="#F1F1F1" points="361.875,359.7656,450.875,359.7656,462.875,371.7656,450.875,383.7656,361.875,383.7656,349.875,371.7656,361.875,359.7656" style="stroke:#181818;stroke-width:0.5;"/><text fill="#000000" font-family="sans-serif" font-size="11" lengthAdjust="spacing" textLength="89" x="361.875" y="375.5737">&#36941;&#21382;&#25152;&#26377;&#20219;&#21153;PCB</text><polygon fill="#F1F1F1" points="230.5,864.7734,242.5,876.7734,230.5,888.7734,218.5,876.7734,230.5,864.7734" style="stroke:#181818;stroke-width:0.5;"/><rect fill="#F1F1F1" height="33.9688" rx="12.5" ry="12.5" style="stroke:#181818;stroke-width:0.5;" width="140" x="160.5" y="908.7734"/><text fill="#000000" font-family="sans-serif" font-size="12" lengthAdjust="spacing" textLength="120" x="170.5" y="929.9121">&#21521;8259A&#21457;&#36865;EOI&#21629;&#20196;</text><rect fill="#F1F1F1" height="33.9688" rx="12.5" ry="12.5" style="stroke:#181818;stroke-width:0.5;" width="68" x="196.5" y="962.7422"/><text fill="#000000" font-family="sans-serif" font-size="12" lengthAdjust="spacing" textLength="48" x="206.5" y="983.8809">&#20013;&#26029;&#36820;&#22238;</text><line style="stroke:#181818;stroke-width:1.0;" x1="230.5" x2="230.5" y1="67.2969" y2="87.2969"/><polygon fill="#181818" points="226.5,77.2969,230.5,87.2969,234.5,77.2969,230.5,81.2969" style="stroke:#181818;stroke-width:1.0;"/><line style="stroke:#181818;stroke-width:1.0;" x1="230.5" x2="230.5" y1="215.5" y2="235.5"/><polygon fill="#181818" points="226.5,225.5,230.5,235.5,234.5,225.5,230.5,229.5" style="stroke:#181818;stroke-width:1.0;"/><line style="stroke:#181818;stroke-width:1.0;" x1="387.125" x2="387.125" y1="674" y2="706.8047"/><polygon fill="#181818" points="383.125,696.8047,387.125,706.8047,391.125,696.8047,387.125,700.8047" style="stroke:#181818;stroke-width:1.0;"/><line style="stroke:#181818;stroke-width:1.0;" x1="387.125" x2="387.125" y1="740.7734" y2="760.7734"/><polygon fill="#181818" points="383.125,750.7734,387.125,760.7734,391.125,750.7734,387.125,754.7734" style="stroke:#181818;stroke-width:1.0;"/><line style="stroke:#181818;stroke-width:1.0;" x1="571.125" x2="571.125" y1="674" y2="706.8047"/><polygon fill="#181818" points="567.125,696.8047,571.125,706.8047,575.125,696.8047,571.125,700.8047" style="stroke:#181818;stroke-width:1.0;"/><line style="stroke:#181818;stroke-width:1.0;" x1="571.125" x2="571.125" y1="740.7734" y2="760.7734"/><polygon fill="#181818" points="567.125,750.7734,571.125,760.7734,575.125,750.7734,571.125,754.7734" style="stroke:#181818;stroke-width:1.0;"/><line style="stroke:#181818;stroke-width:1.0;" x1="742.125" x2="742.125" y1="674" y2="706.8047"/><polygon fill="#181818" points="738.125,696.8047,742.125,706.8047,746.125,696.8047,742.125,700.8047" style="stroke:#181818;stroke-width:1.0;"/><line style="stroke:#181818;stroke-width:1.0;" x1="742.125" x2="742.125" y1="740.7734" y2="760.7734"/><polygon fill="#181818" points="738.125,750.7734,742.125,760.7734,746.125,750.7734,742.125,754.7734" style="stroke:#181818;stroke-width:1.0;"/><line style="stroke:#181818;stroke-width:1.0;" x1="451.625" x2="495.625" y1="662" y2="662"/><polygon fill="#181818" points="485.625,658,495.625,662,485.625,666,489.625,662" style="stroke:#181818;stroke-width:1.0;"/><line style="stroke:#181818;stroke-width:1.0;" x1="646.625" x2="666.625" y1="662" y2="662"/><polygon fill="#181818" points="656.625,658,666.625,662,656.625,666,660.625,662" style="stroke:#181818;stroke-width:1.0;"/><line style="stroke:#181818;stroke-width:1.0;" x1="608.125" x2="608.125" y1="606" y2="627.7305"/><line style="stroke:#181818;stroke-width:1.0;" x1="608.125" x2="387.125" y1="627.7305" y2="627.7305"/><line style="stroke:#181818;stroke-width:1.0;" x1="387.125" x2="387.125" y1="627.7305" y2="650"/><polygon fill="#181818" points="383.125,640,387.125,650,391.125,640,387.125,644" style="stroke:#181818;stroke-width:1.0;"/><line style="stroke:#181818;stroke-width:1.0;" x1="817.625" x2="877.625" y1="662" y2="662"/><line style="stroke:#181818;stroke-width:1.0;" x1="877.625" x2="877.625" y1="662" y2="703.4023"/><polygon fill="#181818" points="873.625,693.4023,877.625,703.4023,881.625,693.4023,877.625,697.4023" style="stroke:#181818;stroke-width:1.0;"/><line style="stroke:#181818;stroke-width:1.0;" x1="877.625" x2="877.625" y1="737.3711" y2="760.7734"/><polygon fill="#181818" points="873.625,750.7734,877.625,760.7734,881.625,750.7734,877.625,754.7734" style="stroke:#181818;stroke-width:1.0;"/><line style="stroke:#181818;stroke-width:1.0;" x1="387.125" x2="877.625" y1="760.7734" y2="760.7734"/><line style="stroke:#181818;stroke-width:1.0;" x1="608.125" x2="608.125" y1="552.0313" y2="572.0313"/><polygon fill="#181818" points="604.125,562.0313,608.125,572.0313,612.125,562.0313,608.125,566.0313" style="stroke:#181818;stroke-width:1.0;"/><line style="stroke:#181818;stroke-width:1.0;" x1="608.125" x2="608.125" y1="760.7734" y2="770.7734"/><line style="stroke:#181818;stroke-width:1.0;" x1="608.125" x2="929.625" y1="770.7734" y2="770.7734"/><polygon fill="#181818" points="925.625,683.9023,929.625,673.9023,933.625,683.9023,929.625,679.9023" style="stroke:#181818;stroke-width:1.0;"/><line style="stroke:#181818;stroke-width:1.0;" x1="929.625" x2="929.625" y1="540.0313" y2="770.7734"/><line style="stroke:#181818;stroke-width:1.0;" x1="929.625" x2="664.625" y1="540.0313" y2="540.0313"/><polygon fill="#181818" points="674.625,536.0313,664.625,540.0313,674.625,544.0313,670.625,540.0313" style="stroke:#181818;stroke-width:1.0;"/><line style="stroke:#181818;stroke-width:1.0;" x1="551.625" x2="286.625" y1="540.0313" y2="540.0313"/><polygon fill="#181818" points="282.625,669.9023,286.625,679.9023,290.625,669.9023,286.625,673.9023" style="stroke:#181818;stroke-width:1.0;"/><line style="stroke:#181818;stroke-width:1.0;" x1="286.625" x2="286.625" y1="540.0313" y2="782.7734"/><line style="stroke:#181818;stroke-width:1.0;" x1="286.625" x2="608.125" y1="782.7734" y2="782.7734"/><line style="stroke:#181818;stroke-width:1.0;" x1="608.125" x2="608.125" y1="782.7734" y2="812.7734"/><line style="stroke:#181818;stroke-width:1.0;" x1="608.125" x2="418.375" y1="812.7734" y2="812.7734"/><polygon fill="#181818" points="428.375,808.7734,418.375,812.7734,428.375,816.7734,424.375,812.7734" style="stroke:#181818;stroke-width:1.0;"/><line style="stroke:#181818;stroke-width:1.0;" x1="357.875" x2="204.625" y1="469.7344" y2="469.7344"/><line style="stroke:#181818;stroke-width:1.0;" x1="204.625" x2="204.625" y1="469.7344" y2="491.7344"/><polygon fill="#181818" points="200.625,481.7344,204.625,491.7344,208.625,481.7344,204.625,485.7344" style="stroke:#181818;stroke-width:1.0;"/><line style="stroke:#181818;stroke-width:1.0;" x1="454.875" x2="608.125" y1="469.7344" y2="469.7344"/><line style="stroke:#181818;stroke-width:1.0;" x1="608.125" x2="608.125" y1="469.7344" y2="528.0313"/><polygon fill="#181818" points="604.125,518.0313,608.125,528.0313,612.125,518.0313,608.125,522.0313" style="stroke:#181818;stroke-width:1.0;"/><line style="stroke:#181818;stroke-width:1.0;" x1="204.625" x2="204.625" y1="525.7031" y2="812.7734"/><line style="stroke:#181818;stroke-width:1.0;" x1="204.625" x2="394.375" y1="812.7734" y2="812.7734"/><polygon fill="#181818" points="384.375,808.7734,394.375,812.7734,384.375,816.7734,388.375,812.7734" style="stroke:#181818;stroke-width:1.0;"/><line style="stroke:#181818;stroke-width:1.0;" x1="406.375" x2="406.375" y1="437.7344" y2="457.7344"/><polygon fill="#181818" points="402.375,447.7344,406.375,457.7344,410.375,447.7344,406.375,451.7344" style="stroke:#181818;stroke-width:1.0;"/><line style="stroke:#181818;stroke-width:1.0;" x1="406.375" x2="406.375" y1="383.7656" y2="403.7656"/><polygon fill="#181818" points="402.375,393.7656,406.375,403.7656,410.375,393.7656,406.375,397.7656" style="stroke:#181818;stroke-width:1.0;"/><line style="stroke:#181818;stroke-width:1.0;" x1="406.375" x2="406.375" y1="824.7734" y2="834.7734"/><line style="stroke:#181818;stroke-width:1.0;" x1="406.375" x2="959.625" y1="834.7734" y2="834.7734"/><polygon fill="#181818" points="955.625,630,959.625,620,963.625,630,959.625,626" style="stroke:#181818;stroke-width:1.0;"/><line style="stroke:#181818;stroke-width:1.0;" x1="959.625" x2="959.625" y1="371.7656" y2="834.7734"/><line style="stroke:#181818;stroke-width:1.0;" x1="959.625" x2="462.875" y1="371.7656" y2="371.7656"/><polygon fill="#181818" points="472.875,367.7656,462.875,371.7656,472.875,375.7656,468.875,371.7656" style="stroke:#181818;stroke-width:1.0;"/><line style="stroke:#181818;stroke-width:1.0;" x1="349.875" x2="142.625" y1="371.7656" y2="371.7656"/><polygon fill="#181818" points="138.625,616,142.625,626,146.625,616,142.625,620" style="stroke:#181818;stroke-width:1.0;"/><line style="stroke:#181818;stroke-width:1.0;" x1="142.625" x2="142.625" y1="371.7656" y2="846.7734"/><line style="stroke:#181818;stroke-width:1.0;" x1="142.625" x2="406.375" y1="846.7734" y2="846.7734"/><line style="stroke:#181818;stroke-width:1.0;" x1="406.375" x2="406.375" y1="846.7734" y2="876.7734"/><line style="stroke:#181818;stroke-width:1.0;" x1="406.375" x2="242.5" y1="876.7734" y2="876.7734"/><polygon fill="#181818" points="252.5,872.7734,242.5,876.7734,252.5,880.7734,248.5,876.7734" style="stroke:#181818;stroke-width:1.0;"/><line style="stroke:#181818;stroke-width:1.0;" x1="182.5" x2="69" y1="301.4688" y2="301.4688"/><line style="stroke:#181818;stroke-width:1.0;" x1="69" x2="69" y1="301.4688" y2="323.4688"/><polygon fill="#181818" points="65,313.4688,69,323.4688,73,313.4688,69,317.4688" style="stroke:#181818;stroke-width:1.0;"/><line style="stroke:#181818;stroke-width:1.0;" x1="278.5" x2="406.375" y1="301.4688" y2="301.4688"/><line style="stroke:#181818;stroke-width:1.0;" x1="406.375" x2="406.375" y1="301.4688" y2="359.7656"/><polygon fill="#181818" points="402.375,349.7656,406.375,359.7656,410.375,349.7656,406.375,353.7656" style="stroke:#181818;stroke-width:1.0;"/><line style="stroke:#181818;stroke-width:1.0;" x1="69" x2="69" y1="357.4375" y2="876.7734"/><line style="stroke:#181818;stroke-width:1.0;" x1="69" x2="218.5" y1="876.7734" y2="876.7734"/><polygon fill="#181818" points="208.5,872.7734,218.5,876.7734,208.5,880.7734,212.5,876.7734" style="stroke:#181818;stroke-width:1.0;"/><line style="stroke:#181818;stroke-width:1.0;" x1="230.5" x2="230.5" y1="269.4688" y2="289.4688"/><polygon fill="#181818" points="226.5,279.4688,230.5,289.4688,234.5,279.4688,230.5,283.4688" style="stroke:#181818;stroke-width:1.0;"/><line style="stroke:#181818;stroke-width:1.0;" x1="230.5" x2="230.5" y1="888.7734" y2="908.7734"/><polygon fill="#181818" points="226.5,898.7734,230.5,908.7734,234.5,898.7734,230.5,902.7734" style="stroke:#181818;stroke-width:1.0;"/><line style="stroke:#181818;stroke-width:1.0;" x1="230.5" x2="230.5" y1="942.7422" y2="962.7422"/><polygon fill="#181818" points="226.5,952.7422,230.5,962.7422,234.5,952.7422,230.5,956.7422" style="stroke:#181818;stroke-width:1.0;"/><line style="stroke:#181818;stroke-width:1.0;" x1="230.5" x2="230.5" y1="135.2344" y2="181.5313"/><polygon fill="#181818" points="226.5,171.5313,230.5,181.5313,234.5,171.5313,230.5,175.5313" style="stroke:#181818;stroke-width:1.0;"/></g></svg>