<?xml version="1.0" encoding="us-ascii" standalone="no"?><svg xmlns="http://www.w3.org/2000/svg" xmlns:xlink="http://www.w3.org/1999/xlink" contentStyleType="text/css" height="532px" preserveAspectRatio="none" style="width:484px;height:532px;background:#FFFFFF;" version="1.1" viewBox="0 0 484 532" width="484px" zoomAndPan="magnify"><defs/><g><text fill="#000000" font-family="sans-serif" font-size="14" font-weight="bold" lengthAdjust="spacing" textLength="272" x="104.5" y="32.9951">handle_waiting_sleep&#65306;&#20241;&#30496;&#32447;&#31243;&#22788;&#29702;</text><ellipse cx="265" cy="57.2969" fill="#222222" rx="10" ry="10" style="stroke:#222222;stroke-width:1.0;"/><rect fill="#F1F1F1" height="33.9688" rx="12.5" ry="12.5" style="stroke:#181818;stroke-width:0.5;" width="149" x="190.5" y="87.2969"/><text fill="#000000" font-family="sans-serif" font-size="12" lengthAdjust="spacing" textLength="129" x="200.5" y="108.4355">&#20256;&#20837;&#32447;&#31243;TCB&#22320;&#22336;(R11)</text><rect fill="#F1F1F1" height="33.9688" rx="12.5" ry="12.5" style="stroke:#181818;stroke-width:0.5;" width="179" x="175.5" y="141.2656"/><text fill="#000000" font-family="sans-serif" font-size="12" lengthAdjust="spacing" textLength="159" x="185.5" y="162.4043">&#35835;&#21462;TCB&#20559;&#31227;56&#22788;&#30340;&#20241;&#30496;&#26102;&#38388;</text><rect fill="#F1F1F1" height="33.9688" rx="12.5" ry="12.5" style="stroke:#181818;stroke-width:0.5;" width="88" x="221" y="195.2344"/><text fill="#000000" font-family="sans-serif" font-size="12" lengthAdjust="spacing" textLength="68" x="231" y="216.373">&#20241;&#30496;&#26102;&#38388;&#20943;1</text><polygon fill="#F1F1F1" points="223.5,249.2031,306.5,249.2031,318.5,261.2031,306.5,273.2031,223.5,273.2031,211.5,261.2031,223.5,249.2031" style="stroke:#181818;stroke-width:0.5;"/><text fill="#000000" font-family="sans-serif" font-size="11" lengthAdjust="spacing" textLength="83" x="223.5" y="265.0112">&#20241;&#30496;&#26102;&#38388; == 0?</text><text fill="#000000" font-family="sans-serif" font-size="11" lengthAdjust="spacing" textLength="11" x="200.5" y="258.6089">&#26159;</text><text fill="#000000" font-family="sans-serif" font-size="11" lengthAdjust="spacing" textLength="11" x="318.5" y="258.6089">&#21542;</text><rect fill="none" height="153.9336" style="stroke:#000000;stroke-width:1.5;" width="360" x="11" y="283.2031"/><path d="M77,283.2031 L77,292.5 L67,302.5 L11,302.5 " fill="none" style="stroke:#000000;stroke-width:1.5;"/><text fill="#000000" font-family="sans-serif" font-size="14" lengthAdjust="spacing" textLength="56" x="14" y="297.1982">&#21796;&#37266;&#32447;&#31243;</text><rect fill="#F1F1F1" height="33.9688" rx="12.5" ry="12.5" style="stroke:#181818;stroke-width:0.5;" width="144" x="21" y="319.5"/><text fill="#000000" font-family="sans-serif" font-size="12" lengthAdjust="spacing" textLength="124" x="31" y="340.6387">&#35774;&#32622;&#32447;&#31243;&#29366;&#24577;=0(&#23601;&#32490;)</text><path d="M171,369.7383 L171,393.4375 L151,397.4375 L171,401.4375 L171,425.1367 A0,0 0 0 0 171,425.1367 L361,425.1367 A0,0 0 0 0 361,425.1367 L361,379.7383 L351,369.7383 L171,369.7383 A0,0 0 0 0 171,369.7383 " fill="#FEFFDD" style="stroke:#181818;stroke-width:0.5;"/><path d="M351,369.7383 L351,379.7383 L361,379.7383 L351,369.7383 " fill="#FEFFDD" style="stroke:#181818;stroke-width:0.5;"/><text fill="#000000" font-family="sans-serif" font-size="13" font-weight="bold" lengthAdjust="spacing" textLength="28" x="177" y="386.8052">&#37325;&#35201;</text><text fill="#000000" font-family="sans-serif" font-size="13" lengthAdjust="spacing" textLength="104" x="205" y="386.8052">&#65306;&#38450;&#27490;&#25152;&#26377;&#22788;&#29702;&#22120;</text><text fill="#000000" font-family="sans-serif" font-size="13" lengthAdjust="spacing" textLength="169" x="177" y="401.938">&#37117;&#22788;&#20110;&#20572;&#26426;&#29366;&#24577;&#65292;&#30830;&#20445;&#21796;&#37266;&#30340;</text><text fill="#000000" font-family="sans-serif" font-size="13" lengthAdjust="spacing" textLength="104" x="177" y="417.0708">&#32447;&#31243;&#33021;&#34987;&#21450;&#26102;&#35843;&#24230;</text><rect fill="#F1F1F1" height="47.9375" rx="12.5" ry="12.5" style="stroke:#181818;stroke-width:0.5;" width="116" x="35" y="373.4688"/><text fill="#000000" font-family="sans-serif" font-size="12" lengthAdjust="spacing" textLength="96" x="45" y="394.6074">&#21521;&#25152;&#26377;&#22788;&#29702;&#22120;&#24191;&#25773;</text><text fill="#000000" font-family="sans-serif" font-size="12" lengthAdjust="spacing" textLength="84" x="45" y="408.5762">&#26032;&#32447;&#31243;&#35748;&#39046;&#20013;&#26029;</text><rect fill="#F1F1F1" height="33.9688" rx="12.5" ry="12.5" style="stroke:#181818;stroke-width:0.5;" width="92" x="381" y="283.2031"/><text fill="#000000" font-family="sans-serif" font-size="12" lengthAdjust="spacing" textLength="72" x="391" y="304.3418">&#32447;&#31243;&#32487;&#32493;&#20241;&#30496;</text><polygon fill="#F1F1F1" points="265,443.1367,277,455.1367,265,467.1367,253,455.1367,265,443.1367" style="stroke:#181818;stroke-width:0.5;"/><rect fill="#F1F1F1" height="33.9688" rx="12.5" ry="12.5" style="stroke:#181818;stroke-width:0.5;" width="44" x="243" y="487.1367"/><text fill="#000000" font-family="sans-serif" font-size="12" lengthAdjust="spacing" textLength="24" x="253" y="508.2754">&#36820;&#22238;</text><line style="stroke:#181818;stroke-width:1.0;" x1="265" x2="265" y1="67.2969" y2="87.2969"/><polygon fill="#181818" points="261,77.2969,265,87.2969,269,77.2969,265,81.2969" style="stroke:#181818;stroke-width:1.0;"/><line style="stroke:#181818;stroke-width:1.0;" x1="265" x2="265" y1="121.2656" y2="141.2656"/><polygon fill="#181818" points="261,131.2656,265,141.2656,269,131.2656,265,135.2656" style="stroke:#181818;stroke-width:1.0;"/><line style="stroke:#181818;stroke-width:1.0;" x1="265" x2="265" y1="175.2344" y2="195.2344"/><polygon fill="#181818" points="261,185.2344,265,195.2344,269,185.2344,265,189.2344" style="stroke:#181818;stroke-width:1.0;"/><line style="stroke:#181818;stroke-width:1.0;" x1="93" x2="93" y1="353.4688" y2="373.4688"/><polygon fill="#181818" points="89,363.4688,93,373.4688,97,363.4688,93,367.4688" style="stroke:#181818;stroke-width:1.0;"/><line style="stroke:#181818;stroke-width:1.0;" x1="211.5" x2="93" y1="261.2031" y2="261.2031"/><line style="stroke:#181818;stroke-width:1.0;" x1="93" x2="93" y1="261.2031" y2="319.5"/><polygon fill="#181818" points="89,309.5,93,319.5,97,309.5,93,313.5" style="stroke:#181818;stroke-width:1.0;"/><line style="stroke:#181818;stroke-width:1.0;" x1="318.5" x2="427" y1="261.2031" y2="261.2031"/><line style="stroke:#181818;stroke-width:1.0;" x1="427" x2="427" y1="261.2031" y2="283.2031"/><polygon fill="#181818" points="423,273.2031,427,283.2031,431,273.2031,427,277.2031" style="stroke:#181818;stroke-width:1.0;"/><line style="stroke:#181818;stroke-width:1.0;" x1="93" x2="93" y1="421.4063" y2="455.1367"/><line style="stroke:#181818;stroke-width:1.0;" x1="93" x2="253" y1="455.1367" y2="455.1367"/><polygon fill="#181818" points="243,451.1367,253,455.1367,243,459.1367,247,455.1367" style="stroke:#181818;stroke-width:1.0;"/><line style="stroke:#181818;stroke-width:1.0;" x1="427" x2="427" y1="317.1719" y2="455.1367"/><line style="stroke:#181818;stroke-width:1.0;" x1="427" x2="277" y1="455.1367" y2="455.1367"/><polygon fill="#181818" points="287,451.1367,277,455.1367,287,459.1367,283,455.1367" style="stroke:#181818;stroke-width:1.0;"/><line style="stroke:#181818;stroke-width:1.0;" x1="265" x2="265" y1="229.2031" y2="249.2031"/><polygon fill="#181818" points="261,239.2031,265,249.2031,269,239.2031,265,243.2031" style="stroke:#181818;stroke-width:1.0;"/><line style="stroke:#181818;stroke-width:1.0;" x1="265" x2="265" y1="467.1367" y2="487.1367"/><polygon fill="#181818" points="261,477.1367,265,487.1367,269,477.1367,265,481.1367" style="stroke:#181818;stroke-width:1.0;"/></g></svg>