<?xml version="1.0" encoding="us-ascii" standalone="no"?><svg xmlns="http://www.w3.org/2000/svg" xmlns:xlink="http://www.w3.org/1999/xlink" contentStyleType="text/css" height="1306px" preserveAspectRatio="none" style="width:1188px;height:1306px;background:#FFFFFF;" version="1.1" viewBox="0 0 1188 1306" width="1188px" zoomAndPan="magnify"><defs/><g><text fill="#000000" font-family="sans-serif" font-size="14" font-weight="bold" lengthAdjust="spacing" textLength="135" x="522.5" y="27.9951">&#32447;&#31243;&#31561;&#24453;&#19982;&#21796;&#37266;&#26426;&#21046;</text><rect fill="none" height="307.8047" style="stroke:#000000;stroke-width:1.5;" width="924.5" x="232.5" y="279.125"/><rect fill="none" height="116.2031" style="stroke:#000000;stroke-width:1.5;" width="161" x="986" y="463.7266"/><rect fill="none" height="350.1328" style="stroke:#000000;stroke-width:1.5;" width="869.5" x="212.5" y="686.1953"/><rect fill="none" height="276.8672" style="stroke:#000000;stroke-width:1.5;" width="849.5" x="222.5" y="752.4609"/><rect fill="none" height="119.3359" style="stroke:#000000;stroke-width:1.5;" width="829.5" x="232.5" y="902.9922"/><line style="stroke:#181818;stroke-width:0.5;stroke-dasharray:5.0,5.0;" x1="36" x2="36" y1="118.5938" y2="1225.9922"/><line style="stroke:#181818;stroke-width:0.5;stroke-dasharray:5.0,5.0;" x1="281.5" x2="281.5" y1="118.5938" y2="1225.9922"/><line style="stroke:#181818;stroke-width:0.5;stroke-dasharray:5.0,5.0;" x1="490" x2="490" y1="118.5938" y2="1225.9922"/><line style="stroke:#181818;stroke-width:0.5;stroke-dasharray:5.0,5.0;" x1="709" x2="709" y1="118.5938" y2="1225.9922"/><line style="stroke:#181818;stroke-width:0.5;stroke-dasharray:5.0,5.0;" x1="815" x2="815" y1="118.5938" y2="1225.9922"/><line style="stroke:#181818;stroke-width:0.5;stroke-dasharray:5.0,5.0;" x1="1024" x2="1024" y1="118.5938" y2="1225.9922"/><text fill="#000000" font-family="sans-serif" font-size="14" lengthAdjust="spacing" textLength="56" x="5" y="115.292">&#29992;&#25143;&#31243;&#24207;</text><ellipse cx="36" cy="50.7969" fill="#E2E2F0" rx="8" ry="8" style="stroke:#181818;stroke-width:0.5;"/><path d="M36,58.7969 L36,85.7969 M23,66.7969 L49,66.7969 M36,85.7969 L23,100.7969 M36,85.7969 L49,100.7969 " fill="none" style="stroke:#181818;stroke-width:0.5;"/><text fill="#000000" font-family="sans-serif" font-size="14" lengthAdjust="spacing" textLength="56" x="5" y="1237.9873">&#29992;&#25143;&#31243;&#24207;</text><ellipse cx="36" cy="1249.7891" fill="#E2E2F0" rx="8" ry="8" style="stroke:#181818;stroke-width:0.5;"/><path d="M36,1257.7891 L36,1284.7891 M23,1265.7891 L49,1265.7891 M36,1284.7891 L23,1299.7891 M36,1284.7891 L49,1299.7891 " fill="none" style="stroke:#181818;stroke-width:0.5;"/><rect fill="#E2E2F0" height="30.2969" rx="2.5" ry="2.5" style="stroke:#181818;stroke-width:0.5;" width="79" x="242.5" y="87.2969"/><text fill="#000000" font-family="sans-serif" font-size="14" lengthAdjust="spacing" textLength="65" x="249.5" y="107.292">&#24403;&#21069;&#32447;&#31243;A</text><rect fill="#E2E2F0" height="30.2969" rx="2.5" ry="2.5" style="stroke:#181818;stroke-width:0.5;" width="79" x="242.5" y="1224.9922"/><text fill="#000000" font-family="sans-serif" font-size="14" lengthAdjust="spacing" textLength="65" x="249.5" y="1244.9873">&#24403;&#21069;&#32447;&#31243;A</text><rect fill="#E2E2F0" height="30.2969" rx="2.5" ry="2.5" style="stroke:#181818;stroke-width:0.5;" width="42" x="469" y="87.2969"/><text fill="#000000" font-family="sans-serif" font-size="14" lengthAdjust="spacing" textLength="28" x="476" y="107.292">&#20869;&#26680;</text><rect fill="#E2E2F0" height="30.2969" rx="2.5" ry="2.5" style="stroke:#181818;stroke-width:0.5;" width="42" x="469" y="1224.9922"/><text fill="#000000" font-family="sans-serif" font-size="14" lengthAdjust="spacing" textLength="28" x="476" y="1244.9873">&#20869;&#26680;</text><rect fill="#E2E2F0" height="30.2969" rx="2.5" ry="2.5" style="stroke:#181818;stroke-width:0.5;" width="94" x="662" y="87.2969"/><text fill="#000000" font-family="sans-serif" font-size="14" lengthAdjust="spacing" textLength="80" x="669" y="107.292">&#34987;&#31561;&#24453;&#32447;&#31243;B</text><rect fill="#E2E2F0" height="30.2969" rx="2.5" ry="2.5" style="stroke:#181818;stroke-width:0.5;" width="94" x="662" y="1224.9922"/><text fill="#000000" font-family="sans-serif" font-size="14" lengthAdjust="spacing" textLength="80" x="669" y="1244.9873">&#34987;&#31561;&#24453;&#32447;&#31243;B</text><rect fill="#E2E2F0" height="30.2969" rx="2.5" ry="2.5" style="stroke:#181818;stroke-width:0.5;" width="98" x="766" y="87.2969"/><text fill="#000000" font-family="sans-serif" font-size="14" lengthAdjust="spacing" textLength="84" x="773" y="107.292">&#31995;&#32479;&#31649;&#29702;&#20013;&#26029;</text><rect fill="#E2E2F0" height="30.2969" rx="2.5" ry="2.5" style="stroke:#181818;stroke-width:0.5;" width="98" x="766" y="1224.9922"/><text fill="#000000" font-family="sans-serif" font-size="14" lengthAdjust="spacing" textLength="84" x="773" y="1244.9873">&#31995;&#32479;&#31649;&#29702;&#20013;&#26029;</text><rect fill="#E2E2F0" height="30.2969" rx="2.5" ry="2.5" style="stroke:#181818;stroke-width:0.5;" width="56" x="996" y="87.2969"/><text fill="#000000" font-family="sans-serif" font-size="14" lengthAdjust="spacing" textLength="42" x="1003" y="107.292">&#35843;&#24230;&#22120;</text><rect fill="#E2E2F0" height="30.2969" rx="2.5" ry="2.5" style="stroke:#181818;stroke-width:0.5;" width="56" x="996" y="1224.9922"/><text fill="#000000" font-family="sans-serif" font-size="14" lengthAdjust="spacing" textLength="42" x="1003" y="1244.9873">&#35843;&#24230;&#22120;</text><rect fill="#EEEEEE" height="3" style="stroke:#EEEEEE;stroke-width:1.0;" width="1181" x="0" y="149.1602"/><line style="stroke:#000000;stroke-width:1.0;" x1="0" x2="1181" y1="149.1602" y2="149.1602"/><line style="stroke:#000000;stroke-width:1.0;" x1="0" x2="1181" y1="152.1602" y2="152.1602"/><rect fill="#EEEEEE" height="23.1328" style="stroke:#000000;stroke-width:2.0;" width="103" x="539" y="138.5938"/><text fill="#000000" font-family="sans-serif" font-size="13" font-weight="bold" lengthAdjust="spacing" textLength="84" x="545" y="154.6606">&#32447;&#31243;&#31561;&#24453;&#38454;&#27573;</text><polygon fill="#181818" points="270,188.8594,280,192.8594,270,196.8594,274,192.8594" style="stroke:#181818;stroke-width:1.0;"/><line style="stroke:#181818;stroke-width:1.0;" x1="36" x2="276" y1="192.8594" y2="192.8594"/><text fill="#000000" font-family="sans-serif" font-size="13" lengthAdjust="spacing" textLength="222" x="43" y="187.7935">&#35843;&#29992;11&#21495;&#31995;&#32479;&#35843;&#29992;(wait for thread B)</text><polygon fill="#181818" points="478,217.9922,488,221.9922,478,225.9922,482,221.9922" style="stroke:#181818;stroke-width:1.0;"/><line style="stroke:#181818;stroke-width:1.0;" x1="282" x2="484" y1="221.9922" y2="221.9922"/><text fill="#000000" font-family="sans-serif" font-size="13" lengthAdjust="spacing" textLength="184" x="289" y="216.9263">&#25191;&#34892;waiting_for_a_thread&#20363;&#31243;</text><line style="stroke:#181818;stroke-width:1.0;" x1="490" x2="532" y1="251.125" y2="251.125"/><line style="stroke:#181818;stroke-width:1.0;" x1="532" x2="532" y1="251.125" y2="264.125"/><line style="stroke:#181818;stroke-width:1.0;" x1="491" x2="532" y1="264.125" y2="264.125"/><polygon fill="#181818" points="501,260.125,491,264.125,501,268.125,497,264.125" style="stroke:#181818;stroke-width:1.0;"/><text fill="#000000" font-family="sans-serif" font-size="13" lengthAdjust="spacing" textLength="205" x="497" y="246.0591">search_for_thread_id(&#32447;&#31243;B&#26631;&#35782;)</text><path d="M232.5,279.125 L296.5,279.125 L296.5,286.2578 L286.5,296.2578 L232.5,296.2578 L232.5,279.125 " fill="#EEEEEE" style="stroke:#000000;stroke-width:1.5;"/><rect fill="none" height="307.8047" style="stroke:#000000;stroke-width:1.5;" width="924.5" x="232.5" y="279.125"/><text fill="#000000" font-family="sans-serif" font-size="13" font-weight="bold" lengthAdjust="spacing" textLength="19" x="247.5" y="292.1919">alt</text><text fill="#000000" font-family="sans-serif" font-size="11" font-weight="bold" lengthAdjust="spacing" textLength="118" x="311.5" y="291.3354">[&#32447;&#31243;B&#19981;&#23384;&#22312;&#25110;&#24050;&#32456;&#27490;]</text><polygon fill="#181818" points="293,313.3906,283,317.3906,293,321.3906,289,317.3906" style="stroke:#181818;stroke-width:1.0;"/><line style="stroke:#181818;stroke-width:1.0;stroke-dasharray:2.0,2.0;" x1="287" x2="489" y1="317.3906" y2="317.3906"/><text fill="#000000" font-family="sans-serif" font-size="13" lengthAdjust="spacing" textLength="117" x="299" y="312.3247">&#31435;&#21363;&#36820;&#22238;&#65292;&#32487;&#32493;&#25191;&#34892;</text><line style="stroke:#000000;stroke-width:1.0;stroke-dasharray:2.0,2.0;" x1="232.5" x2="1157" y1="326.3906" y2="326.3906"/><text fill="#000000" font-family="sans-serif" font-size="11" font-weight="bold" lengthAdjust="spacing" textLength="107" x="237.5" y="336.6011">[&#32447;&#31243;B&#23384;&#22312;&#19988;&#26410;&#32456;&#27490;]</text><polygon fill="#181818" points="293,357.3281,283,361.3281,293,365.3281,289,361.3281" style="stroke:#181818;stroke-width:1.0;"/><line style="stroke:#181818;stroke-width:1.0;" x1="287" x2="489" y1="361.3281" y2="361.3281"/><text fill="#000000" font-family="sans-serif" font-size="13" lengthAdjust="spacing" textLength="116" x="299" y="356.2622">&#20445;&#23384;&#32447;&#31243;&#29366;&#24577;&#21040;TCB</text><polygon fill="#181818" points="293,386.4609,283,390.4609,293,394.4609,289,390.4609" style="stroke:#181818;stroke-width:1.0;"/><line style="stroke:#181818;stroke-width:1.0;" x1="287" x2="489" y1="390.4609" y2="390.4609"/><text fill="#000000" font-family="sans-serif" font-size="13" lengthAdjust="spacing" textLength="140" x="299" y="385.395">&#35774;&#32622;&#29366;&#24577;&#20026;"&#20241;&#30496;&#24182;&#31561;&#24453;"</text><polygon fill="#181818" points="293,415.5938,283,419.5938,293,423.5938,289,419.5938" style="stroke:#181818;stroke-width:1.0;"/><line style="stroke:#181818;stroke-width:1.0;" x1="287" x2="489" y1="419.5938" y2="419.5938"/><text fill="#000000" font-family="sans-serif" font-size="13" lengthAdjust="spacing" textLength="117" x="299" y="414.5278">&#35760;&#24405;&#34987;&#31561;&#24453;&#32447;&#31243;&#26631;&#35782;</text><polygon fill="#181818" points="1012,444.7266,1022,448.7266,1012,452.7266,1016,448.7266" style="stroke:#181818;stroke-width:1.0;"/><line style="stroke:#181818;stroke-width:1.0;" x1="490" x2="1018" y1="448.7266" y2="448.7266"/><text fill="#000000" font-family="sans-serif" font-size="13" lengthAdjust="spacing" textLength="174" x="497" y="443.6606">search_for_a_ready_thread</text><path d="M986,463.7266 L1050,463.7266 L1050,470.8594 L1040,480.8594 L986,480.8594 L986,463.7266 " fill="#EEEEEE" style="stroke:#000000;stroke-width:1.5;"/><rect fill="none" height="116.2031" style="stroke:#000000;stroke-width:1.5;" width="161" x="986" y="463.7266"/><text fill="#000000" font-family="sans-serif" font-size="13" font-weight="bold" lengthAdjust="spacing" textLength="19" x="1001" y="476.7935">alt</text><text fill="#000000" font-family="sans-serif" font-size="11" font-weight="bold" lengthAdjust="spacing" textLength="76" x="1065" y="475.937">[&#25214;&#21040;&#23601;&#32490;&#32447;&#31243;]</text><line style="stroke:#181818;stroke-width:1.0;" x1="1024" x2="1066" y1="501.9922" y2="501.9922"/><line style="stroke:#181818;stroke-width:1.0;" x1="1066" x2="1066" y1="501.9922" y2="514.9922"/><line style="stroke:#181818;stroke-width:1.0;" x1="1025" x2="1066" y1="514.9922" y2="514.9922"/><polygon fill="#181818" points="1035,510.9922,1025,514.9922,1035,518.9922,1031,514.9922" style="stroke:#181818;stroke-width:1.0;"/><text fill="#000000" font-family="sans-serif" font-size="13" lengthAdjust="spacing" textLength="104" x="1031" y="496.9263">&#20999;&#25442;&#21040;&#26032;&#32447;&#31243;&#25191;&#34892;</text><line style="stroke:#000000;stroke-width:1.0;stroke-dasharray:2.0,2.0;" x1="986" x2="1147" y1="523.9922" y2="523.9922"/><text fill="#000000" font-family="sans-serif" font-size="11" font-weight="bold" lengthAdjust="spacing" textLength="87" x="991" y="534.2026">[&#26410;&#25214;&#21040;&#23601;&#32490;&#32447;&#31243;]</text><line style="stroke:#181818;stroke-width:1.0;" x1="1024" x2="1066" y1="558.9297" y2="558.9297"/><line style="stroke:#181818;stroke-width:1.0;" x1="1066" x2="1066" y1="558.9297" y2="571.9297"/><line style="stroke:#181818;stroke-width:1.0;" x1="1025" x2="1066" y1="571.9297" y2="571.9297"/><polygon fill="#181818" points="1035,567.9297,1025,571.9297,1035,575.9297,1031,571.9297" style="stroke:#181818;stroke-width:1.0;"/><text fill="#000000" font-family="sans-serif" font-size="13" lengthAdjust="spacing" textLength="78" x="1031" y="553.8638">&#36827;&#20837;&#20572;&#26426;&#24490;&#29615;</text><rect fill="#EEEEEE" height="3" style="stroke:#EEEEEE;stroke-width:1.0;" width="1181" x="0" y="614.4961"/><line style="stroke:#000000;stroke-width:1.0;" x1="0" x2="1181" y1="614.4961" y2="614.4961"/><line style="stroke:#000000;stroke-width:1.0;" x1="0" x2="1181" y1="617.4961" y2="617.4961"/><rect fill="#EEEEEE" height="23.1328" style="stroke:#000000;stroke-width:2.0;" width="117" x="532" y="603.9297"/><text fill="#000000" font-family="sans-serif" font-size="13" font-weight="bold" lengthAdjust="spacing" textLength="98" x="538" y="619.9966">&#21608;&#26399;&#24615;&#26816;&#26597;&#38454;&#27573;</text><line style="stroke:#181818;stroke-width:1.0;" x1="815" x2="857" y1="658.1953" y2="658.1953"/><line style="stroke:#181818;stroke-width:1.0;" x1="857" x2="857" y1="658.1953" y2="671.1953"/><line style="stroke:#181818;stroke-width:1.0;" x1="816" x2="857" y1="671.1953" y2="671.1953"/><polygon fill="#181818" points="826,667.1953,816,671.1953,826,675.1953,822,671.1953" style="stroke:#181818;stroke-width:1.0;"/><text fill="#000000" font-family="sans-serif" font-size="13" lengthAdjust="spacing" textLength="169" x="822" y="653.1294">&#22806;&#37096;&#23450;&#26102;&#22120;&#35302;&#21457;&#31995;&#32479;&#31649;&#29702;&#20013;&#26029;</text><path d="M212.5,686.1953 L289.5,686.1953 L289.5,693.3281 L279.5,703.3281 L212.5,703.3281 L212.5,686.1953 " fill="#EEEEEE" style="stroke:#000000;stroke-width:1.5;"/><rect fill="none" height="350.1328" style="stroke:#000000;stroke-width:1.5;" width="869.5" x="212.5" y="686.1953"/><text fill="#000000" font-family="sans-serif" font-size="13" font-weight="bold" lengthAdjust="spacing" textLength="32" x="227.5" y="699.2622">loop</text><text fill="#000000" font-family="sans-serif" font-size="11" font-weight="bold" lengthAdjust="spacing" textLength="76" x="304.5" y="698.4058">[&#36941;&#21382;&#25152;&#26377;&#32447;&#31243;]</text><line style="stroke:#181818;stroke-width:1.0;" x1="815" x2="857" y1="724.4609" y2="724.4609"/><line style="stroke:#181818;stroke-width:1.0;" x1="857" x2="857" y1="724.4609" y2="737.4609"/><line style="stroke:#181818;stroke-width:1.0;" x1="816" x2="857" y1="737.4609" y2="737.4609"/><polygon fill="#181818" points="826,733.4609,816,737.4609,826,741.4609,822,737.4609" style="stroke:#181818;stroke-width:1.0;"/><text fill="#000000" font-family="sans-serif" font-size="13" lengthAdjust="spacing" textLength="174" x="822" y="719.395">&#26816;&#26597;&#32447;&#31243;&#29366;&#24577;&#26159;&#21542;&#20026;3(&#31561;&#24453;&#20013;)</text><path d="M222.5,752.4609 L286.5,752.4609 L286.5,759.5938 L276.5,769.5938 L222.5,769.5938 L222.5,752.4609 " fill="#EEEEEE" style="stroke:#000000;stroke-width:1.5;"/><rect fill="none" height="276.8672" style="stroke:#000000;stroke-width:1.5;" width="849.5" x="222.5" y="752.4609"/><text fill="#000000" font-family="sans-serif" font-size="13" font-weight="bold" lengthAdjust="spacing" textLength="19" x="237.5" y="765.5278">alt</text><text fill="#000000" font-family="sans-serif" font-size="11" font-weight="bold" lengthAdjust="spacing" textLength="76" x="301.5" y="764.6714">[&#29366;&#24577;&#20026;&#31561;&#24453;&#20013;]</text><line style="stroke:#181818;stroke-width:1.0;" x1="815" x2="857" y1="790.7266" y2="790.7266"/><line style="stroke:#181818;stroke-width:1.0;" x1="857" x2="857" y1="790.7266" y2="803.7266"/><line style="stroke:#181818;stroke-width:1.0;" x1="816" x2="857" y1="803.7266" y2="803.7266"/><polygon fill="#181818" points="826,799.7266,816,803.7266,826,807.7266,822,803.7266" style="stroke:#181818;stroke-width:1.0;"/><text fill="#000000" font-family="sans-serif" font-size="13" lengthAdjust="spacing" textLength="169" x="822" y="785.6606">handle_waiting_thread&#22788;&#29702;</text><line style="stroke:#181818;stroke-width:1.0;" x1="815" x2="857" y1="832.8594" y2="832.8594"/><line style="stroke:#181818;stroke-width:1.0;" x1="857" x2="857" y1="832.8594" y2="845.8594"/><line style="stroke:#181818;stroke-width:1.0;" x1="816" x2="857" y1="845.8594" y2="845.8594"/><polygon fill="#181818" points="826,841.8594,816,845.8594,826,849.8594,822,845.8594" style="stroke:#181818;stroke-width:1.0;"/><text fill="#000000" font-family="sans-serif" font-size="13" lengthAdjust="spacing" textLength="117" x="822" y="827.7935">&#21462;&#20986;&#34987;&#31561;&#24453;&#32447;&#31243;&#26631;&#35782;</text><line style="stroke:#181818;stroke-width:1.0;" x1="815" x2="857" y1="874.9922" y2="874.9922"/><line style="stroke:#181818;stroke-width:1.0;" x1="857" x2="857" y1="874.9922" y2="887.9922"/><line style="stroke:#181818;stroke-width:1.0;" x1="816" x2="857" y1="887.9922" y2="887.9922"/><polygon fill="#181818" points="826,883.9922,816,887.9922,826,891.9922,822,887.9922" style="stroke:#181818;stroke-width:1.0;"/><text fill="#000000" font-family="sans-serif" font-size="13" lengthAdjust="spacing" textLength="195" x="822" y="869.9263">search_for_thread_id&#26597;&#25214;&#32447;&#31243;B</text><path d="M232.5,902.9922 L296.5,902.9922 L296.5,910.125 L286.5,920.125 L232.5,920.125 L232.5,902.9922 " fill="#EEEEEE" style="stroke:#000000;stroke-width:1.5;"/><rect fill="none" height="119.3359" style="stroke:#000000;stroke-width:1.5;" width="829.5" x="232.5" y="902.9922"/><text fill="#000000" font-family="sans-serif" font-size="13" font-weight="bold" lengthAdjust="spacing" textLength="19" x="247.5" y="916.0591">alt</text><text fill="#000000" font-family="sans-serif" font-size="11" font-weight="bold" lengthAdjust="spacing" textLength="118" x="311.5" y="915.2026">[&#32447;&#31243;B&#19981;&#23384;&#22312;&#25110;&#24050;&#32456;&#27490;]</text><polygon fill="#181818" points="293,937.2578,283,941.2578,293,945.2578,289,941.2578" style="stroke:#181818;stroke-width:1.0;"/><line style="stroke:#181818;stroke-width:1.0;" x1="287" x2="814" y1="941.2578" y2="941.2578"/><text fill="#000000" font-family="sans-serif" font-size="13" lengthAdjust="spacing" textLength="109" x="299" y="936.1919">&#35774;&#32622;&#29366;&#24577;&#20026;&#23601;&#32490;(0)</text><polygon fill="#181818" points="1012,966.3906,1022,970.3906,1012,974.3906,1016,970.3906" style="stroke:#181818;stroke-width:1.0;"/><line style="stroke:#181818;stroke-width:1.0;" x1="815" x2="1018" y1="970.3906" y2="970.3906"/><text fill="#000000" font-family="sans-serif" font-size="13" lengthAdjust="spacing" textLength="104" x="822" y="965.3247">&#24191;&#25773;&#32447;&#31243;&#35748;&#39046;&#20013;&#26029;</text><line style="stroke:#000000;stroke-width:1.0;stroke-dasharray:2.0,2.0;" x1="232.5" x2="1062" y1="979.3906" y2="979.3906"/><text fill="#000000" font-family="sans-serif" font-size="11" font-weight="bold" lengthAdjust="spacing" textLength="107" x="237.5" y="989.6011">[&#32447;&#31243;B&#23384;&#22312;&#19988;&#26410;&#32456;&#27490;]</text><polygon fill="#181818" points="293,1010.3281,283,1014.3281,293,1018.3281,289,1014.3281" style="stroke:#181818;stroke-width:1.0;"/><line style="stroke:#181818;stroke-width:1.0;" x1="287" x2="814" y1="1014.3281" y2="1014.3281"/><text fill="#000000" font-family="sans-serif" font-size="13" lengthAdjust="spacing" textLength="104" x="299" y="1009.2622">&#32487;&#32493;&#20445;&#25345;&#31561;&#24453;&#29366;&#24577;</text><rect fill="#EEEEEE" height="3" style="stroke:#EEEEEE;stroke-width:1.0;" width="1181" x="0" y="1063.8945"/><line style="stroke:#000000;stroke-width:1.0;" x1="0" x2="1181" y1="1063.8945" y2="1063.8945"/><line style="stroke:#000000;stroke-width:1.0;" x1="0" x2="1181" y1="1066.8945" y2="1066.8945"/><rect fill="#EEEEEE" height="23.1328" style="stroke:#000000;stroke-width:2.0;" width="103" x="539" y="1053.3281"/><text fill="#000000" font-family="sans-serif" font-size="13" font-weight="bold" lengthAdjust="spacing" textLength="84" x="545" y="1069.395">&#32447;&#31243;&#21796;&#37266;&#38454;&#27573;</text><line style="stroke:#181818;stroke-width:1.0;" x1="1024" x2="1066" y1="1107.5938" y2="1107.5938"/><line style="stroke:#181818;stroke-width:1.0;" x1="1066" x2="1066" y1="1107.5938" y2="1120.5938"/><line style="stroke:#181818;stroke-width:1.0;" x1="1025" x2="1066" y1="1120.5938" y2="1120.5938"/><polygon fill="#181818" points="1035,1116.5938,1025,1120.5938,1035,1124.5938,1031,1120.5938" style="stroke:#181818;stroke-width:1.0;"/><text fill="#000000" font-family="sans-serif" font-size="13" lengthAdjust="spacing" textLength="143" x="1031" y="1102.5278">&#25910;&#21040;&#35748;&#39046;&#20013;&#26029;&#25110;&#27491;&#24120;&#35843;&#24230;</text><polygon fill="#181818" points="293,1145.7266,283,1149.7266,293,1153.7266,289,1149.7266" style="stroke:#181818;stroke-width:1.0;"/><line style="stroke:#181818;stroke-width:1.0;" x1="287" x2="1023" y1="1149.7266" y2="1149.7266"/><text fill="#000000" font-family="sans-serif" font-size="13" lengthAdjust="spacing" textLength="87" x="299" y="1144.6606">&#24674;&#22797;&#25191;&#34892;&#32447;&#31243;A</text><polygon fill="#181818" points="478,1174.8594,488,1178.8594,478,1182.8594,482,1178.8594" style="stroke:#181818;stroke-width:1.0;"/><line style="stroke:#181818;stroke-width:1.0;" x1="282" x2="484" y1="1178.8594" y2="1178.8594"/><text fill="#000000" font-family="sans-serif" font-size="13" lengthAdjust="spacing" textLength="147" x="289" y="1173.7935">&#20174;.return&#26631;&#21495;&#22788;&#32487;&#32493;&#25191;&#34892;</text><polygon fill="#181818" points="47,1203.9922,37,1207.9922,47,1211.9922,43,1207.9922" style="stroke:#181818;stroke-width:1.0;"/><line style="stroke:#181818;stroke-width:1.0;stroke-dasharray:2.0,2.0;" x1="41" x2="489" y1="1207.9922" y2="1207.9922"/><text fill="#000000" font-family="sans-serif" font-size="13" lengthAdjust="spacing" textLength="143" x="53" y="1202.9263">&#31995;&#32479;&#35843;&#29992;&#36820;&#22238;&#65292;&#31561;&#24453;&#32467;&#26463;</text></g></svg>